<svg width="98" height="98" viewBox="0 0 98 98" fill="none" xmlns="http://www.w3.org/2000/svg">
<path fill-rule="evenodd" clip-rule="evenodd" d="M69.9728 2.4208C82.3971 5.82696 90.5557 10.8713 94.8053 24.4311C99.0711 37.9259 98.3412 52.4426 96.7354 66.3268C94.416 80.0487 87.8632 90.3321 74.9523 94.0951C59.6245 99.3016 38.3766 99.3016 23.0489 94.0951C10.138 90.3321 3.58516 80.0487 1.26573 66.3268C-0.340035 52.4426 -1.08615 37.9259 3.19588 24.4311C7.42925 10.8713 15.604 5.82696 28.0284 2.4208C40.8258 -0.806935 57.1754 -0.806935 69.9728 2.4208Z" fill="#E1322D"/>
<path fill-rule="evenodd" clip-rule="evenodd" d="M76.2174 41.0888C77.4826 41.0888 78.7477 41.0077 80.0129 41.0077C80.5157 40.9752 81.1158 41.0239 81.4402 41.4618C81.7808 41.9322 81.5862 42.5486 81.3104 43.0027L74.8063 54.9243C74.5954 55.3298 74.2386 55.7515 73.752 55.7515C73.2816 55.8001 72.8599 55.4595 72.6328 55.0702C70.2161 51.1126 67.7993 47.1388 65.3826 43.1811C65.1717 42.8243 65.1069 42.3864 65.2366 41.9971C65.3664 41.5916 65.8205 41.4132 66.2098 41.3483C66.9397 41.2834 67.6696 41.3483 68.3833 41.2672C67.8967 39.8074 67.2154 38.4287 66.4044 37.1474C65.707 36.0282 64.9122 35.0064 64.0364 34.0332C63.2578 33.2222 62.4468 32.4112 61.5385 31.73C57.5322 28.486 52.277 26.8478 47.1353 27.156C41.799 27.4642 39.8364 28.9888 35.7652 31.2596C36.0248 29.6863 37.0142 27.2695 36.9655 26.0044C36.9817 25.5664 36.7222 25.1285 36.3167 25.015C35.8301 24.8365 35.3273 25.0312 34.8569 25.1772C33.2512 25.6475 31.6454 26.1179 30.0234 26.5883L29.9586 26.2639C32.7808 23.9445 36.0248 22.1278 39.512 21.0087C46.1621 18.8352 53.607 19.2083 59.9976 22.063C63.2254 23.4741 66.1449 25.5178 68.6428 27.9832C70.7513 30.1404 72.2922 32.1679 73.7358 34.8117C74.8225 36.8068 75.6335 38.9153 76.2174 41.0888ZM31.5157 65.159C31.1913 65.2401 30.8344 65.2725 30.5911 65.532C30.2181 65.8889 30.2505 66.489 30.4938 66.9269C31.759 69.1166 33.0565 71.2738 34.3055 73.4635C29.4882 70.8034 25.4981 66.6836 22.9354 61.8339C21.508 59.1414 20.5024 56.2219 19.9996 53.205C18.9291 46.8955 19.9672 40.5373 22.9516 34.8928C22.092 34.0818 21.2485 33.2384 20.3727 32.4274C19.9996 32.103 19.6265 31.6326 19.6914 31.0974C19.7563 30.6108 20.2429 30.3026 20.6808 30.1566L33.8675 26.2801C34.3055 26.1504 34.8245 26.1017 35.2138 26.3936C35.5706 26.6856 35.6355 27.2046 35.5544 27.6426C34.5163 32.0868 33.3972 36.531 32.3104 40.9752C32.2131 41.4294 32.0509 41.9322 31.613 42.1593C31.1913 42.3701 30.6722 42.1917 30.3316 41.8998C29.7639 41.4132 29.2449 40.8617 28.6934 40.3751C27.3796 43.4893 26.893 46.9441 27.2012 50.3178C27.6229 55.2649 29.8937 60.0011 33.4296 63.4883L33.608 63.6667C33.7378 63.7803 33.8675 63.91 33.9973 64.0236C34.0784 64.1047 34.1757 64.1696 34.273 64.2669C34.5812 64.5913 34.9543 64.8346 35.2787 65.1427C35.1489 65.1427 35.0354 65.1427 34.9056 65.1427C34.3703 65.1914 33.8189 65.159 33.2836 65.1752C32.6835 65.1752 32.0996 65.2076 31.5157 65.159ZM49.7467 22.063C46.5352 21.9008 43.3074 22.3063 40.2581 23.3119V23.2957L40.2419 23.3119C39.7229 23.4741 39.2038 23.6687 38.6848 23.8634C38.7335 23.912 38.7659 23.9769 38.7983 24.0256C39.1876 24.5933 39.3985 25.3069 39.3823 25.9882C39.3985 26.1666 39.3823 26.345 39.366 26.5234C41.4097 25.5664 43.5507 24.9501 46.9407 24.7554L46.9893 24.7392C49.8765 24.577 52.7798 24.9339 55.5047 25.8097C58.2297 26.6694 60.8086 28.0318 63.0632 29.8322L63.0469 29.8485C63.5822 30.2377 64.0526 30.6595 64.5067 31.0812C64.9122 31.4704 65.3177 31.8922 65.7232 32.2977L65.8205 32.395C66.2909 32.914 66.7613 33.4655 67.2317 34.0981C67.6696 34.682 68.0913 35.2659 68.4481 35.866V35.8822C68.9347 36.6446 69.3564 37.3744 69.6971 38.0881C70.0701 38.8667 70.4107 39.6777 70.6865 40.5049C70.7351 40.6671 70.7676 40.813 70.7838 40.9752C70.946 42.3053 69.989 43.5218 68.659 43.6677L68.5292 43.684L70.8649 47.5118C71.7732 49.0203 72.6977 50.5287 73.6222 52.0534L78.3098 43.4731H78.18C77.4015 43.4893 76.6391 43.5218 76.2174 43.5218V43.5055C75.1631 43.5055 74.1737 42.8081 73.8818 41.7376C73.6222 40.7319 73.2816 39.7101 72.8761 38.6883C72.5193 37.7799 72.13 36.9203 71.6921 36.0931L71.6272 35.9795C70.9622 34.7631 70.2647 33.6926 69.5024 32.6707C68.7239 31.6164 67.8804 30.6595 66.9235 29.67C65.7719 28.5347 64.5229 27.4966 63.1767 26.5883C61.8629 25.6962 60.4842 24.9176 59.0407 24.2851L59.0244 24.2689C56.1049 22.9713 52.942 22.2252 49.7467 22.063ZM28.8718 63.8127C29.2124 63.4721 29.5368 63.2612 29.845 63.1315C28.7096 61.6879 27.7364 60.1308 26.9579 58.4764C25.7739 55.9786 25.0277 53.2699 24.7844 50.5287C24.6222 48.6148 24.6709 46.7008 24.9466 44.8518C25.2224 43.0027 25.7252 41.1699 26.4551 39.4344V39.4506C26.5524 39.2073 26.6984 38.9802 26.8768 38.7694C27.7689 37.7637 29.2935 37.6826 30.2992 38.5585L30.3965 38.6558C30.6722 37.5204 30.8831 36.6446 31.1102 35.7525C31.6454 33.5628 32.1807 31.3569 32.7159 29.151L23.3247 31.9084L23.4869 32.0544C23.8275 32.3788 24.1681 32.7194 24.5736 33.0924C25.3684 33.8061 25.6279 35.0226 25.0926 36.012C23.7139 38.6234 22.7894 41.3645 22.3353 44.1868C21.8811 47.009 21.8973 49.9124 22.3839 52.8157C22.611 54.1782 22.9516 55.5406 23.4058 56.8544C23.8437 58.1682 24.4114 59.4496 25.0764 60.6823L25.0602 60.6985H25.0764C25.9036 62.2881 26.9092 63.7803 28.0608 65.159C28.2068 64.6724 28.4826 64.2182 28.8718 63.8127Z" fill="white"/>
<path fill-rule="evenodd" clip-rule="evenodd" d="M76.7365 53.059C76.6391 54.7296 75.7146 57.5032 75.1145 59.0279C71.5137 68.6787 61.8467 75.8802 51.612 76.9832C49.0979 77.2589 46.5514 77.2103 44.0536 76.8372C43.8914 76.7886 43.8265 76.9345 43.7616 77.0481C43.2101 78.0375 42.6424 79.0107 42.0748 80.0001C41.8639 80.3893 41.4746 80.7462 40.988 80.7137C40.4852 80.7137 40.1122 80.292 39.8851 79.8865C37.7278 76.2046 35.5544 72.5065 33.3972 68.8246C33.1863 68.4354 32.9268 68.0785 32.7646 67.6568C32.6673 67.3 32.6673 66.862 32.943 66.5701C33.235 66.2619 33.6729 66.1646 34.0784 66.1646C37.0953 66.1484 40.0959 66.1321 43.1128 66.1159C44.6537 66.0673 46.2108 66.0997 47.7679 66.0835C48.2058 66.0673 48.7249 66.1646 49.0006 66.5539C49.2439 66.8945 49.2115 67.3649 49.033 67.7541C48.7249 68.3867 48.3032 68.9706 48.0112 69.6194C53.5097 69.7816 59.0244 67.6082 62.9983 63.7965C66.3071 60.6661 68.5617 56.4652 69.324 51.9723C69.3402 51.8101 69.3727 51.6641 69.4213 51.5019C69.7295 51.9236 69.9566 52.3778 70.2323 52.8157C71.0433 54.1295 71.8381 55.4757 72.6653 56.7895C72.9086 57.195 73.3952 57.5519 73.8818 57.4383C74.8063 57.2113 76.2336 53.9835 76.7365 53.059ZM70.6054 58.0709L70.2323 57.4546C69.9404 58.152 69.616 58.8495 69.2591 59.5145C68.0426 61.769 66.4855 63.8127 64.6527 65.5482C62.4306 67.673 59.7868 69.3437 56.9321 70.4628C54.1098 71.5496 51.093 72.1173 48.0599 72.0524C47.7192 72.0524 47.3786 71.9875 47.038 71.8415C45.8215 71.3063 45.2538 69.8789 45.7891 68.6624L45.8702 68.5002C44.9781 68.5002 44.1022 68.5002 43.1777 68.5327C40.8096 68.5327 38.4253 68.5651 36.0572 68.5651L41.0042 76.9994L41.653 75.864L41.7179 75.7343V75.7505C42.2369 74.9071 42.8046 73.9663 44.5888 74.4691C45.708 74.6313 46.8109 74.7124 47.8814 74.7449C49.0168 74.7611 50.1684 74.7124 51.3525 74.5664C56.0562 74.0636 60.6464 72.1497 64.4581 69.2301C67.8156 66.6674 70.5729 63.3423 72.276 59.5631C72.2111 59.5307 72.1625 59.4982 72.0976 59.482C71.5786 59.1901 71.1082 58.7684 70.7838 58.298C70.7189 58.2331 70.654 58.152 70.6054 58.0709Z" fill="white"/>
</svg>
