<svg width="120" height="120" viewBox="0 0 120 120" fill="none" xmlns="http://www.w3.org/2000/svg">
<path fill-rule="evenodd" clip-rule="evenodd" d="M85.6706 2.94054C100.894 7.11999 110.903 13.2897 116.097 29.908C121.331 46.4267 120.415 64.2193 118.445 81.2157C115.62 98.0131 107.6 110.611 91.7798 115.209C73.0144 121.597 47.0055 121.597 28.2202 115.209C12.4199 110.611 4.38043 98.0131 1.55468 81.2157C-0.41539 64.2193 -1.33077 46.4267 3.90284 29.908C9.09665 13.2897 19.1062 7.11999 34.3294 2.94054C49.9905 -0.980181 70.0095 -0.980181 85.6706 2.94054Z" fill="#E1322D"/>
<path d="M83.0239 19.6783C83.6408 19.3996 84.2975 19.6584 84.8546 19.9768C85.0337 20.5142 85.3919 21.0714 85.1929 21.6486C84.8347 22.6835 84.0189 23.4597 83.3224 24.2757C79.223 28.674 73.273 31.3011 67.2434 31.2215C66.2286 31.4205 65.1341 30.5647 65.2535 29.5099C65.2137 28.6342 66.0893 28.0173 66.8653 27.878C69.7707 27.8182 72.7954 27.4799 75.3824 26.0868C75.8003 25.8877 76.2381 25.6688 76.656 25.43C78.4072 24.4747 79.9394 23.1611 81.2329 21.6486C81.7702 20.9719 82.1682 20.0763 83.0239 19.6783Z" fill="white"/>
<path d="M56.8359 24.2358C60.2985 21.2306 64.8754 19.2603 69.512 19.6782C70.5667 20.4544 70.5866 22.365 69.2334 22.8228C67.8205 23.0218 66.3679 23.0417 65.0147 23.5392C64.756 23.6189 64.4774 23.6985 64.1988 23.798C63.8605 23.9174 63.5222 24.0567 63.1839 24.196C60.9751 25.1911 58.9851 26.6042 57.2737 28.2959C55.4828 27.1813 53.3734 26.644 51.3038 26.3455C48.1995 25.8877 45.2145 27.3804 42.9062 29.3109C42.5281 29.6691 41.9709 29.5895 41.4933 29.6293C41.0754 29.3308 40.6973 28.9725 40.3789 28.5745C40.3988 27.9774 40.3192 27.2809 40.8167 26.8231C42.8863 24.7334 45.6921 23.5193 48.5577 23.0218C51.2043 22.7233 53.9505 23.1412 56.418 24.1761C56.5175 24.196 56.7364 24.2159 56.8359 24.2358Z" fill="white"/>
<path fill-rule="evenodd" clip-rule="evenodd" d="M80.3176 33.4705C80.3574 33.4307 80.3773 33.371 80.4967 33.2914C81.432 32.4555 82.3474 31.6395 84.1981 31.7191C84.9343 31.7589 85.6109 32.0575 86.1283 32.5351C88.1183 34.2865 90.3471 35.9782 92.5559 37.6699C94.0086 38.7844 95.4414 39.879 96.9139 41.0731H96.9338C97.6701 41.6702 98.2671 42.128 98.8641 42.5658C100.058 43.4614 101.272 44.3371 102.386 45.4317C103.043 46.0487 103.361 46.9045 103.322 47.7603L103.342 48.2379C103.361 51.4223 103.381 54.6265 103.322 57.8108C103.401 59.5025 103.381 61.2141 103.342 62.9257C103.322 64.4383 103.302 65.9707 103.361 67.5231V67.6425C103.381 68.8565 103.361 70.0507 103.342 71.2249C103.322 72.5185 103.302 73.8122 103.342 75.1058C103.401 76.499 103.361 77.912 103.342 79.3052C103.322 80.5192 103.302 81.7133 103.342 82.9274C103.401 84.42 103.381 85.9127 103.342 87.4053C103.322 88.7985 103.302 90.1717 103.361 91.545V91.6047C103.401 92.7391 103.381 93.8934 103.342 95.0279C103.322 96.0628 103.302 97.0778 103.342 98.1127C103.421 99.7646 102.108 101.178 100.436 101.237C100.357 101.257 100.257 101.237 100.158 101.237C99.0034 101.217 97.8293 101.217 96.6751 101.237C95.123 101.257 93.5907 101.277 92.0783 101.217C89.8695 101.257 87.6407 101.237 85.4119 101.237C83.1832 101.217 80.9544 101.217 78.7257 101.257C78.666 101.257 78.6063 101.257 78.5466 101.257C76.8551 101.178 75.2034 101.217 73.5517 101.237C72.1787 101.257 70.8056 101.277 69.4126 101.237H69.333C67.9599 101.178 66.6068 101.217 65.2337 101.237C63.8407 101.257 62.4278 101.277 61.0149 101.237C59.7016 101.178 58.4081 101.217 57.0947 101.237C55.7017 101.257 54.3088 101.297 52.9158 101.237H52.8959C51.5825 101.178 50.289 101.217 48.9757 101.237C47.5827 101.257 46.1897 101.297 44.7768 101.237C43.4833 101.178 42.1899 101.217 40.9163 101.237C39.5034 101.257 38.1104 101.297 36.6976 101.237C35.3842 101.178 34.0708 101.217 32.7574 101.237C31.2649 101.257 29.7725 101.297 28.28 101.217H27.5238C26.3895 101.198 25.2552 101.178 24.1807 101.277C22.5091 101.456 21.0365 100.242 20.8773 98.5704C20.8574 98.4311 20.8574 98.2918 20.8574 98.1326V84.6788C20.8574 76.4393 20.8574 68.2197 20.8574 59.9802C20.8574 58.3283 22.1907 56.9949 23.8225 56.9551C25.4741 56.9153 27.1457 56.9352 28.8173 56.9551L29.4541 56.975C29.5337 55.6415 29.6332 54.3678 29.7327 53.1139C29.9317 50.4272 30.1307 47.7603 30.1904 45.3521C30.1904 45.2924 30.1904 45.2128 30.2103 45.1332C30.4292 42.8046 30.5884 40.297 30.7277 37.8092C30.7874 36.7544 30.8471 35.7195 30.9068 34.8438C31.0063 33.172 32.4589 31.9182 34.1305 32.0177H34.1703C36.1404 32.0575 38.0905 32.0575 40.0407 32.0376C41.8516 32.0376 43.6425 32.0177 45.4335 32.0575C47.0255 32.0774 48.319 33.3312 48.4185 34.9035V34.8836C48.4782 35.9185 48.5976 37.3116 48.6971 38.6849C48.8364 40.5756 48.9756 42.4663 49.0751 44.6356C49.294 46.5064 49.3935 48.4767 49.4731 50.4471C49.5527 52.1785 49.6323 53.8901 49.8313 55.6614C49.8512 55.7808 49.8512 55.9002 49.8512 56.0197C49.8711 56.2585 49.891 56.5968 49.9109 56.9551C51.9606 56.9551 53.9904 56.9551 56.04 56.9551C58.7066 56.9551 61.393 56.975 64.0596 56.9551V55.8803C64.0397 53.1139 64.0397 50.3276 64.0994 47.5811C64.0994 46.7851 64.4178 46.0885 64.9153 45.571V45.5511C65.6715 44.7351 66.4874 44.1381 67.3032 43.541C67.6813 43.2624 68.0594 42.9837 68.1788 42.9041L68.1987 42.8842V42.8643C69.3529 41.9886 69.8902 41.5707 70.4275 41.1528C72.2782 39.7198 74.1288 38.2868 75.8999 36.834L75.9596 36.7942C76.3377 36.4956 76.7357 36.1971 77.1337 35.8986C77.9695 35.3015 78.8052 34.6846 79.5216 34.0079C79.7604 33.789 80.0191 33.6098 80.3176 33.4705ZM92.1579 98.1923C87.6606 98.2719 83.1633 98.1525 78.6659 98.2321C75.6014 98.1127 72.5369 98.2918 69.4723 98.2122C66.6864 98.0928 63.9004 98.3117 61.1144 98.2122C58.428 98.1127 55.7216 98.3117 53.0153 98.2122C50.3089 98.1127 47.6026 98.3117 44.8962 98.2122C42.1899 98.1127 39.5034 98.3117 36.7971 98.2122C34.0111 98.1127 31.2052 98.3316 28.4193 98.2122C26.9069 98.1923 25.3945 98.1326 23.8822 98.2719C23.8822 85.5146 23.8822 72.7574 23.8822 59.9802C26.7079 59.9205 29.5138 60.02 32.3395 60.0001C32.5186 55.144 33.0957 50.2878 33.2151 45.4118C33.5534 41.9687 33.7126 38.5058 33.9315 35.0428C37.7522 35.1224 41.573 35.003 45.3937 35.0627C45.6126 38.3665 45.9111 41.6702 46.0504 44.974C46.4882 48.636 46.4086 52.3378 46.8265 55.9998C46.8862 57.3332 47.0056 58.6467 47.0255 59.9802C53.7118 59.9404 60.3981 60.0399 67.0843 59.9603C67.0843 55.8405 67.0246 51.7407 67.1042 47.6409C67.9798 46.7254 69.0743 46.0487 70.0693 45.2526C72.6562 43.2425 75.2631 41.2523 77.8103 39.1824C79.0838 38.2072 80.4171 37.3116 81.5912 36.217C82.4469 35.7991 83.0439 34.7045 84.0588 34.7443C87.5611 37.8092 91.3818 40.496 95.0036 43.4216C96.7547 44.8546 98.6651 46.0487 100.297 47.621C100.337 51.0441 100.357 54.4673 100.297 57.9104C100.456 61.1544 100.197 64.3985 100.337 67.6425C100.396 70.1502 100.217 72.6778 100.317 75.2053C100.416 77.8324 100.237 80.4396 100.317 83.0468C100.436 85.9326 100.197 88.7985 100.337 91.6843C100.416 93.8735 100.237 96.0429 100.317 98.2122C97.6104 98.1525 94.8842 98.3117 92.1579 98.1923ZM78.7257 63.2441C78.7058 61.0549 78.666 58.8657 78.7257 56.6963C77.6113 56.6764 76.4969 56.6565 75.4024 56.6565C75.3825 58.8856 75.5218 61.1146 75.4422 63.3436C76.5367 63.3038 77.6312 63.2839 78.7257 63.2441ZM82.029 56.6565C82.0489 58.8856 82.1086 61.0947 82.0489 63.3237C83.1633 63.3038 84.2777 63.3038 85.3721 63.3038C85.2527 61.0947 85.3721 58.8657 85.4119 56.6565C84.2777 56.6565 83.1434 56.6565 82.029 56.6565ZM88.6755 63.2441C89.7899 63.3237 90.8843 63.3038 91.9788 63.3237C91.9589 61.0947 91.9788 58.8657 91.9987 56.6565C90.9042 56.6366 89.8098 56.6565 88.7153 56.6764C88.7352 58.8657 88.6158 61.0549 88.6755 63.2441ZM32.2002 68.2595C32.2002 69.374 32.1803 70.4885 32.2599 71.603C34.4489 71.7026 36.6379 71.5831 38.8467 71.603C38.8666 70.4885 38.8666 69.3939 38.8666 68.2794C36.6379 68.2993 34.429 68.3988 32.2002 68.2595ZM42.2098 68.3192C42.2496 69.4337 42.2695 70.5283 42.1899 71.6428C44.3987 71.6428 46.5877 71.5632 48.7966 71.603C48.8364 70.4885 48.8165 69.3939 48.8364 68.2794C46.6275 68.2794 44.4186 68.3391 42.2098 68.3192ZM68.7161 68.2993C66.5272 68.359 64.3382 68.2993 62.1492 68.2595C62.0895 69.374 62.1293 70.4885 62.1094 71.5831C64.3183 71.5632 66.5471 71.6827 68.7559 71.6428C68.7161 70.5283 68.736 69.4138 68.7161 68.2993ZM75.3626 74.9466C76.4969 74.9267 77.6113 74.8869 78.7257 74.867C78.6262 72.6778 78.7456 70.4686 78.6859 68.2595C77.6113 68.3192 76.5168 68.359 75.4422 68.2993C75.482 70.5084 75.3825 72.7375 75.3626 74.9466ZM58.8061 71.6229C58.7464 70.5283 58.7663 69.4138 58.7663 68.2993C56.5574 68.3391 54.3685 68.2794 52.1596 68.2993C52.1795 69.4138 52.1795 70.5283 52.1198 71.6428C54.3486 71.5433 56.5773 71.6229 58.8061 71.6229ZM85.392 74.9267C85.4119 72.7176 85.2925 70.5283 85.3522 68.3192C84.2578 68.3192 83.1633 68.359 82.0688 68.2993C82.0688 70.5084 82.0091 72.7176 82.029 74.9466C83.1434 74.9267 84.2777 74.9267 85.392 74.9267ZM88.6755 68.2794C88.6556 70.4885 88.7551 72.6778 88.7153 74.8869C89.8098 74.9267 90.9042 74.9466 91.9987 74.9267C92.0186 72.7176 91.9589 70.5084 91.9788 68.2993C90.8843 68.3391 89.77 68.3391 88.6755 68.2794ZM78.7455 86.5695C78.666 84.3802 78.666 82.1711 78.7257 79.9619C77.6113 79.942 76.477 79.9022 75.3626 79.942C75.4024 82.1313 75.482 84.3205 75.4422 86.5098C76.5566 86.47 77.6511 86.5695 78.7455 86.5695ZM88.6954 86.5894C89.77 86.4898 90.8843 86.4898 91.9788 86.5297C91.9589 84.3205 91.9987 82.1114 91.9987 79.9221C90.9042 79.9022 89.8098 79.942 88.7153 79.942C88.775 82.1512 88.6158 84.3802 88.6954 86.5894ZM85.3721 86.5098C85.2527 84.3205 85.4119 82.1313 85.392 79.9221C84.2777 79.9221 83.1633 79.9221 82.029 79.9221C82.0091 82.1114 82.1086 84.3205 82.0489 86.5098C83.1434 86.5098 84.2578 86.4899 85.3721 86.5098Z" fill="white"/>
</svg>
