<svg width="98" height="98" viewBox="0 0 98 98" fill="none" xmlns="http://www.w3.org/2000/svg">
<path fill-rule="evenodd" clip-rule="evenodd" d="M69.9643 2.41235C82.4071 5.81336 90.5661 10.8622 94.8103 24.4267C99.0809 37.9253 98.3428 52.4521 96.7347 66.333C94.4149 80.0557 87.864 90.3378 74.9467 94.0948C59.6173 99.3017 38.3828 99.3017 23.0534 94.0948C10.1361 90.3378 3.57201 80.0557 1.26535 66.333C-0.342721 52.4521 -1.08085 37.9253 3.18977 24.4267C7.43402 10.8622 15.593 5.81336 28.0358 2.41235C40.8213 -0.804116 57.1788 -0.804116 69.9643 2.41235Z" fill="#E1322D"/>
<path d="M22.5657 18.8374H23.317C26.5068 20.6434 29.7625 22.3702 32.8205 24.3871C33.295 25.5208 32.715 26.7863 32.6887 27.9727C38.0797 33.3774 43.4838 38.7689 48.888 44.1736C49.9952 43.4486 51.1551 42.3677 52.5919 42.7236C54.9776 43.2904 56.6516 45.7555 56.0057 48.1942C57.4952 50.6329 60.7772 49.7102 62.5171 51.793C67.2622 56.499 71.9942 61.2315 76.7261 65.9507C78.0178 67.1898 78.7823 68.8508 79.1514 70.5908V71.8563C79.0196 75.376 76.3966 78.5529 72.8905 79.1593H70.3729C68.6989 78.7902 67.1436 77.9597 65.9441 76.7338C61.3967 72.1991 56.8888 67.6248 52.3414 63.1033C50.707 61.7587 49.9689 59.755 49.8634 57.6854C49.2835 57.1318 48.7035 56.5781 48.1235 56.0245C45.7114 56.6177 43.2861 54.9567 42.7325 52.5971C42.3766 51.1602 43.4575 50.0002 44.1693 48.8797C38.7651 43.4882 33.3873 38.0835 27.9699 32.6919C26.7968 32.7447 25.5446 33.2324 24.3979 32.8369C22.3812 29.7787 20.6545 26.5226 18.8487 23.3325V22.6339C20.0086 21.3025 21.3004 20.0897 22.5657 18.8374ZM21.5508 23.293C22.9612 25.7053 24.332 28.1309 25.7423 30.5432C26.9286 30.5564 28.4181 29.6732 29.3671 30.7278C34.9426 36.2116 40.4391 41.7877 45.9882 47.311C46.4232 46.8628 46.8582 46.4278 47.3063 45.9796C41.8626 40.5354 36.4189 35.1043 30.9883 29.66C29.6702 28.6845 30.4611 27.0236 30.527 25.7053C28.1149 24.3476 25.716 22.9503 23.317 21.5529C22.7239 22.133 22.1308 22.713 21.5508 23.293ZM44.8678 52.0303C45.4083 52.6498 45.9091 53.3089 46.5682 53.7967C47.3459 53.6121 48.1367 53.4935 48.9276 53.4539C50.1007 54.4822 51.2474 55.5499 52.1833 56.7759C52.4469 58.015 52.1042 59.5046 53.1455 60.4537C57.627 65.0543 62.2403 69.5231 66.7482 74.0841C67.8685 75.1914 69.0285 76.4569 70.6629 76.7338C73.1541 77.2874 75.843 75.5737 76.4889 73.1086C77.0952 71.184 76.4625 69.0222 74.9862 67.6776C70.3729 63.0374 65.7332 58.4105 61.1199 53.7703C60.3422 52.8607 59.2614 52.2939 58.0356 52.3466C56.1507 52.4521 55.1358 50.5407 53.8836 49.4334C52.6578 48.6161 54.3713 47.1001 53.5277 46.2037C53.0268 45.716 52.1305 44.4637 51.4319 45.3601C49.1253 47.456 46.8977 49.6575 44.8678 52.0303Z" fill="white"/>
<path d="M63.8352 18.8374H67.1832C68.0926 19.101 69.4503 19.3251 69.0944 20.6302C67.0382 23.5039 63.7561 25.3758 61.9899 28.4604C64.3493 31.176 66.8141 33.9047 69.7798 35.9743C72.3632 33.6279 74.6172 30.9123 77.3325 28.7109C78.9932 28.6054 78.901 30.4378 79.1514 31.611V33.3906C78.4133 38.1494 76.3439 42.9477 72.6269 46.1114C69.3844 48.7347 64.7974 48.0624 61.3704 46.1773C60.4477 47.2451 58.3915 48.8138 57.7983 46.5728C58.5496 45.281 59.6041 44.055 60.9881 43.4223C64.0197 44.8328 67.829 46.6783 70.9265 44.3846C74.3799 41.524 76.278 37.0421 76.6471 32.626C74.6304 34.3661 73.075 36.7125 70.7156 38.0044C67.5127 38.9403 65.7069 35.4997 63.6375 33.7597C62.0162 31.8878 58.9319 30.1741 59.8809 27.2608C61.0672 24.7958 63.532 23.2798 65.2587 21.2366C62.5435 21.4475 59.8809 22.2384 57.5347 23.6489C55.2017 24.954 52.7369 26.8522 52.3942 29.7127C51.946 32.3624 53.5673 34.6297 54.4767 36.9762C53.2905 38.6503 51.7878 40.1399 50.1402 41.3658C49.2966 41.9986 48.4267 40.8122 48.5322 40.0212C49.4153 38.7426 50.6147 37.7275 51.6956 36.6202C49.9293 33.3906 49.0594 29.1855 51.287 25.9426C54.1604 21.8825 59.0901 19.7602 63.8352 18.8374Z" fill="white"/>
<path d="M33.7959 54.7722C35.8916 52.7948 37.7502 50.5802 39.9909 48.7743C41.5199 48.3129 42.0471 50.3825 40.8477 51.0943C38.6992 53.1244 36.8275 55.5631 34.4022 57.2241C31.5288 56.9077 28.4181 56.7495 25.9401 58.5028C21.0368 61.4292 19.8505 68.7849 23.5807 73.1219C27.0341 77.5774 34.3627 77.9597 38.251 73.8864C41.0718 71.2236 41.6781 67.0317 40.6631 63.4197C42.3239 61.7324 43.9188 59.9528 45.7114 58.3709C46.5287 57.4745 48.1367 58.595 47.5436 59.6892C46.3046 61.3633 44.6701 62.6815 43.2334 64.1711C45.0788 71.1841 39.5032 78.632 32.346 79.1593H30.2898C25.9269 78.7375 21.8408 75.9956 20.0614 71.9486C17.7811 67.1371 19.1519 60.9678 23.2248 57.5536C26.0719 54.9963 30.0789 54.1131 33.7959 54.7722Z" fill="white"/>
<path d="M55.373 57.1054C55.9398 56.5254 56.5198 55.9454 57.0997 55.3654C61.924 60.1901 66.7482 65.0148 71.5856 69.8526C71.0056 70.4195 70.4257 70.9995 69.8457 71.5795C65.0215 66.7548 60.1973 61.9301 55.373 57.1054Z" fill="white"/>
<path d="M31.1861 60.2164C31.9374 60.0978 32.9128 59.5177 33.5455 60.2164C35.1008 61.6928 36.6693 63.156 38.0533 64.8038C37.9347 67.1898 37.1702 69.5758 36.353 71.8168C34.0595 72.6209 31.6079 73.5305 29.1826 73.6096C27.4822 72.1331 25.8742 70.5249 24.3847 68.8244C24.4506 66.4384 25.3733 64.0393 26.1905 61.7983C27.759 61.0073 29.5253 60.7437 31.1861 60.2164ZM28.0095 63.5911C27.614 65.0279 27.2318 66.478 26.8364 67.928C27.9172 69.009 29.0112 70.1031 30.1052 71.1708C31.5683 70.7754 33.0182 70.3799 34.4813 69.9976C34.8504 68.5608 35.2194 67.1107 35.5753 65.6607C34.4945 64.5797 33.4137 63.4988 32.3328 62.4178C30.8961 62.8133 29.4462 63.1956 28.0095 63.5911Z" fill="white"/>
</svg>
