<svg width="22" height="23" viewBox="0 0 22 23" fill="none" xmlns="http://www.w3.org/2000/svg">
<path d="M15.6787 22.2357C7.03351 22.2357 0 15.2022 0 6.55701C0.00166478 5.01073 0.566189 3.51795 1.58812 2.3575C2.61005 1.19706 4.01948 0.448333 5.55314 0.251186C6.0086 0.19616 6.46964 0.289983 6.86737 0.518637C7.26511 0.74729 7.57818 1.0985 7.75981 1.51979L9.8881 6.48592C10.0261 6.80701 10.0824 7.15731 10.052 7.50548C10.0215 7.85365 9.90516 8.18884 9.7134 8.48104L8.08557 10.9685C8.81051 12.3326 9.92959 13.4468 11.297 14.1657L13.7439 12.5341C14.0369 12.338 14.3743 12.2183 14.7254 12.1861C15.0765 12.1538 15.43 12.2099 15.7539 12.3493L20.7159 14.4759C21.1373 14.6574 21.4886 14.9704 21.7173 15.3682C21.946 15.766 22.0398 16.2271 21.9846 16.6826C21.7874 18.2163 21.0387 19.6257 19.8782 20.6476C18.7178 21.6696 17.225 22.2341 15.6787 22.2357ZM5.55409 2.82748C4.70175 3.0119 3.93819 3.48245 3.39032 4.16093C2.84245 4.8394 2.54326 5.68494 2.5425 6.55701C2.54642 10.0397 3.93168 13.3787 6.39435 15.8414C8.85702 18.3041 12.196 19.6893 15.6787 19.6932C16.5508 19.6924 17.3963 19.3932 18.0748 18.8454C18.7533 18.2975 19.2238 17.534 19.4083 16.6817L14.9635 14.7768L12.5023 16.4179C12.1972 16.6215 11.8444 16.7425 11.4785 16.7687C11.1126 16.795 10.7461 16.7258 10.415 16.5679C8.35821 15.5712 6.69418 13.9147 5.6881 11.8625C5.52943 11.5333 5.45853 11.1688 5.48229 10.8042C5.50605 10.4396 5.62366 10.0873 5.8237 9.78153L7.46181 7.27865L5.55409 2.82748Z" fill="black"/>
</svg>
