<svg width="99" height="98" viewBox="0 0 99 98" fill="none" xmlns="http://www.w3.org/2000/svg">
<path fill-rule="evenodd" clip-rule="evenodd" d="M69.9778 2.40813C82.4115 5.81717 90.5641 10.8647 94.8188 24.4215C99.0867 37.9256 98.3468 52.447 96.7348 66.3342C94.4224 80.0497 87.8686 90.3429 74.946 94.0955C59.6185 99.3015 38.3847 99.3015 23.0572 94.0955C10.1346 90.3429 3.58075 80.0497 1.26842 66.3342C-0.343609 52.447 -1.08356 37.9256 3.19756 24.4215C7.43905 10.8647 15.5917 5.81717 28.0386 2.40813C40.8291 -0.80271 57.1873 -0.80271 69.9778 2.40813Z" fill="#E1322D"/>
<path fill-rule="evenodd" clip-rule="evenodd" d="M32.3726 47.5184C33.4032 47.1881 33.7468 47.3863 33.7336 48.4037C33.324 49.7119 32.333 50.9275 30.9984 51.3371C30.4302 51.2446 30.2849 50.65 30.4038 50.1479C30.6549 49.038 31.4609 48.1527 32.3726 47.5184ZM72.9904 52.6716C72.3033 49.7251 68.2072 42.6427 63.5561 40.6739C62.3801 41.546 61.693 42.352 60.1735 42.9334C60.9134 43.3563 61.7194 43.6602 62.4462 44.1094C63.9393 45.5497 62.9879 48.3245 59.341 46.5803C54.9013 44.0566 49.9728 44.2548 45.1631 44.1358C43.0093 43.6469 43.1547 40.5814 45.5067 40.5154C44.5421 39.5376 43.7493 38.4277 43.0226 37.2649L38.9264 38.4145C37.5919 36.4853 34.1432 35.6132 32.2273 37.0931C32.2273 38.7712 32.2405 40.4361 32.2273 42.1142C27.999 44.7436 26.4795 47.7695 25.4356 51.0993C24.7749 51.086 24.1143 51.0596 23.4404 51.1257C19.5821 51.7599 20.2956 59.5822 22.423 60.7582C23.3611 61.3924 24.5107 61.2471 25.581 61.2471C26.4795 64.3919 29.175 67.8802 31.7648 69.8226C31.9498 70.0075 32.2669 70.1397 32.2273 70.4436C32.2405 72.0292 32.2273 73.628 32.2273 75.2136C32.1744 77.0238 32.6765 79.3097 34.8435 79.5608C35.9402 79.8118 39.7192 79.7458 40.6706 79.3494C42.7451 78.4112 42.4147 76.6274 42.5204 74.8833C46.6562 75.9139 52.0208 75.8346 56.1566 74.7247L56.6455 74.7115C56.6587 75.4514 56.6191 76.1914 56.6719 76.9181C56.8569 77.9223 57.4647 78.8605 58.4029 79.2965C59.4864 79.8251 63.7279 79.8251 64.8906 79.4154C65.9741 78.9133 66.8991 77.8431 66.833 76.601C66.833 74.2094 66.8462 71.8178 66.833 69.4394C74.5628 60.8639 71.0613 60.5204 73.5057 55.8693C77.5226 54.9179 78.4739 49.9761 75.8445 47.056C76.003 49.3155 75.3027 51.6014 72.9904 52.6716ZM29.545 39.6037V37.212C29.5053 36.3796 29.8621 35.5207 30.5888 34.9658C30.6681 34.8997 30.7474 34.8469 30.8399 34.7808C32.4387 33.6841 34.4603 33.4462 36.3366 33.8426C37.5522 34.1069 38.7414 34.6487 39.7192 35.4018L42.2958 34.6751V34.6883C43.419 34.3712 44.6478 34.8072 45.2952 35.8379C45.6388 36.3796 45.9823 36.8817 46.3259 37.3442C46.6562 37.7934 47.0262 38.2295 47.4226 38.6391C47.8851 39.1148 48.1625 39.7358 48.189 40.4361C48.189 40.8193 48.1229 41.176 47.9908 41.5064C51.162 41.5724 54.3464 41.7574 57.4779 42.8145C57.5308 41.7839 58.1782 40.8193 59.2089 40.4229C59.9224 40.1454 60.4245 39.7358 60.9795 39.2865C61.2966 39.0355 61.6269 38.758 61.9705 38.507C62.7104 37.9784 63.7014 37.8199 64.5999 38.203C67.0708 39.2469 69.3039 41.3214 71.1141 43.6205C71.8805 44.5983 72.5808 45.6289 73.1886 46.6464C73.2811 46.0518 73.5586 45.4836 74.0475 45.0476C75.1442 44.0566 76.8487 44.149 77.8397 45.2458C78.8307 46.3425 79.4649 47.6242 79.7821 48.9455C80.1124 50.3197 80.086 51.7731 79.7028 53.1077C79.3196 54.4951 78.5796 55.7636 77.4829 56.7546C76.9015 57.2699 76.2277 57.7191 75.4745 58.0495C75.2102 58.7762 75.1442 59.384 75.0649 60.005C74.7742 62.3834 74.4703 64.7883 69.5153 70.4568C69.5153 71.4346 69.5153 72.3992 69.5153 73.3769C69.5153 74.4076 69.5153 75.4382 69.5153 76.4821C69.5681 77.6977 69.1982 78.8076 68.5507 79.7326C67.9561 80.6046 67.0973 81.3182 66.1591 81.7806C66.0402 81.8467 65.9081 81.9128 65.7759 81.9524C64.8906 82.2695 63.0804 82.4149 61.4155 82.3884C59.7771 82.362 58.099 82.1374 57.2269 81.7146C56.368 81.3049 55.6545 80.6839 55.1128 79.944C54.6635 79.3362 54.3332 78.6226 54.135 77.8959C52.589 78.1337 50.9638 78.2659 49.3253 78.2923C47.8586 78.3055 46.392 78.2262 44.9913 78.0545C44.7139 79.5079 43.9475 80.8161 41.7673 81.7938L41.7144 81.8203C40.9613 82.1374 39.5342 82.3224 38.1336 82.3752C36.8519 82.4149 35.4513 82.3752 34.5924 82.2431H34.5264C32.6369 82.0185 31.3816 81.0143 30.5756 79.6665C29.796 78.3716 29.5317 76.786 29.545 75.4118C29.545 75.3457 29.5317 75.2797 29.5317 75.2136C29.5317 67.7216 29.545 77.1295 29.545 73.7205C29.545 72.9805 29.545 72.2406 29.545 71.4874C28.1972 70.3775 26.8626 68.9505 25.7527 67.4045C24.9467 66.2946 24.2464 65.1054 23.7047 63.9162C22.8722 63.8633 22.0001 63.6651 21.1016 63.097C19.5953 62.2513 18.5382 60.2033 18.1683 57.957C17.9965 56.8999 17.9436 55.7768 18.0626 54.6933C18.1815 53.5041 18.4986 52.3545 19.0404 51.3635C19.8596 49.8704 21.1545 48.7737 23.0176 48.4698C23.0704 48.4698 23.1365 48.4566 23.2026 48.4566L23.5329 48.4302C24.0086 47.2013 24.6164 45.9989 25.4224 44.8229C26.4398 43.343 27.7612 41.9556 29.545 40.6739V39.6037Z" fill="white"/>
<path fill-rule="evenodd" clip-rule="evenodd" d="M53.2233 36.4325C56.5134 37.4499 60.6888 35.8511 63.0672 33.5387C67.9033 28.2666 66.9651 21.2768 61.3891 17.141C57.544 14.6305 52.1133 14.7494 48.6118 17.8677C45.5727 20.2593 44.7403 23.4966 44.8724 27.1699C45.1103 31.5567 49.0346 35.6793 53.2233 36.4325ZM43.0358 21.1182C43.7493 19.1758 44.9385 17.4053 46.7752 15.9122L46.828 15.8593C49.0214 13.9037 51.7962 12.8731 54.6239 12.7145C57.4912 12.556 60.4245 13.2959 62.8558 14.8947L62.9879 14.9872C63.4239 15.3043 63.86 15.6743 64.2828 16.0575C66.9123 18.4623 68.4582 21.4882 68.8018 24.6594C69.1585 27.8306 68.2997 31.1339 66.1063 34.0673C65.8288 34.4372 65.5249 34.8204 65.1681 35.2168C65.102 35.2961 65.0228 35.3886 64.9435 35.4679C63.3975 36.9742 61.2438 38.2295 58.9711 38.8901C56.8701 39.5112 54.6239 39.6433 52.5626 39.0355C49.9067 38.507 47.3697 36.961 45.4935 34.8865C43.6172 32.7856 42.3355 30.1033 42.1901 27.302H42.2033L42.1901 27.2624C42.1108 25.0954 42.3355 23.0474 43.0358 21.1182Z" fill="white"/>
</svg>
