<svg width="120" height="120" viewBox="0 0 120 120" fill="none" xmlns="http://www.w3.org/2000/svg">
<path fill-rule="evenodd" clip-rule="evenodd" d="M85.6846 2.96425C100.899 7.13505 110.889 13.3118 116.093 29.9156C121.317 46.4399 120.423 64.2155 118.457 81.2165C115.616 98.0189 107.592 110.611 91.7822 115.218C73.0128 121.594 46.9938 121.594 28.2244 115.218C12.4144 110.611 4.39018 98.0189 1.54993 81.2165C-0.416387 64.2155 -1.33003 46.4399 3.91349 29.9156C9.09743 13.3118 19.1078 7.13505 34.322 2.96425C49.9929 -0.988083 70.0137 -0.988083 85.6846 2.96425Z" fill="#E1322D"/>
<path fill-rule="evenodd" clip-rule="evenodd" d="M61.1148 18.4558C61.8298 18.4757 62.5448 18.5551 63.2797 18.5551L63.4982 18.5948C64.1934 18.6346 64.8687 18.714 65.544 18.714C65.7426 18.714 65.9412 18.7339 66.12 18.7736C65.9611 18.7736 65.7823 18.7736 65.6234 18.7935C66.835 18.8729 68.0068 19.1708 69.1787 19.3893L69.2383 19.4092C69.3177 19.5085 69.417 19.5482 69.5362 19.4886H69.6156C69.6752 19.6078 69.7745 19.6276 69.9136 19.5879L69.993 19.568L70.1916 19.6673L70.2512 19.6872C70.6882 19.8064 71.145 19.9255 71.582 20.0248C72.2573 20.2433 72.9326 20.4816 73.6079 20.7001L73.6675 20.72C74.1243 20.9186 74.6208 21.0377 75.0776 21.2364C75.4153 21.3555 75.7331 21.5343 76.0906 21.5939L76.2892 21.713C76.8851 22.0308 77.5207 22.2691 78.1364 22.5472L78.335 22.6266C78.3747 22.8252 78.6131 22.8848 78.7918 22.9047L78.9706 23.004C82.1485 24.6326 85.1476 26.6584 87.8091 29.0616C92.278 33.0536 95.7538 38.0983 98.1968 43.5601L98.2167 43.6197C98.4153 44.2155 98.7132 44.7518 98.9118 45.3476C99.2098 46.3208 99.6269 47.2542 99.8851 48.2274C99.9248 48.5253 100.024 48.8232 100.123 49.1212C100.302 49.6574 100.382 50.2532 100.6 50.7895L100.62 50.9285L100.68 51.1271L100.699 51.2066C100.878 52.3585 101.136 53.4906 101.256 54.6624C101.315 55.139 101.355 55.6157 101.434 56.0924L101.454 56.2711C101.434 56.569 101.474 56.8669 101.514 57.1649L101.534 57.3833C101.573 58.0586 101.593 58.7339 101.613 59.4091V60.7994C101.593 61.435 101.553 62.0705 101.553 62.7061L101.514 62.9444C101.454 63.2423 101.434 63.5402 101.454 63.8381L101.434 63.997C101.236 65.6058 101.017 67.1947 100.68 68.7835L100.62 69.1013L100.6 69.2403C100.501 69.3198 100.461 69.4389 100.521 69.5581V69.6177C100.342 69.7567 100.282 69.995 100.342 70.1937L100.322 70.2532C100.044 71.3853 99.6864 72.4975 99.3091 73.6097L99.2892 73.6693C99.031 74.3247 98.8324 75 98.5543 75.6356L98.455 75.8938C98.2365 76.2513 98.1174 76.6683 97.9386 77.0457C97.74 77.5224 97.5016 77.9593 97.2832 78.4161L97.2434 78.4757C96.1312 80.7001 94.8402 82.8451 93.3505 84.8511C92.6554 85.7845 91.8808 86.6584 91.1657 87.572L91.0863 87.6515C90.3514 88.3466 89.7158 89.141 88.9809 89.8163C88.544 90.2532 88.0474 90.6306 87.6502 91.0874L87.5509 91.1668C86.7167 91.8223 85.9023 92.5372 85.0483 93.1927C83.8367 94.1063 82.5656 94.9206 81.2944 95.715C80.341 96.2711 79.3877 96.7875 78.3946 97.284C77.5802 97.7607 76.6666 98.0387 75.8523 98.4955C75.1174 98.7537 74.4023 99.0318 73.6675 99.3098L73.6079 99.3297C72.4956 99.7071 71.3833 100.025 70.2512 100.323L70.1916 100.343C69.9732 100.283 69.7547 100.362 69.6156 100.521H69.5561C69.417 100.482 69.3177 100.502 69.2383 100.621H69.1787C69.0595 100.561 68.9602 100.581 68.8609 100.68H68.7616C67.1329 101.038 65.4645 101.276 63.7961 101.435H63.7167C63.3989 101.455 63.0811 101.475 62.7633 101.514L62.6044 101.534C60.8764 101.634 59.1286 101.634 57.4006 101.554L57.2417 101.514C56.9239 101.475 56.5863 101.455 56.2685 101.475L56.0897 101.435C54.8186 101.276 53.5474 101.137 52.2763 100.899C51.7996 100.799 51.3229 100.68 50.8264 100.621L50.6873 100.601C50.1511 100.382 49.5552 100.323 49.0189 100.124C48.7011 100.025 48.3834 99.9255 48.0457 99.8659C47.5492 99.7468 47.0725 99.568 46.5958 99.4091L46.5362 99.3893C45.5828 99.0318 44.6295 98.714 43.696 98.3168L43.5768 98.2572C40.3989 96.8868 37.3799 95.139 34.6588 93.0338C30.7858 90.0348 27.3894 86.4002 24.8074 82.2294C24.0328 81.0576 23.3972 79.8064 22.7417 78.575L22.7219 78.5154C22.3842 77.8203 22.0466 77.145 21.7486 76.4499L21.6891 76.3108C21.5302 75.9335 21.3713 75.5561 21.2322 75.1986C20.9939 74.6624 20.8549 74.1063 20.6165 73.57L20.5967 73.4906C20.398 72.9146 20.1994 72.3188 20.0008 71.723C19.8816 71.2264 19.7625 70.71 19.6036 70.2334L19.5837 70.1341C19.5241 69.7964 19.4447 69.4588 19.3255 69.141L19.2858 69.002C19.1865 68.3069 19.0276 67.6117 18.9283 66.9166L18.9084 66.857C18.7098 65.6256 18.5906 64.3744 18.4913 63.143L18.4714 62.9047C18.4317 62.289 18.4119 61.6733 18.3721 61.0775V59.4091C18.4119 58.6942 18.4317 57.999 18.4714 57.284L18.4913 57.145C18.531 56.8272 18.5509 56.4896 18.531 56.1718L18.5509 56.0725C18.6899 54.9801 18.7892 53.8878 18.9878 52.7954C19.0673 52.3188 19.1467 51.862 19.2262 51.4052V51.3257C19.3255 51.2264 19.3454 51.1271 19.3056 51.008V50.9484C19.4049 50.8689 19.4447 50.7696 19.3851 50.6505L19.4049 50.571C19.5043 50.4717 19.544 50.3327 19.4844 50.1937V50.1142L19.5837 49.9156L19.6036 49.856C19.8816 48.7239 20.1994 47.5919 20.5967 46.4995L20.6165 46.4399C20.974 45.5065 21.272 44.5531 21.6891 43.6395L21.7089 43.5998C22.0068 42.9245 22.3246 42.2493 22.6226 41.5939L22.6424 41.5343C22.9006 41.1768 23.0397 40.7597 23.2581 40.3823C24.1519 38.7339 25.1252 37.1251 26.2573 35.6157C26.5949 35.0993 27.012 34.6227 27.3695 34.1063L27.4291 34.007C27.6079 34.007 27.7469 33.8282 27.7072 33.6296L27.8065 33.57C28.5017 32.8352 29.1372 32.0407 29.8324 31.3257C32.9309 28.1083 36.5258 25.3674 40.4783 23.2622C40.7961 23.0834 41.1338 22.9643 41.4317 22.7458L41.4913 22.7259C42.1666 22.4082 42.8618 22.0705 43.5569 21.7726L43.8549 21.6137C44.6493 21.2959 45.4438 21.0377 46.2383 20.7001L46.2979 20.6803L46.5163 20.6405L46.5958 20.6008C47.9464 20.0844 49.3764 19.8064 50.7668 19.4092L50.8264 19.3893C50.9455 19.4489 51.0448 19.429 51.1243 19.3297L51.2037 19.3098C52.9714 19.0119 54.7391 18.6942 56.5068 18.5154L56.765 18.436C57.4205 18.436 58.0759 18.3962 58.7314 18.3962H58.9498C59.6649 18.436 60.3799 18.4161 61.1148 18.4558ZM47.7875 57.5025C47.2115 57.5025 46.6156 57.5025 46.0397 57.5422C45.4637 57.5224 44.9075 57.5224 44.3514 57.6614C43.8747 57.7607 43.4378 57.9792 43.0008 58.1976C42.8419 58.2969 42.6433 58.3962 42.544 58.5551L42.4447 58.6346C42.107 58.7935 41.9481 59.1311 41.7495 59.4091C41.2331 60.3228 41.2132 61.4151 41.4119 62.4082H41.4913L41.5112 62.4876C41.5707 63.1231 42.0673 63.5998 42.5043 63.997H42.5837L42.6433 64.0368C42.7029 64.2552 42.9015 64.3744 43.1001 64.4141L43.1796 64.434C43.12 64.573 43.3782 64.6922 43.4576 64.573L43.5172 64.6524C44.2124 64.8709 44.9473 64.9504 45.6623 64.9702C45.9602 64.9702 46.2581 65.0695 46.5362 64.9702L46.6752 64.9901C47.0327 65.1093 47.4498 65.0497 47.8272 65.1291C47.8272 66.6981 47.8669 68.2671 47.8074 69.8362C46.9136 69.856 46.0198 69.8362 45.1061 69.8362V69.9156H44.9671C44.8281 69.856 44.6891 69.8362 44.5699 69.8759C44.1925 69.9355 43.8151 70.0149 43.4775 70.2135L43.398 70.2731C42.0872 70.8093 41.2132 72.1996 41.2331 73.6097C41.2331 74.5829 41.6899 75.5363 42.4248 76.1917C42.6036 76.3307 42.7426 76.5293 42.9611 76.5889L43.0604 76.6485C43.1796 76.8471 43.4179 76.8868 43.5967 76.9662C44.7089 77.3436 45.9006 77.1847 47.0526 77.3237C47.291 77.3833 47.6087 77.2642 47.8272 77.4032C47.8272 78.6942 47.8471 79.9851 47.8272 81.2761H47.8868C47.8272 81.7527 47.8471 82.2493 47.8669 82.7259L47.9663 82.8252L47.8471 82.8054C47.7676 84.0169 48.284 85.2284 49.1977 86.0427H49.2374L49.436 86.1817C49.5155 86.3605 49.7141 86.4201 49.873 86.4995C50.3497 86.718 50.8661 86.8769 51.4023 86.857L51.5414 86.8173C52.7331 86.8173 53.8652 86.1222 54.5405 85.1688V85.1092C54.7789 84.9305 54.8186 84.6127 54.9179 84.3347V84.2552C55.0569 83.8183 55.0768 83.3615 55.0569 82.9047L55.0768 82.8451C55.0768 82.7061 55.0768 82.5472 55.0768 82.4082L55.1562 82.2691C55.1562 81.5343 55.2158 80.7994 55.196 80.0844C55.1562 79.1907 55.1562 78.2771 55.196 77.3833C57.3212 77.3237 59.4464 77.3833 61.5716 77.3635C61.8497 77.3436 62.1277 77.284 62.4058 77.2642C62.9222 77.2642 63.4386 77.2443 63.955 77.2642L63.9749 77.2046L64.1139 77.1847C64.2728 77.2642 64.4516 77.2642 64.6303 77.2642C65.8022 77.2443 66.974 77.2443 68.1459 77.2244C69.0397 77.2244 69.9732 77.284 70.8669 77.145C71.0854 77.0258 71.3238 76.9265 71.4628 76.7081L71.6018 76.6088L71.6614 76.6286C72.0587 76.3506 72.5353 76.0725 72.7538 75.6157L72.8134 75.5164C73.3099 74.9801 73.449 74.2254 73.5086 73.5104C73.5681 72.2195 72.7935 70.9881 71.6614 70.3724C71.2046 70.1738 70.7875 69.856 70.2711 69.7964C65.246 69.7766 60.221 69.7766 55.196 69.7766C55.1364 69.4588 55.1562 69.1212 55.1562 68.8034C55.196 67.572 55.1364 66.3208 55.1761 65.0894C56.0103 65.0695 56.8445 65.0497 57.6787 65.0695V64.9901C58.1951 65.0497 58.7314 65.0099 59.2676 65.0099C60.8367 65.0497 62.4058 64.9504 63.9749 64.9702V64.9106C64.4913 64.9702 65.0276 64.9305 65.544 64.9305C66.696 64.9702 67.8281 64.9106 68.9801 64.8511C70.5889 64.8709 72.158 64.4538 73.6476 63.858C74.6804 63.4409 75.7132 62.9444 76.6269 62.289L76.7063 62.2294C77.0042 62.1102 77.2426 61.8719 77.5008 61.6733C78.1165 61.2364 78.6726 60.7001 79.2089 60.1639C79.8246 59.5085 80.4602 58.8332 80.8972 58.0387L80.9766 57.9593C81.1355 57.8004 81.2944 57.5819 81.3143 57.3635L81.3341 57.3039C81.4732 57.2244 81.5526 57.0854 81.632 56.9464C82.3868 55.5958 83.0025 54.1261 83.3402 52.5968C83.797 50.8292 83.8367 49.002 83.6778 47.1947C83.5388 46.4797 83.4395 45.7647 83.2607 45.0695C82.8635 43.6594 82.3074 42.289 81.5526 41.0179C81.5129 40.9384 81.4334 40.859 81.3341 40.7994L81.3143 40.7398C81.3341 40.6008 81.215 40.5015 81.1752 40.3823H81.0958L81.0561 40.3426C81.0163 40.0844 80.8177 39.9057 80.6787 39.6872C79.6459 38.2771 78.3946 37.0258 77.0042 35.9732C76.9049 35.8938 76.8056 35.8342 76.6865 35.7945L76.6269 35.715C75.5543 34.9007 74.3229 34.3645 73.0716 33.9077C72.3566 33.6495 71.6217 33.4111 70.8669 33.3516C70.8272 33.1728 70.4697 33.1728 70.3505 33.3118L70.2711 33.292L70.2314 33.2324C69.4766 33.1331 68.702 33.1529 67.9473 33.1132C67.0137 33.1331 66.0802 33.0139 65.1467 33.1132C64.7495 33.0338 64.3721 33.0934 63.9749 33.0735C63.4585 33.0735 62.9222 33.0735 62.4058 33.0735C62.1476 33.0735 61.9093 33.0735 61.6511 33.0536C60.6182 33.0536 59.5656 33.0735 58.5327 33.0536C58.2547 33.0735 57.9766 33.0934 57.6787 33.0735C57.1623 33.0735 56.6459 33.0735 56.1096 33.0735C55.6726 33.0934 55.2158 33.0338 54.759 33.0934C53.9447 33.0338 53.1303 33.1132 52.316 33.1132C51.4818 33.1529 50.5682 33.1132 49.8134 33.5502L49.6545 33.6693C49.3566 33.7091 49.158 33.9672 48.9395 34.1659C48.6416 34.4836 48.3039 34.8411 48.2046 35.2781L48.1847 35.3377L48.0854 35.3575L48.0457 35.437L48.0854 35.5164C48.0258 35.6753 48.006 35.8739 47.9663 36.0526C47.8868 36.6683 47.9464 37.284 47.8669 37.8997C47.8471 38.7339 47.8471 39.568 47.8471 40.4022C47.8074 40.6405 47.8272 40.8987 47.8272 41.1371C47.8272 43.8183 47.7875 46.4995 47.8074 49.1807C47.7875 51.9613 47.8272 54.722 47.7875 57.5025ZM58.9498 21.4151H58.7314L57.9965 21.435C57.7581 21.435 57.4999 21.4548 57.2219 21.4548C57.1027 21.4946 56.9637 21.5144 56.8246 21.5343C55.9308 21.6137 55.1165 21.7329 54.3022 21.852C53.9645 21.9116 53.0707 22.0705 52.0975 22.2294L51.9585 22.289C51.8393 22.3287 51.7201 22.3486 51.601 22.3883C51.4421 22.4082 51.2832 22.428 51.1243 22.4479C50.7668 22.5472 50.4291 22.6266 50.0915 22.7259C49.297 22.9245 48.5025 23.1232 47.7676 23.4012L47.6882 23.4409C47.5094 23.5005 47.3505 23.5601 47.1519 23.5998H47.1321C46.715 23.7587 46.3972 23.8779 46.0794 23.997C45.841 24.0963 45.5828 24.1956 44.987 24.434C44.9075 24.4737 44.8082 24.5134 44.7288 24.5531C44.3911 24.6922 43.8747 24.9504 43.3583 25.1887L42.9412 25.3873C42.6631 25.5462 42.3652 25.6852 42.0872 25.8242L41.8488 25.9434C40.0414 26.9166 38.3134 28.0288 36.6847 29.2602C35.0362 30.5114 33.487 31.9017 32.0172 33.431L31.9775 33.4509C31.62 33.8282 31.2625 34.2254 30.9049 34.6425L30.3488 35.2781C30.2495 35.4568 30.1303 35.6356 29.9913 35.7945C29.8721 35.9533 29.7132 36.1122 29.5742 36.2314C29.455 36.3903 29.316 36.569 29.1968 36.7279C29.0578 36.9067 28.9188 37.0656 28.7797 37.284L28.6804 37.4231C28.2037 38.0586 27.7271 38.7736 27.2305 39.5482C26.7737 40.3029 26.3367 41.0576 25.8998 41.852C25.8402 41.9712 25.8005 42.0308 25.7806 42.0904C25.6416 42.3684 25.5025 42.6663 25.3039 42.9841C25.1252 43.4211 25.4032 42.7657 25.1053 43.4211C24.9265 43.8381 24.7279 44.2552 24.569 44.6326C24.5293 44.712 24.4896 44.8113 24.4499 44.8908L24.43 44.9305C24.2115 45.427 23.993 46.0229 23.7745 46.6187L23.4369 47.5521C23.2383 48.0884 23.0794 48.5651 22.9602 49.002C22.8212 49.4787 22.6821 50.0149 22.5431 50.5512C22.5233 50.71 22.5034 50.8888 22.4637 51.0477C22.4438 51.1271 22.4239 51.2066 22.4041 51.2661L22.3842 51.3059C22.3644 51.425 22.3445 51.5442 22.3048 51.6634C22.3048 51.7229 22.2849 51.8024 22.265 51.862C22.2452 52.001 22.1856 52.1599 22.1459 52.2791L22.0863 52.5968L21.9671 53.3118V53.3516C21.848 53.9672 21.7685 54.6425 21.6891 55.2979C21.6692 55.5561 21.6295 55.7945 21.5699 56.3108C21.5699 56.4697 21.5699 56.6485 21.55 56.8272C21.55 57.1053 21.5103 57.3635 21.4904 57.5819L21.4706 57.6018L21.411 59.3297V61.0775C21.4309 61.3555 21.4507 61.7726 21.4507 62.1698L21.4706 62.6068C21.4904 62.7061 21.5103 62.8054 21.5103 62.9047C21.5699 63.5601 21.6096 64.1559 21.6692 64.6723C21.7288 65.2681 21.8082 65.8044 21.8678 66.2612L21.8877 66.3605L21.9075 66.4598C21.9274 66.6385 22.0068 67.0358 22.0863 67.4131C22.126 67.6713 22.1856 67.9295 22.2452 68.3267C22.3048 68.5253 22.3644 68.7041 22.4041 68.8828C22.4438 69.002 22.4835 69.1807 22.5233 69.4191C22.6027 69.6773 22.6821 69.9553 22.7417 70.2334L22.9205 70.9285L23.0198 71.2463C23.139 71.6038 23.2581 71.9613 23.3972 72.3386C23.417 72.3784 23.4369 72.438 23.4568 72.4975C23.5958 72.8153 23.6951 73.1331 23.7944 73.431L23.9533 73.9077L24.0526 74.1063C24.1916 74.424 24.3307 74.7617 24.4896 75.1589L24.5293 75.2383C24.6683 75.576 24.9663 76.1917 25.2443 76.8074C25.4231 77.145 25.6018 77.4826 25.7806 77.8203C26.2771 78.7736 26.7737 79.7071 27.2901 80.4816L27.3894 80.6405C28.5414 82.5075 29.892 84.2751 31.4015 85.9235C32.9507 87.6316 34.6787 89.2006 36.506 90.6306V90.6505C37.7573 91.6038 39.0682 92.4975 40.4188 93.292C41.8091 94.1063 43.2391 94.8213 44.6891 95.4568L44.9075 95.5561C45.5233 95.8143 46.1191 96.0328 46.715 96.2513C46.9732 96.3307 47.2115 96.43 47.4697 96.5095L47.7081 96.5889C48.006 96.7081 48.3039 96.8074 48.6813 96.9067C48.86 96.9464 49.0984 96.9861 49.3367 97.0656C49.5552 97.1251 49.7737 97.1847 49.9922 97.2642L50.4291 97.3833C50.7668 97.4628 51.1044 97.5422 51.4619 97.6614C51.8393 97.721 52.1571 97.7806 52.4948 97.86L52.8523 97.9196V97.9394C53.6666 98.0785 54.7789 98.2175 55.911 98.3565L56.4671 98.436C56.6062 98.436 56.765 98.436 56.9041 98.436C57.1226 98.4558 57.3212 98.4757 57.5397 98.4955L57.7581 98.5353C58.5526 98.575 59.3074 98.5948 60.0224 98.5948C60.7374 98.5948 61.4922 98.575 62.2668 98.5353L62.3264 98.5154C62.5647 98.4955 62.7832 98.4558 63.0215 98.4558L63.4982 98.4161C64.2132 98.3565 64.9878 98.2572 65.8618 98.138C66.5371 98.0387 67.2124 97.9196 67.9075 97.7806C67.9671 97.7408 68.0466 97.721 68.126 97.7011C68.2452 97.6614 68.3842 97.6217 68.5034 97.6018C68.563 97.6018 68.6226 97.5819 68.6623 97.5621C68.7814 97.5224 68.9006 97.4826 69.0198 97.4429C69.2979 97.3635 69.5759 97.3039 69.8738 97.3039C70.2909 97.1847 70.6882 97.0656 71.0854 96.9464C71.5621 96.8074 72.0587 96.6485 72.5751 96.4697C72.8531 96.3704 73.1113 96.291 73.3695 96.1917C73.7668 96.0328 74.1441 95.8938 74.6407 95.715C75.0379 95.5164 75.4153 95.3575 75.8125 95.1787C76.17 95.0199 76.5474 94.861 76.8453 94.6822C76.9049 94.6425 76.9844 94.6028 77.0638 94.5631C77.4213 94.3843 77.8782 94.146 78.4144 93.8481C78.9507 93.57 79.3479 93.3516 79.6459 93.1728L79.6856 93.1529C80.1623 92.855 80.6787 92.5373 81.5129 91.9811H81.5327C82.1087 91.5839 82.6847 91.1867 83.1813 90.7895H83.2011L83.2409 90.7498C83.6182 90.4916 84.1148 90.0745 84.6113 89.6574C84.8894 89.4191 85.1873 89.1807 85.4852 88.9424L85.6243 88.8232C85.8626 88.5651 86.1208 88.3466 86.379 88.1083C86.4982 88.0089 86.5975 87.9096 86.7167 87.7905C86.7961 87.711 86.8557 87.6514 86.9153 87.5919C87.2331 87.2939 87.5509 86.9762 87.8488 86.6385C88.1666 86.3009 88.4844 85.9831 88.822 85.6455C88.9412 85.4866 89.2788 85.0695 89.6165 84.6723C90.0535 84.1559 90.4706 83.6395 90.9075 83.0437V83.0636L90.9274 83.0238C91.6027 82.1301 92.2383 81.1768 92.854 80.1639C93.4498 79.1907 94.006 78.1976 94.5224 77.1847L94.5422 77.145C94.6614 76.8669 94.6217 76.9662 94.721 76.7875C94.7409 76.7081 94.7806 76.6286 94.8203 76.569C94.9792 76.2513 95.1182 75.9335 95.158 75.8342L95.1778 75.8143C95.2175 75.715 95.1977 75.7349 95.2771 75.5363C95.3963 75.2582 95.5155 74.9603 95.7141 74.6227C95.7339 74.5631 95.7538 74.5035 95.7737 74.4439C95.8134 74.3446 95.9524 73.9672 96.0915 73.57C96.1908 73.3118 96.2702 73.0536 96.4887 72.5571C96.6476 72.0804 96.8065 71.5839 96.9654 71.0675C97.0647 70.6902 97.1839 70.293 97.303 69.8362C97.3229 69.5581 97.3626 69.2602 97.4619 68.9821C97.4818 68.9226 97.5017 68.8431 97.5215 68.7835L97.5612 68.6445H97.5811C97.601 68.5055 97.6605 68.3665 97.7003 68.2473L97.7201 68.148C97.8592 67.4528 97.9982 66.718 98.1174 65.9434C98.2365 65.1688 98.3358 64.3943 98.4153 63.6395L98.4352 63.5998C98.4352 63.4806 98.4352 63.3416 98.4352 63.2225C98.455 62.9245 98.4749 62.6862 98.5146 62.4677C98.5345 62.0308 98.5543 61.4946 98.5742 60.9583L98.5941 60.859V59.4091L98.5742 58.6942C98.5543 58.3962 98.5345 58.0983 98.5146 57.6217V57.5422C98.4749 57.3237 98.455 57.0854 98.4352 56.8868C98.4352 56.7478 98.4352 56.6088 98.4352 56.4896C98.3954 56.2115 98.3557 55.9335 98.316 55.6554L98.2564 55.0795L98.2365 54.9603C98.1769 54.3247 98.0578 53.6495 97.9386 52.9543C97.8592 52.5968 97.7996 52.2393 97.74 51.862L97.7201 51.8223C97.7003 51.7428 97.6804 51.6832 97.6605 51.6038C97.5414 51.2264 97.4619 50.8888 97.3825 50.5512C97.3428 50.3923 97.303 50.2135 97.2633 50.0745C97.2037 49.9355 97.164 49.7964 97.1243 49.6773C97.1044 49.6177 97.0845 49.5581 97.0647 49.4985C97.0051 49.2801 96.9455 49.0616 96.9058 48.8232C96.8065 48.4658 96.6277 48.009 96.4688 47.5323C96.3497 47.2145 96.2305 46.8967 96.0319 46.281C96.012 46.2215 95.8928 45.9434 95.7737 45.6852C95.6545 45.4072 95.5353 45.1291 95.3963 44.712C94.2642 42.1698 92.854 39.7071 91.1856 37.3635C89.5966 35.1589 87.8091 33.1331 85.7832 31.3257L85.7633 31.3059C84.5517 30.1937 83.2607 29.2006 81.93 28.287C80.5992 27.3734 79.2089 26.5194 77.759 25.7647C77.4809 25.6852 77.183 25.5661 76.9248 25.4072C76.7858 25.3277 76.6666 25.2483 76.5474 25.1688L76.2694 25.0298C75.8324 24.8511 75.3954 24.6723 74.9585 24.434C74.6606 24.3545 74.4222 24.2354 74.1839 24.1361L74.0051 24.0765L73.9058 24.0169L73.4291 23.858C73.1312 23.7587 72.8333 23.6594 72.5353 23.5204C72.158 23.4012 71.7806 23.282 71.4032 23.143C71.284 23.1033 71.4628 23.1629 70.7279 22.9245L70.1718 22.8054L69.5561 22.6266C69.3177 22.6068 69.0794 22.567 68.8609 22.4876C68.7616 22.4677 68.6424 22.4479 68.5431 22.428C68.4041 22.3883 68.265 22.3287 68.1459 22.2691L67.5897 22.1698C66.8549 22.0109 66.12 21.8719 65.4447 21.8123C65.246 21.8123 65.0474 21.7726 64.8687 21.7329C64.531 21.713 64.2529 21.6932 63.9749 21.6733L63.3989 21.6137C63.2599 21.6137 63.1208 21.5939 63.0017 21.574H62.9818C62.5448 21.574 62.1675 21.5541 61.7901 21.5343L61.1346 21.4946L60.9559 21.4747C60.5388 21.4548 60.2806 21.4548 60.0224 21.4548C59.645 21.435 59.2875 21.435 58.9896 21.4151H58.9498ZM58.4136 30.0348H58.5526C59.1087 30.0348 59.6649 30.0348 60.221 30.0348H61.5319C61.6113 30.0348 61.6908 30.0348 61.7702 30.0348H61.8298C62.0284 30.0546 62.2072 30.0546 62.3462 30.0546C62.6044 30.0546 62.8825 30.0546 63.1804 30.0546C63.4982 30.0546 63.7961 30.0546 64.0543 30.0546H64.253C64.5509 30.0546 64.8687 30.0348 65.2063 30.0745C65.822 30.0348 66.398 30.0546 66.9939 30.0745C67.2521 30.0745 67.5302 30.0944 67.7685 30.0944C67.8877 30.0745 68.0068 30.0745 68.126 30.0944C68.4835 30.1142 68.6424 30.1142 68.8013 30.1142C69.2979 30.1341 69.7745 30.1539 70.3108 30.1937C70.4498 30.1937 70.5889 30.1937 70.7279 30.1937C70.8471 30.1937 70.9861 30.1937 71.1053 30.2135C71.3833 30.2532 71.6416 30.3327 71.8998 30.432C72.1977 30.4916 72.4956 30.5512 72.7737 30.6306C73.1709 30.7498 73.5682 30.8689 73.9654 31.008L74.1044 31.0477C74.7996 31.3059 75.5146 31.6038 76.2495 31.9613C76.9844 32.3188 77.6994 32.7359 78.3747 33.2522C78.4542 33.3118 78.5336 33.3516 78.6131 33.3913C78.6925 33.4509 78.7521 33.4906 78.8315 33.5502C79.6459 34.1659 80.4006 34.8411 81.1355 35.576C81.7909 36.2314 82.4067 36.9464 82.9827 37.721C83.0422 37.8004 83.1018 37.8799 83.1614 37.9792C83.3004 38.138 83.4196 38.2969 83.5388 38.4757C83.7175 38.6942 83.8566 38.9325 83.9757 39.1907C84.0552 39.3098 84.1545 39.4687 84.2339 39.6078C84.6709 40.3625 85.0284 41.0973 85.3263 41.8123C85.6243 42.4876 85.8825 43.2622 86.1208 44.0765C86.1407 44.1559 86.1606 44.2155 86.1804 44.2949C86.3592 44.9901 86.4783 45.6058 86.5776 46.2215C86.5975 46.3804 86.5379 45.9434 86.6571 46.6783C86.6571 46.7577 86.677 46.857 86.677 46.9365C86.7763 47.9891 86.816 49.0219 86.7564 50.0546C86.7167 51.1073 86.5578 52.1798 86.2996 53.2522C86.0811 54.2056 85.803 55.0993 85.4654 55.9533C85.1079 56.8272 84.7106 57.6614 84.2737 58.436C84.1942 58.5948 84.0949 58.7537 83.9559 58.9126C83.936 58.9921 83.8963 59.0715 83.8566 59.1311C83.6977 59.4092 83.4991 59.6673 83.3203 59.8858C82.8039 60.7001 82.208 61.3555 81.632 61.9911C81.5923 62.0507 81.5327 62.1102 81.493 62.15L81.4334 62.2095L81.354 62.289C81.0958 62.567 80.7979 62.8451 80.4006 63.2026C80.0431 63.5204 79.6657 63.8381 79.3082 64.1162L79.2685 64.1361L79.189 64.1956C78.9308 64.4141 78.6528 64.6326 78.2754 64.8312C77.7391 65.2086 77.1631 65.5462 76.5673 65.864C75.9714 66.1619 75.3756 66.4201 74.7797 66.6783C74.0448 66.9563 73.3099 67.2145 72.5155 67.4131L72.5552 67.433C72.6148 67.4727 72.6744 67.4926 72.734 67.5323L72.8531 67.5919C72.9326 67.6316 73.012 67.6713 73.0915 67.711C74.1441 68.2671 75.0379 69.141 75.6536 70.1738C76.2098 71.147 76.5474 72.2592 76.5276 73.4111C76.5474 73.5104 76.5276 73.6296 76.5276 73.7488C76.4878 74.2652 76.4084 74.8411 76.2296 75.437C76.031 76.1122 75.7132 76.7875 75.2167 77.3833C74.7797 78.0983 74.2435 78.4955 73.727 78.8729C73.6873 78.9126 73.6277 78.9523 73.5681 78.9921L73.4093 79.1112H73.3894L73.3099 79.151C72.9723 79.4687 72.6148 79.6475 72.2771 79.8262C71.9991 79.9653 71.6614 80.0844 71.3238 80.144C70.4697 80.2632 69.6355 80.2632 68.8013 80.2632C68.6027 80.2632 68.3842 80.2632 68.1856 80.2632C67.55 80.2632 66.8946 80.2632 66.2193 80.2632L64.9283 80.283C64.8289 80.283 64.7296 80.283 64.6303 80.283H64.5707C64.4516 80.283 64.3523 80.283 64.253 80.283C64.1139 80.283 63.9749 80.283 63.8359 80.283C63.4585 80.2632 63.0811 80.283 62.7037 80.283H62.664C62.5647 80.3029 62.4654 80.3029 62.3859 80.3228C62.2271 80.3426 62.0682 80.3625 61.7702 80.3823V80.3625L61.6113 80.3823C60.6778 80.3823 59.7443 80.3823 58.8307 80.3823H58.215C58.215 80.7796 58.215 81.1569 58.1951 81.5343L58.1752 82.1698C58.1951 82.428 58.1554 82.7061 58.0958 82.9841V83.0834C58.0958 83.3218 58.0958 83.58 58.0759 83.8183C58.0362 84.1361 57.9965 84.4737 57.8972 84.8312C57.8773 85.0099 57.8177 85.1887 57.7581 85.3674V85.3873C57.7581 85.3674 57.778 85.3476 57.7581 85.3873C57.6191 85.8838 57.4602 86.4002 57.0034 86.9166C56.4075 87.7706 55.5932 88.5055 54.6597 89.0219C53.8255 89.4787 52.9118 89.7567 51.9386 89.8163C51.7996 89.856 51.6606 89.856 51.5215 89.8759C50.9654 89.8957 50.4291 89.8362 49.9127 89.6971C49.4559 89.5978 49.0388 89.4389 48.6416 89.2602L48.4827 89.2006C48.1053 89.0219 47.7279 88.8232 47.3505 88.4459C47.291 88.3863 47.2314 88.3466 47.1718 88.287C46.3773 87.5919 45.7616 86.6981 45.3445 85.7051C44.9473 84.7319 44.7486 83.6793 44.8281 82.6068C44.8281 82.428 44.8281 82.2294 44.8281 81.9911V81.6534C44.8082 81.5144 44.8082 81.3754 44.8082 81.2364V80.2433C44.1528 80.1837 43.4775 80.1043 42.7227 79.8461C42.6234 79.8262 42.544 79.7865 42.4447 79.7468H42.4248C42.3652 79.7269 42.3851 79.7269 42.4049 79.7468C42.0077 79.6078 41.6105 79.4489 41.1934 79.0914C40.9153 78.9126 40.6968 78.714 40.4982 78.5154L40.4188 78.4558C39.7435 77.8401 39.1873 77.0854 38.81 76.2711C38.4326 75.4767 38.234 74.6028 38.2141 73.6693V73.6495C38.1942 72.3386 38.5915 71.0477 39.2866 69.9553C39.9222 68.9821 40.816 68.1678 41.8885 67.6515L41.9481 67.6117C42.0474 67.5521 42.1467 67.4926 42.246 67.4528C42.0673 67.3933 41.9084 67.3138 41.7495 67.2145C41.5707 67.1351 41.4119 67.0159 41.2728 66.8967C41.1338 66.8173 41.0146 66.7378 40.9153 66.6385C40.8359 66.5591 40.7564 66.4995 40.677 66.4201C40.5975 66.3605 40.5181 66.3009 40.4585 66.2413C40.1208 65.9434 39.7633 65.6058 39.4257 65.1291V65.1092C39.1277 64.712 38.8894 64.2751 38.7106 63.7786C38.5915 63.5402 38.4922 63.2622 38.4326 62.9643C38.2737 62.15 38.2141 61.2761 38.3134 60.4221C38.4127 59.568 38.6709 58.714 39.1277 57.9196L39.2271 57.7408C39.5448 57.2244 39.8825 56.6683 40.5777 56.2115C40.8756 55.9335 41.1537 55.7746 41.4317 55.6157C41.4913 55.576 41.5509 55.5561 41.6303 55.5164C41.8687 55.3972 42.1269 55.2582 42.4844 55.0993C42.8618 54.9404 43.259 54.8014 43.6761 54.7021V54.722C44.0733 54.6227 44.4308 54.5631 44.7884 54.5432V52.9146C44.7884 51.6634 44.7884 50.4121 44.7884 49.1807C44.7884 47.6117 44.7884 46.0626 44.7884 44.5134C44.7884 43.4012 44.8082 42.289 44.8082 41.1966C44.7884 41.0179 44.7884 40.859 44.8082 40.7001C44.8082 40.5214 44.8082 40.3426 44.8281 40.1639V39.7468C44.8281 39.0715 44.8281 38.3962 44.8479 37.7806C44.8479 37.7011 44.8678 37.6018 44.8678 37.5025C44.8877 37.3635 44.8877 37.145 44.9075 36.9067C44.9075 36.4896 44.9075 36.0725 44.9473 35.6951H44.9671C44.9671 35.6157 44.987 35.5363 45.0068 35.4568V35.4171C44.987 35.4568 45.0068 35.437 45.0068 35.4171L45.0267 35.2979C45.0466 34.8808 45.1459 34.4439 45.3644 34.0268L45.3842 33.9871C45.4637 33.8481 45.5431 33.709 45.6226 33.5899C45.702 33.4509 45.7815 33.292 45.8808 33.1529C45.9205 33.0735 45.9801 32.9941 46.0397 32.9146C46.2581 32.5968 46.5163 32.3188 46.7547 32.0606C46.8143 32.001 46.8937 31.9414 46.9732 31.862C46.993 31.8421 46.9533 31.8818 46.993 31.8421C47.3704 31.4846 47.7478 31.1073 48.4032 30.8689C49.6346 30.1738 50.7469 30.1341 51.8195 30.1142L52.1968 30.0944H52.316C52.5146 30.0944 52.8125 30.0745 53.0906 30.0745C53.607 30.0546 54.1234 30.0348 54.6994 30.0745C55.0569 30.0348 55.3747 30.0546 55.6925 30.0546C55.8117 30.0546 55.9308 30.0546 56.0302 30.0546L56.9041 30.0348L57.7581 30.0546C57.917 30.0546 58.1752 30.0546 58.4136 30.0348ZM45.0068 35.4171C45.0068 35.3774 45.0267 35.3377 45.0068 35.4171V35.4171ZM40.5379 78.5353L40.4982 78.5154C40.4982 78.5154 40.5777 78.575 40.5379 78.5551V78.5353ZM42.4447 79.7468C42.4447 79.7666 42.4447 79.7666 42.4447 79.7468V79.7468ZM57.7581 85.3873C57.7383 85.4072 57.7383 85.4469 57.7581 85.3873V85.3873ZM83.1813 37.9792C83.2011 38.0189 83.1813 37.9792 83.1614 37.9792H83.1813Z" fill="white"/>
<path fill-rule="evenodd" clip-rule="evenodd" d="M56.1104 40.3824C58.8512 40.3824 61.6119 40.3426 64.3527 40.4221C66.021 40.442 67.7092 40.4618 69.3775 40.5611L69.5165 40.581C69.7946 40.6604 70.0726 40.7001 70.3507 40.7796C72.8135 41.6733 74.8393 43.6793 75.7132 46.142C76.0905 47.3536 76.0707 48.6445 76.0508 49.8958V49.9951C76.0111 50.2334 75.9714 50.4717 75.9912 50.7101L75.9714 50.7697C75.455 53.3317 73.6476 55.5562 71.3437 56.7478C70.6685 57.1053 69.9138 57.3238 69.1392 57.4032C68.1064 57.4628 67.0538 57.5224 66.0011 57.5025C64.8095 57.5621 63.598 57.4827 62.4063 57.5224C61.314 57.582 60.2415 57.4628 59.169 57.5224C58.3944 57.582 57.6198 57.4827 56.8651 57.5025C56.2891 57.5025 55.733 57.5621 55.1769 57.5224C55.1372 56.6485 55.1968 55.7945 55.1769 54.9206C55.1571 54.0864 55.1571 53.2523 55.1769 52.4181C55.1769 51.5045 55.1571 50.571 55.1769 49.6574C55.1968 48.6247 55.1372 47.6118 55.1769 46.5989C55.1769 46.1222 55.2166 45.6257 55.1769 45.149L55.0776 45.3079C55.0577 45.7647 55.0776 46.2215 55.0975 46.6982H55.0379C55.0975 46.1818 54.9982 45.6455 55.0776 45.1291C55.1769 44.7319 55.1372 44.3148 55.1571 43.9176C55.1372 43.441 55.1769 42.9842 55.1372 42.5274C55.1571 42.3287 55.1571 42.15 55.1571 41.9712C55.1769 41.435 55.2166 40.9186 55.2762 40.3824C55.5543 40.3824 55.8323 40.3824 56.1104 40.3824ZM58.2355 43.4012H58.1759C58.1759 43.6793 58.1759 43.9573 58.1759 44.2354C58.1759 44.3943 58.1759 44.573 58.1759 44.7518V44.8312C58.2355 45.3873 58.2156 45.8839 58.2156 46.3804L58.1958 46.718C58.1759 47.2344 58.1759 47.7111 58.1958 48.2076C58.1958 48.7041 58.2156 49.2205 58.1958 49.717C58.1759 50.2731 58.1759 50.8292 58.1958 51.3655C58.1958 51.7031 58.1958 52.0408 58.1958 52.3784V52.4777C58.1958 52.8948 58.1958 53.292 58.1759 53.6694C58.1759 53.9474 58.1958 54.2255 58.1958 54.5035C58.4341 54.5234 58.6923 54.5234 58.9306 54.5035H58.9902C59.6059 54.4638 60.2216 54.4837 60.8373 54.5035C61.2941 54.5035 61.731 54.5234 62.2077 54.4837V54.5035L62.3269 54.4837C62.9227 54.4837 63.5185 54.4837 64.1144 54.5035C64.6903 54.5035 65.2663 54.5234 65.8621 54.4837C65.9217 54.4837 66.0011 54.4837 66.0607 54.4837C66.6963 54.5035 67.451 54.4638 68.1859 54.4241L68.9207 54.3844C69.0597 54.3645 69.2385 54.3248 69.4172 54.285C69.596 54.2255 69.7549 54.1659 69.9336 54.0666L69.9733 54.0467C70.7479 53.6495 71.4431 53.0735 71.9793 52.3784C72.4361 51.7826 72.7737 51.1272 72.9525 50.432C72.9723 50.154 72.9922 49.9156 73.0319 49.6972C73.0319 49.2006 73.0518 48.724 73.0121 48.2076C72.9922 47.8104 72.9326 47.4132 72.8135 47.0557C72.5354 46.3009 72.0786 45.6058 71.5026 45.0298C70.9068 44.434 70.1918 43.9573 69.3974 43.6594L69.3179 43.6396C69.1988 43.6197 69.0796 43.5998 68.9406 43.5601C68.166 43.5204 67.451 43.5005 66.7956 43.4807C65.9813 43.4608 65.1868 43.441 64.3924 43.441H64.2732C62.2474 43.4012 60.2415 43.4012 58.2355 43.4012Z" fill="white"/>
</svg>
