<svg width="120" height="120" viewBox="0 0 120 120" fill="none" xmlns="http://www.w3.org/2000/svg">
<path fill-rule="evenodd" clip-rule="evenodd" d="M85.6832 2.94873C100.908 7.12307 110.89 13.3037 116.1 29.9039C121.325 46.4395 120.419 64.2209 118.445 81.2256C115.614 98.02 107.589 110.624 91.7665 115.219C72.999 121.594 46.9995 121.594 28.2321 115.219C12.4091 110.624 4.3844 98.02 1.5531 81.2256C-0.420727 64.2209 -1.32674 46.4395 3.91521 29.9039C9.10863 13.3037 19.091 7.12307 34.3315 2.94873C49.9926 -0.982911 70.0221 -0.982911 85.6832 2.94873Z" fill="#E1322D"/>
<path fill-rule="evenodd" clip-rule="evenodd" d="M17.1663 31.0366H71.4626L71.6568 31.0528C72.4819 31.1175 73.3232 31.2631 74.1483 31.5382C74.9087 31.7971 75.653 32.1692 76.3163 32.7031C77.109 33.3018 77.7562 34.046 78.2416 34.8874C78.7269 35.7125 79.0505 36.6348 79.2285 37.5408C79.4226 38.3822 79.4065 39.1588 79.4065 39.9354C79.3903 54.5294 79.4065 69.1396 79.4065 83.7336H65.2338L43.1334 83.7174L42.5672 81.4846C42.2598 80.255 41.6935 79.1062 40.9169 78.1031C40.1403 77.0999 39.1534 76.2424 38.0533 75.6438L38.0371 75.6276C37.212 75.1746 36.3221 74.851 35.3999 74.6568C34.4777 74.4788 33.5232 74.4303 32.5848 74.5274H32.5686C31.6302 74.6245 30.7242 74.8671 29.8506 75.2393C28.9769 75.6276 28.1518 76.1453 27.4399 76.7602V76.7763C26.728 77.3912 26.1133 78.1192 25.6117 78.912C25.1263 79.7048 24.738 80.5785 24.5115 81.4846L23.9453 83.7174L19.4152 83.7336C11.5361 83.7336 22.2303 83.7336 17.1825 83.7336H17.1502C15.8882 83.7012 14.6586 83.3129 13.6393 82.6334C12.6201 81.9376 11.7788 80.9669 11.2772 79.8181C11.0022 79.2033 10.8566 78.5885 10.7919 77.9574C10.7433 77.375 10.7595 76.8572 10.7919 76.4042L10.808 76.3071C10.8728 75.6761 11.0507 75.0775 11.3096 74.5274C11.5523 73.9611 11.892 73.4433 12.2803 72.9903C12.8304 72.3431 13.4776 71.8254 14.1894 71.4371V55.759C14.1894 48.5106 14.1894 41.2783 14.1894 34.0298V31.0366H17.1663ZM76.4457 80.7565C66.1074 80.7565 55.7853 80.7565 45.4632 80.7565C44.6381 77.5044 42.4216 74.6406 39.477 73.0388C37.309 71.8254 34.7528 71.3076 32.2774 71.5665C29.7859 71.8254 27.3752 72.8771 25.4823 74.5274C23.6217 76.1453 22.2465 78.3458 21.6317 80.7565C20.1432 80.7565 18.671 80.7565 17.1825 80.7565C15.8397 80.7403 14.5454 79.8828 14.0115 78.637C13.7202 78.0222 13.7041 77.3264 13.7688 76.6469C13.8497 75.9997 14.1409 75.4011 14.5615 74.8995C15.1925 74.1391 16.1632 73.686 17.1663 73.6375C17.1663 60.4349 17.1502 47.2324 17.1663 34.0298H71.4626C72.5466 34.1107 73.663 34.3858 74.5204 35.0653C75.5073 35.8096 76.0898 36.9745 76.3163 38.1556C76.4781 38.8999 76.4295 39.6442 76.4457 40.4046C76.4457 53.8498 76.4295 67.3113 76.4457 80.7565Z" fill="white"/>
<path fill-rule="evenodd" clip-rule="evenodd" d="M77.0923 75.3686C77.0923 71.1134 77.0923 66.842 77.0923 62.5868C77.0923 57.6843 77.0923 52.7819 77.0923 47.8795L77.1085 44.9025H80.0692C83.2241 44.9186 86.3952 44.9186 89.5662 44.9025H95.8922C96.9923 44.9348 98.0116 45.2422 98.9338 45.7114C99.9045 46.213 100.73 46.9087 101.393 47.653L101.458 47.7339L101.555 47.8633C101.814 48.2355 102.202 48.7856 102.671 49.4651C103.092 50.0799 103.432 50.6139 103.723 51.0669L103.739 51.0831C104.499 52.2804 105.227 53.4938 105.907 54.7235C106.603 56.0017 107.234 57.296 107.8 58.6389V58.6713C108.14 59.4965 108.447 60.354 108.69 61.26C108.965 62.2146 109.159 63.1854 109.24 64.1724V64.4151V79.8342L109.207 80.0931C109.126 80.4976 109.013 80.9344 108.803 81.3874C108.544 81.9537 108.172 82.4715 107.654 82.9083C107.007 83.4423 106.295 83.7335 105.583 83.8791H105.567C105.066 83.9762 104.564 83.9924 104.095 83.9762H98.594L98.0601 81.6787C97.7851 80.449 97.235 79.3003 96.4908 78.281C95.7466 77.2617 94.792 76.4041 93.7242 75.7731L93.6918 75.757C92.7696 75.2068 91.718 74.8185 90.6179 74.6244C89.5177 74.4302 88.3852 74.4302 87.3174 74.6244H87.285C86.3466 74.8024 85.4083 75.1421 84.5508 75.6113C83.6933 76.0805 82.9005 76.6792 82.221 77.4073L77.0761 82.876L77.0923 75.3686ZM80.0531 75.3686C80.0692 66.211 80.0531 57.0372 80.0692 47.8795C85.3274 47.8795 90.5693 47.8795 95.8275 47.8795C97.1218 47.9119 98.3028 48.6561 99.1441 49.6107C99.8722 50.6139 100.568 51.6494 101.231 52.6849C102.687 54.95 104.014 57.296 105.049 59.7715C105.648 61.26 106.133 62.8133 106.263 64.4151V79.5915C106.198 79.9798 106.069 80.3681 105.761 80.6108C105.324 80.983 104.71 81.0315 104.16 81.0153C103.092 81.0153 102.024 81.0153 100.972 81.0153C100.228 77.7632 98.0925 74.8671 95.2127 73.2006C92.7049 71.6959 89.6309 71.1619 86.7673 71.7121C84.211 72.1651 81.8327 73.4756 80.0531 75.3686ZM101.636 59.6259C100.325 56.8592 98.6911 54.2705 96.9276 51.7626C96.6849 51.3743 96.2805 51.0507 95.8275 50.9375C92.1872 50.9375 88.547 50.9213 84.9229 50.9375C84.9229 53.8336 84.9229 56.7297 84.9229 59.6421C90.4884 59.6259 96.0701 59.6583 101.636 59.6259ZM87.8998 53.8983V56.665H96.6202C96.0701 55.7752 95.4553 54.8529 94.792 53.8983H94.0801C92.0254 53.8983 89.9545 53.8983 87.8998 53.8983Z" fill="white"/>
<path d="M89.0004 76.6954C91.5568 76.6954 93.8866 77.7471 95.5693 79.4298C97.252 81.1125 98.3037 83.4423 98.3037 85.9987C98.3037 88.5713 97.252 90.9011 95.5693 92.5838C93.8866 94.2665 91.5568 95.302 89.0004 95.302C86.4279 95.302 84.098 94.2665 82.4153 92.5838C80.7326 90.9011 79.6971 88.5713 79.6971 85.9987C79.6971 83.4423 80.7326 81.1125 82.4153 79.4298C84.098 77.7471 86.4279 76.6954 89.0004 76.6954ZM93.4336 81.5817C92.3011 80.4329 90.7316 79.7372 89.0004 79.7372C87.2692 79.7372 85.6998 80.4329 84.5672 81.5817C83.4346 82.7142 82.7227 84.2675 82.7227 85.9987C82.7227 87.7299 83.4346 89.2993 84.5672 90.4319C85.6998 91.5807 87.2692 92.2764 89.0004 92.2764C90.7316 92.2764 92.3011 91.5807 93.4336 90.4319C94.5662 89.2993 95.2619 87.7299 95.2619 85.9987C95.2619 84.2675 94.5662 82.7142 93.4336 81.5817Z" fill="white"/>
<path d="M33.539 76.6954C36.1116 76.6954 38.4414 77.7471 40.1241 79.4298C41.8068 81.1125 42.8423 83.4423 42.8423 85.9987C42.8423 88.5713 41.8068 90.9011 40.1241 92.5838C38.4414 94.2665 36.1116 95.302 33.539 95.302C30.9826 95.302 28.6528 94.2665 26.9701 92.5838C25.2874 90.9011 24.2357 88.5713 24.2357 85.9987C24.2357 83.4423 25.2874 81.1125 26.9701 79.4298C28.6528 77.7471 30.9826 76.6954 33.539 76.6954ZM37.9722 81.5817C36.8397 80.4329 35.2702 79.7372 33.539 79.7372C31.8078 79.7372 30.2546 80.4329 29.1058 81.5817C27.9732 82.7142 27.2775 84.2675 27.2775 85.9987C27.2775 87.7299 27.9732 89.2993 29.1058 90.4319C30.2546 91.5807 31.8078 92.2764 33.539 92.2764C35.2702 92.2764 36.8397 91.5807 37.9722 90.4319C39.121 89.2993 39.8167 87.7299 39.8167 85.9987C39.8167 84.2675 39.121 82.7142 37.9722 81.5817Z" fill="white"/>
</svg>
