<svg width="98" height="98" viewBox="0 0 98 98" fill="none" xmlns="http://www.w3.org/2000/svg">
<path fill-rule="evenodd" clip-rule="evenodd" d="M69.9643 2.40144C82.3966 5.81466 90.5711 10.8532 94.8127 24.4248C99.0868 37.9152 98.3392 52.4457 96.7303 66.3262C94.4227 80.044 87.8733 90.3325 74.9535 94.087C59.6284 99.3043 38.3878 99.3043 23.0465 94.087C10.1429 90.3325 3.57735 80.044 1.26965 66.3262C-0.339235 52.4457 -1.0868 37.9152 3.18732 24.4248C7.42893 10.8532 15.6034 5.81466 28.0357 2.40144C40.8256 -0.800481 57.1744 -0.800481 69.9643 2.40144Z" fill="#E1322D"/>
<path d="M36.2752 29.6909C34.325 30.2273 33.4312 29.5447 33.5449 29.9347C33.5449 29.951 33.8699 30.2598 34.3412 30.7149C36.3402 32.6328 40.2242 36.3386 41.4268 45.1642L42.5969 53.6647C42.792 55.1113 42.5157 55.6964 42.6457 55.6802C42.857 55.6477 43.5558 54.9488 44.4984 53.9898C48.1874 50.2353 54.948 43.4088 67.8354 48.1061C69.1517 48.5937 70.4031 49 71.4919 49.3576C75.8798 50.8041 77.7162 51.4218 79.0326 54.965C80.0889 57.8094 81.454 61.5964 81.9091 65.0746C82.3966 68.9104 81.7953 72.3562 78.6263 73.9978L76.7411 74.9892C71.4757 77.7198 68.8429 79.0851 65.9502 79.8165C63.0737 80.5642 60.0834 80.6129 54.1192 80.7267L52.039 80.7592C47.8949 80.8405 37.4127 78.5975 29.222 75.3956C23.1115 73.0063 18.1711 69.9832 17.6348 66.7487L16.1722 57.7931C15.4896 53.7298 16.4484 47.0984 18.2524 40.8733C20.0075 34.7945 22.6077 29.0083 25.3217 26.2452C32.2773 19.1912 33.6749 19.0124 40.3055 18.151C41.8656 17.956 43.7345 17.7122 46.1722 17.3058C47.5699 17.062 50.1538 17.4846 52.2828 18.3298C54.1192 19.0775 55.6793 20.1989 56.1181 21.613C56.8982 24.246 57.402 26.0177 57.337 27.7568C57.2557 29.5772 56.5569 31.17 54.9318 33.2829C53.9729 34.5182 52.3153 34.9571 50.5276 34.9245C48.4962 34.8758 46.2048 34.1931 44.8721 33.4292L37.754 29.3009L36.2752 29.6909ZM31.156 30.5849C30.7172 28.9758 31.871 28.3257 35.6251 27.3017L37.5915 26.7653L37.6078 26.7816C37.9003 26.6841 38.2416 26.7328 38.5503 26.8954L46.1072 31.2838C47.1473 31.8852 48.9512 32.4215 50.5764 32.454C51.649 32.4703 52.5753 32.2915 52.9653 31.7876C54.2492 30.0973 54.8017 28.9108 54.8667 27.6593C54.9155 26.3265 54.4605 24.7174 53.7454 22.3281C53.5666 21.7268 52.559 21.1091 51.3564 20.6215C49.6175 19.9226 47.5861 19.5651 46.5785 19.7438C44.2221 20.1339 42.2557 20.394 40.6305 20.6053C34.6988 21.3692 33.4474 21.5317 27.0769 27.9843C24.6554 30.4386 22.2827 35.8185 20.6251 41.5559C18.9024 47.4722 17.9923 53.681 18.6099 57.403L20.0888 66.3424C20.4463 68.5529 24.7529 70.9909 30.1159 73.0876C38.0466 76.192 48.0899 78.3699 52.0065 78.2887L54.0867 78.2562C59.8397 78.1424 62.6999 78.0936 65.3489 77.4272C67.9654 76.7609 70.5006 75.4281 75.5873 72.795L77.5049 71.8036C79.4876 70.7796 79.8289 68.2603 79.4551 65.3835C79.0488 62.1815 77.7325 58.557 76.7249 55.8264C75.8148 53.4047 74.3197 52.9008 70.7281 51.7143C69.688 51.373 68.5017 50.9829 66.9903 50.4303C55.5981 46.2694 49.5525 52.3807 46.2535 55.7127C44.9696 57.0129 44.0271 57.9719 42.987 58.1182C41.4593 58.3295 40.5818 57.2405 40.143 54.0061L38.9891 45.4893C37.9003 37.5251 34.4225 34.2094 32.6348 32.4865C31.871 31.7551 31.3347 31.2513 31.156 30.5849Z" fill="white"/>
</svg>
