<svg width="120" height="120" viewBox="0 0 120 120" fill="none" xmlns="http://www.w3.org/2000/svg">
<path fill-rule="evenodd" clip-rule="evenodd" d="M85.6706 2.9539C100.907 7.1184 110.897 13.3006 116.094 29.9102C121.324 46.4391 120.42 64.2271 118.451 81.2241C115.61 98.0274 107.589 110.618 91.7714 115.218C73.0007 121.594 46.9994 121.594 28.2287 115.218C12.4116 110.618 4.37388 98.0274 1.5494 81.2241C-0.419668 64.2271 -1.3235 46.4391 3.90582 29.9102C9.10287 13.3006 19.0935 7.1184 34.3295 2.9539C49.9852 -0.984632 70.0149 -0.984632 85.6706 2.9539Z" fill="#E1322D"/>
<path d="M56.3121 22.5659C57.8938 18.4014 63.3975 21.9525 64.269 24.9387C66.8837 32.3315 59.992 38.5944 59.6369 45.7451C59.5562 48.7474 62.5905 49.958 65.1245 49.4576C72.0162 49.2639 79.1177 46.6329 85.9449 48.5214C89.7378 50.1033 87.801 54.6068 87.3491 57.5607C88.7533 58.8197 91.1743 59.4169 91.5939 61.4669C92.5461 64.3724 89.8508 66.3416 88.3659 68.4077C89.7378 70.5223 92.5784 72.4431 91.3679 75.3002C90.109 76.8659 88.4789 78.0765 86.9779 79.4001C88.8017 84.8559 86.7681 86.5347 83.4755 88.3264C75.68 92.5393 65.3827 90.9413 56.764 90.6992C46.725 90.8122 38.0578 84.8721 28.2125 84.0327C28.2286 75.7844 28.1641 67.5361 28.2609 59.3201C34.9106 57.9965 36.5568 50.6682 40.9792 46.4876C47.6611 39.6436 53.3262 31.7342 56.3121 22.5659Z" fill="#E1322D"/>
<path d="M54.5852 21.9202C55.0209 20.7741 55.6827 19.9832 56.4897 19.4667C57.5226 18.821 58.7008 18.6919 59.8952 18.9178C60.8797 19.1277 61.8965 19.5958 62.8004 20.2414C64.2852 21.2745 65.528 22.8241 66.0122 24.3253C67.8037 29.3775 65.8831 33.6873 63.9463 38.0294C62.7842 40.6443 61.606 43.2592 61.4769 45.8419L61.5253 46.2616C61.606 46.6974 61.8643 47.0202 62.2032 47.2462C62.6551 47.5529 63.2523 47.6982 63.8656 47.7143C64.1561 47.7304 64.4628 47.6982 64.7694 47.6336L65.0761 47.6174C67.3357 47.5529 69.7405 47.1816 72.1615 46.8265C76.8744 46.1163 81.6195 45.4061 86.4453 46.7458L86.6551 46.8265C91.1743 48.7151 90.2705 52.7666 89.4958 56.2209L89.3828 56.7535L89.8831 57.0602C91.368 57.9641 92.869 58.8681 93.3532 60.9342C94.3861 64.1464 92.6108 66.2286 90.8999 68.214L90.7063 68.44L91.0129 68.7951C92.6753 70.7805 94.4184 72.8305 93.0627 76.0104L92.9658 76.2686L92.8044 76.4462C91.7553 77.7536 90.5449 78.7706 89.3505 79.8036L89.0761 80.0135C89.7701 82.6445 89.5765 84.5492 88.7695 86.0827C87.8495 87.8421 86.2839 88.8913 84.3471 89.9405C77.52 93.653 69.1595 93.1849 61.4446 92.7652C59.7822 92.6684 58.1682 92.5715 56.7318 92.5393C50.9698 92.5877 45.7889 90.8283 40.6241 89.0688C36.4923 87.6484 32.3444 86.2279 28.0673 85.8728L26.3726 85.7275V75.8812C26.3565 70.3447 26.3565 64.8082 26.421 59.2878L26.4372 57.7866L27.9059 57.496C31.4567 56.802 33.458 53.7351 35.4594 50.6682C36.7183 48.7151 37.9933 46.7619 39.7203 45.1478C42.9644 41.8065 45.9664 38.2392 48.5004 34.3814C51.0344 30.5559 53.1164 26.4236 54.5529 22.0009L54.5852 21.9202ZM58.4587 22.5981C58.3135 22.6788 58.1682 22.8725 58.0552 23.1792C56.5058 27.9087 54.2785 32.3153 51.567 36.4152C48.8716 40.499 45.7082 44.2762 42.3027 47.7789L42.2543 47.8434C40.8662 49.1509 39.7042 50.9265 38.5582 52.6859C36.3632 56.0272 34.1843 59.3685 30.0848 60.7405C30.0364 65.7928 30.0525 70.8451 30.0525 75.8812V82.3701C34.1359 82.9512 37.9772 84.2587 41.8024 85.5661C46.7089 87.2448 51.6154 88.9074 56.7479 88.8429H56.8125C58.4587 88.8913 60.0404 88.9881 61.6383 89.0688C68.8528 89.4724 76.6645 89.9082 82.5879 86.696C83.9598 85.9535 85.0573 85.2756 85.5092 84.3878C85.9773 83.5 85.9611 82.1764 85.2348 79.9812L84.8475 78.8351L86.9618 76.9788C87.9463 76.1395 88.947 75.3001 89.7379 74.3639C89.9961 73.3309 89.0761 72.2332 88.1884 71.184C87.7204 70.6191 87.2523 70.0541 86.8327 69.4246L86.1387 68.3593L86.865 67.3424C87.22 66.842 87.6558 66.3416 88.1077 65.8251C89.1407 64.5983 90.2543 63.307 89.8347 62.048L89.7863 61.8381C89.6572 61.2409 88.8179 60.7405 87.9786 60.224C87.3491 59.8527 86.7197 59.4815 86.1225 58.9326L85.3639 58.2708L85.5253 57.2862C85.606 56.7535 85.7513 56.0917 85.8966 55.4138C86.3485 53.38 86.8811 51.0072 85.3317 50.2647C81.3128 49.1993 76.9873 49.845 72.6941 50.4906C70.2731 50.8457 67.8683 51.217 65.3666 51.2816C64.8663 51.3784 64.3175 51.4107 63.7688 51.4107C62.4937 51.3623 61.2187 51.0072 60.1857 50.3292C59.0398 49.5867 58.1844 48.4568 57.8938 46.9879C57.8131 46.6005 57.7809 46.1647 57.797 45.6966V45.6643C57.9584 42.3876 59.2657 39.4498 60.5731 36.5282C62.2032 32.8641 63.8333 29.2323 62.526 25.552L62.4937 25.4552C62.2839 24.7126 61.5576 23.8733 60.6699 23.2599C60.1857 22.9048 59.6531 22.6465 59.1689 22.5497C58.8622 22.4851 58.604 22.4851 58.4587 22.5981Z" fill="white"/>
</svg>
