<svg width="100%" viewBox="0 0 262 65" preserveAspectRatio="xMidYMid meet" fill="none" xmlns="http://www.w3.org/2000/svg">
<!-- width="262" height="65" -->
<g clip-path="url(#clip0_48_790)">
<path fill-rule="evenodd" clip-rule="evenodd" d="M42.5461 10.733L21.2838 0V21.6697L42.5461 10.733Z" fill="#319F01"/>
<path fill-rule="evenodd" clip-rule="evenodd" d="M0.0215454 10.733L21.2838 0V21.6697L0.0215454 10.733Z" fill="#206C00"/>
<path fill-rule="evenodd" clip-rule="evenodd" d="M42.5271 54.0626L21.2649 43.3301V64.9998L42.5271 54.0626Z" fill="#206C00"/>
<path fill-rule="evenodd" clip-rule="evenodd" d="M0.00268555 54.0626L21.2649 43.3301V64.9998L0.00268555 54.0626Z" fill="#319F01"/>
<path fill-rule="evenodd" clip-rule="evenodd" d="M21.2219 43.3078L42.5271 32.3931V54.0628L21.2219 43.3078Z" fill="#E1322D"/>
<path fill-rule="evenodd" clip-rule="evenodd" d="M42.5271 32.3932L21.2649 21.6606V43.3304L42.5271 32.3932Z" fill="#900838"/>
<path fill-rule="evenodd" clip-rule="evenodd" d="M0.0215454 32.4024L21.2838 21.6694V43.3392L0.0215454 32.4024Z" fill="#BE004A"/>
<path fill-rule="evenodd" clip-rule="evenodd" d="M21.2838 21.6696L0.0215454 10.7329V32.6064L21.2838 21.6696Z" fill="#E1322D"/>
<path d="M63.3293 28.5972C63.3293 30.2898 63.9308 31.752 65.1339 32.9762C66.337 34.2003 67.8062 34.8089 69.541 34.8089C71.332 34.8089 72.85 34.2284 74.0948 33.067C75.34 31.9127 75.9626 30.451 75.9626 28.6881C75.9626 27.8766 75.7668 27.0792 75.3751 26.2819C74.9835 25.4845 74.4658 24.8197 73.8221 24.2884C73.1784 23.7567 72.4232 23.3233 71.556 22.9874C71.0523 22.7916 70.157 22.5325 68.8696 22.1971C67.5827 21.8612 66.687 21.5955 66.1833 21.3997C65.148 21.008 64.2808 20.5044 63.5813 19.8888C61.8465 18.406 60.9793 16.4819 60.9793 14.1038C60.9793 11.6485 61.8258 9.64099 63.5185 8.09497C65.2112 6.54193 67.303 5.76562 69.793 5.76562C72.1435 5.76562 74.151 6.57003 75.816 8.17927C77.481 9.78808 78.313 11.7815 78.313 14.1601H75.0814C75.0814 12.593 74.5426 11.299 73.4656 10.2777C72.3885 9.25635 71.0383 8.74569 69.4154 8.74569C67.9326 8.74569 66.6733 9.27743 65.638 10.3405C64.6026 11.3969 64.0849 12.6698 64.0849 14.153C64.0849 15.804 64.7286 17.0699 66.0156 17.9652C66.7989 18.4969 68.1632 19.0357 70.1079 19.581C72.0526 20.1268 73.1367 20.4412 73.3606 20.5255C74.4236 20.9101 75.3611 21.484 76.1725 22.2392C78.1032 23.9178 79.0687 26.0794 79.0687 28.7377C79.0687 31.2769 78.1383 33.4245 76.2774 35.1733C74.4166 36.9152 72.1992 37.7894 69.6249 37.7894C66.9109 37.7894 64.6303 36.9292 62.7835 35.201C60.9367 33.4732 60.0133 31.2699 60.0133 28.5976H63.3288L63.3293 28.5972Z" fill="black"/>
<path d="M65.3222 32.7915L64.9459 33.1612L64.8309 33.0414L64.7194 32.9202L64.6113 32.7972L64.5068 32.673L64.4058 32.5469L64.3088 32.4196L64.2153 32.291L64.1253 32.1606L64.0388 32.0288L63.9558 31.8953L63.8768 31.7601L63.8012 31.6236L63.7297 31.4857L63.6616 31.3465L63.5971 31.2055L63.536 31.0628L63.4789 30.9193L63.4254 30.7739L63.3758 30.6273L63.3297 30.4793L63.2871 30.33L63.2484 30.179L63.2137 30.0266L63.1826 29.8734L63.1549 29.7184L63.1312 29.562L63.111 29.4049L63.0947 29.2459L63.082 29.0861L63.0728 28.9245L63.0675 28.762L63.0658 28.5983H63.5931L63.5949 28.7502L63.6001 28.9008L63.6085 29.0501L63.6203 29.198L63.6357 29.3443L63.6541 29.4892L63.6761 29.6327L63.7016 29.7746L63.7301 29.9155L63.7622 30.0547L63.7977 30.1926L63.8364 30.3291L63.8785 30.4644L63.9237 30.5983L63.9725 30.7309L64.0247 30.8622L64.08 30.9921L64.1389 31.1208L64.2012 31.2486L64.2671 31.3746L64.336 31.4997L64.4085 31.6231L64.4844 31.7456L64.5639 31.8668L64.6465 31.9867L64.7325 32.1052L64.8221 32.2229L64.9152 32.3393L65.0118 32.4543L65.1119 32.568L65.2155 32.6809L65.3227 32.792L65.3222 32.7915ZM69.5409 34.5452V35.073L69.3732 35.0712L69.2072 35.0655L69.0426 35.0563L68.8792 35.0431L68.7177 35.0265L68.5574 35.0058L68.3984 34.9817L68.2408 34.9536L68.0849 34.922L67.9304 34.8864L67.778 34.8473L67.6265 34.8043L67.4768 34.7577L67.3288 34.7072L67.1822 34.6532L67.0373 34.5953L66.8937 34.5338L66.7523 34.4679L66.6122 34.3986L66.4739 34.3257L66.3374 34.2488L66.2021 34.1685L66.0687 34.0842L65.9369 33.9964L65.807 33.9046L65.6788 33.8093L65.5523 33.7101L65.4276 33.6073L65.3047 33.5011L65.1835 33.3913L65.064 33.278L64.9459 33.1608L65.3222 32.7911L65.4316 32.8995L65.5422 33.0045L65.6542 33.1059L65.7674 33.2038L65.8825 33.2982L65.9984 33.3891L66.1161 33.4765L66.2351 33.5608L66.3554 33.6411L66.477 33.718L66.6004 33.7918L66.7251 33.8616L66.8511 33.9283L66.9789 33.9915L67.108 34.0513L67.2384 34.1075L67.3705 34.1601L67.504 34.2098L67.6393 34.2559L67.7758 34.2985L67.9141 34.3375L68.0542 34.3735L68.1956 34.406L68.3387 34.435L68.4832 34.4609L68.6294 34.4833L68.7774 34.5022L68.9267 34.5176L69.0777 34.5294L69.2305 34.5378L69.3846 34.543L69.5405 34.5448L69.5409 34.5452ZM73.9156 32.8741L74.2743 33.2609L74.2747 33.2605L74.1531 33.3715L74.0293 33.4791L73.9037 33.5836L73.7764 33.6842L73.6477 33.7817L73.5169 33.8756L73.3843 33.9661L73.2503 34.053L73.1147 34.136L72.9772 34.2159L72.838 34.2923L72.6971 34.3652L72.5544 34.4341L72.4104 34.5L72.2646 34.5619L72.1171 34.6203L71.9678 34.6752L71.8172 34.7266L71.6648 34.7744L71.5107 34.8188L71.3552 34.8596L71.1981 34.8965L71.0395 34.9303L70.8793 34.9606L70.7173 34.9869L70.5539 35.0102L70.3893 35.0295L70.2224 35.0453L70.0547 35.0576L69.8852 35.0664L69.7144 35.0717L69.5418 35.0734V34.5457L69.7034 34.5439L69.8632 34.5391L70.0217 34.5307L70.1785 34.5193L70.3335 34.5044L70.4867 34.4864L70.6382 34.4653L70.7879 34.4407L70.9364 34.4126L71.083 34.3819L71.2279 34.3476L71.3715 34.3099L71.5133 34.269L71.6534 34.2251L71.7921 34.1777L71.9291 34.1272L72.0648 34.0732L72.1987 34.0166L72.3313 33.956L72.4622 33.8923L72.5913 33.8256L72.719 33.7557L72.8451 33.6824L72.9702 33.6056L73.0936 33.5257L73.2152 33.4427L73.3355 33.3562L73.4545 33.2662L73.5722 33.1731L73.6881 33.0765L73.8027 32.9764L73.916 32.8732L73.9164 32.8727L73.9156 32.8741ZM75.6987 28.6887H76.226L76.2243 28.8591L76.2185 29.0277L76.2089 29.1945L76.1957 29.3596L76.1786 29.5234L76.158 29.6854L76.1329 29.8457L76.1044 30.0042L76.0719 30.161L76.0359 30.316L75.9959 30.4692L75.952 30.6207L75.9042 30.7704L75.8528 30.9184L75.7975 31.0646L75.7382 31.2086L75.675 31.3513L75.6082 31.4918L75.5375 31.6306L75.4629 31.7676L75.3843 31.9028L75.3022 32.0359L75.2161 32.1671L75.1261 32.2962L75.0326 32.4236L74.9351 32.5487L74.8341 32.6721L74.7292 32.7937L74.6207 32.9127L74.5088 33.0304L74.3928 33.1459L74.2734 33.2591L73.9147 32.8723L74.0249 32.7674L74.1316 32.6611L74.2348 32.5531L74.3344 32.4433L74.4302 32.3322L74.5224 32.2194L74.6115 32.1048L74.6967 31.9889L74.7784 31.8708L74.8565 31.7518L74.9312 31.6306L75.0023 31.5081L75.0699 31.3838L75.134 31.2578L75.1946 31.13L75.2521 31.0005L75.3057 30.8692L75.3562 30.7362L75.4032 30.6018L75.4466 30.4657L75.4866 30.3274L75.523 30.1873L75.556 30.0455L75.5858 29.9019L75.6122 29.7561L75.635 29.609L75.6543 29.4597L75.6701 29.3087L75.6824 29.1559L75.6912 29.0013L75.6965 28.8446L75.6982 28.6861L75.6987 28.6887ZM75.138 26.3984L75.6113 26.1657L75.6491 26.2434L75.6851 26.3207L75.7206 26.3989L75.7544 26.4766L75.7874 26.5543L75.819 26.6325L75.8493 26.7106L75.8787 26.7888L75.9068 26.8669L75.934 26.9455L75.9599 27.0241L75.9845 27.1027L76.0078 27.1809L76.0302 27.2595L76.0513 27.3381L76.0715 27.4171L76.0899 27.4962L76.1075 27.5748L76.1237 27.6538L76.1391 27.7328L76.1527 27.8123L76.1654 27.8913L76.1773 27.9708L76.1874 28.0503L76.1966 28.1298L76.2045 28.2092L76.2115 28.2887L76.2168 28.3686L76.2212 28.4485L76.2243 28.5284L76.226 28.6079L76.2265 28.6878H75.6991L75.6987 28.6158L75.6969 28.5438L75.6943 28.4718L75.6908 28.4002L75.6859 28.3287L75.6802 28.2571L75.6732 28.1855L75.6649 28.1139L75.6556 28.0424L75.6451 27.9708L75.6337 27.8992L75.621 27.8281L75.6073 27.757L75.5924 27.6854L75.5766 27.6138L75.5599 27.5427L75.5419 27.4716L75.523 27.4L75.5028 27.3289L75.4818 27.2573L75.4594 27.1862L75.4361 27.115L75.4115 27.0435L75.3856 26.9719L75.3588 26.9003L75.3307 26.8287L75.3017 26.7572L75.2714 26.6856L75.2403 26.614L75.2078 26.5425L75.174 26.4705L75.1393 26.3984H75.138ZM73.6539 24.4919L73.9898 24.0853L74.0525 24.1376L74.1145 24.1907L74.1759 24.2452L74.2365 24.3001L74.2958 24.3558L74.3546 24.4125L74.413 24.47L74.4701 24.5284L74.5268 24.5877L74.5825 24.6474L74.6374 24.708L74.6914 24.7694L74.745 24.8313L74.7981 24.8946L74.8499 24.9587L74.9009 25.0232L74.9514 25.0891L75.001 25.1554L75.0497 25.2226L75.098 25.2906L75.145 25.3591L75.1915 25.4285L75.2372 25.4988L75.282 25.5699L75.3259 25.6419L75.3689 25.7143L75.4115 25.7877L75.4532 25.8619L75.4941 25.937L75.534 26.0125L75.5731 26.0889L75.6117 26.1662L75.1384 26.3989L75.1028 26.3273L75.0664 26.2566L75.0295 26.1868L74.9917 26.1179L74.9535 26.0494L74.9145 25.9817L74.875 25.915L74.8346 25.8491L74.7933 25.7842L74.7516 25.7196L74.709 25.6559L74.6655 25.5927L74.6216 25.5308L74.5768 25.4693L74.5316 25.4083L74.4859 25.3486L74.4389 25.2893L74.3915 25.2309L74.3437 25.1734L74.2949 25.1168L74.2453 25.0606L74.1952 25.0052L74.1443 24.9508L74.0929 24.8968L74.0407 24.8436L73.9876 24.7914L73.934 24.7396L73.8795 24.6886L73.8247 24.6382L73.7689 24.589L73.7123 24.5402L73.6552 24.4919H73.6539ZM71.4597 23.2335L71.6512 22.7417H71.6507L71.7342 22.7747L71.8163 22.8076L71.8984 22.8414L71.9796 22.8757L72.06 22.9108L72.1399 22.9464L72.2194 22.9828L72.298 23.0197L72.3757 23.057L72.453 23.0952L72.5298 23.1338L72.6058 23.1734L72.6808 23.2129L72.7555 23.2533L72.8297 23.2946L72.903 23.3363L72.9755 23.3789L73.0475 23.4214L73.1191 23.4649L73.1902 23.5093L73.2604 23.5541L73.3298 23.5993L73.3987 23.6454L73.4668 23.6919L73.5344 23.7389L73.6016 23.7868L73.6679 23.8351L73.7333 23.8838L73.7983 23.9334L73.8624 23.9839L73.9261 24.0348L73.9889 24.0862L73.653 24.4928L73.5946 24.445L73.5353 24.3975L73.4756 24.351L73.415 24.3049L73.354 24.2592L73.2925 24.214L73.2306 24.1696L73.1673 24.1257L73.1037 24.0823L73.0396 24.0397L72.9746 23.9971L72.9092 23.9554L72.8429 23.9141L72.7761 23.8733L72.7085 23.8329L72.64 23.7934L72.5711 23.7543L72.5017 23.7156L72.4314 23.6779L72.3603 23.6401L72.2887 23.6032L72.2167 23.5672L72.1438 23.5312L72.0701 23.4957L71.9959 23.461L71.9212 23.4267L71.8461 23.3933L71.7697 23.3604L71.6929 23.3279L71.6156 23.2959L71.5375 23.2643L71.4589 23.2335H71.4584H71.4597ZM68.8024 22.4524L68.9354 21.9422L69.0553 21.9733L69.173 22.0045L69.2885 22.0348L69.4013 22.0651L69.512 22.0945L69.6204 22.1235L69.7267 22.1521L69.8307 22.1806L69.9322 22.2087L70.0314 22.2359L70.1284 22.2631L70.2233 22.2895L70.3159 22.3158L70.4064 22.3417L70.4942 22.3672L70.5803 22.3922L70.6637 22.4173L70.7449 22.4414L70.824 22.4651L70.9008 22.4884L70.9754 22.5117L71.0479 22.5345L71.1181 22.5569L71.1862 22.5788L71.2521 22.6004L71.3153 22.6214L71.3768 22.6421L71.436 22.6627L71.4931 22.6829L71.548 22.7031L71.6007 22.7229L71.6516 22.7426L71.4602 23.2344L71.4141 23.2168L71.3653 23.1988L71.3144 23.1799L71.2608 23.1611L71.2046 23.1413L71.1462 23.1216L71.0852 23.1014L71.022 23.0807L70.9566 23.0596L70.8885 23.0381L70.8182 23.0162L70.7458 22.9938L70.6707 22.9709L70.5934 22.9477L70.5135 22.924L70.4314 22.8998L70.3471 22.8752L70.2602 22.8502L70.1715 22.8247L70.0801 22.7988L69.9866 22.7725L69.8905 22.7457L69.7921 22.7185L69.6911 22.6908L69.5884 22.6627L69.483 22.6342L69.3754 22.6052L69.2652 22.5758L69.1532 22.5459L69.0386 22.5156L68.9218 22.4849L68.8028 22.4537L68.8024 22.4524ZM66.0897 21.6467L66.2764 21.1531L66.2785 21.154L66.3251 21.172L66.3738 21.19L66.4248 21.2089L66.4783 21.2278L66.5345 21.2475L66.5929 21.2673L66.654 21.2879L66.7172 21.309L66.7826 21.3305L66.8507 21.352L66.9209 21.3744L66.9934 21.3973L67.0685 21.4205L67.1457 21.4442L67.2257 21.4684L67.3073 21.493L67.3921 21.518L67.479 21.5435L67.5677 21.5694L67.659 21.5957L67.7526 21.6221L67.8487 21.6493L67.9471 21.6765L68.0476 21.7042L68.1508 21.7327L68.2557 21.7613L68.3633 21.7902L68.4735 21.8197L68.5855 21.85L68.7001 21.8803L68.8169 21.911L68.9359 21.9422L68.8028 22.4524L68.683 22.4212L68.5653 22.39L68.4498 22.3593L68.337 22.329L68.2263 22.2991L68.1179 22.2697L68.0116 22.2407L67.908 22.2122L67.8061 22.1841L67.7064 22.156L67.6094 22.1288L67.5146 22.1016L67.4219 22.0752L67.3315 22.0493L67.2437 22.0234L67.158 21.9979L67.0742 21.9729L66.9929 21.9483L66.9139 21.9242L66.8371 21.9005L66.7624 21.8767L66.6904 21.8539L66.6202 21.8311L66.5521 21.8087L66.4862 21.7867L66.423 21.7652L66.3615 21.7441L66.3023 21.7235L66.2456 21.7033L66.1907 21.6831L66.138 21.6634L66.0875 21.644L66.0897 21.6449V21.6467ZM63.4096 20.0897L63.7525 19.6888L63.7556 19.6914L63.8192 19.7463L63.8838 19.8008L63.9492 19.8548L64.0155 19.9083L64.0831 19.961L64.1516 20.0133L64.221 20.0646L64.2912 20.1156L64.3624 20.1661L64.4348 20.2157L64.5082 20.2649L64.5824 20.3136L64.6574 20.3615L64.7338 20.4084L64.8111 20.455L64.8893 20.5011L64.9688 20.5468L65.0491 20.5915L65.1303 20.6359L65.2124 20.6794L65.2954 20.7224L65.3797 20.765L65.4649 20.8067L65.5514 20.8475L65.6388 20.8884L65.7266 20.9279L65.8162 20.967L65.9062 21.0056L65.9975 21.0438L66.0897 21.0811L66.1833 21.118L66.2772 21.154L66.0906 21.6475L65.9914 21.6093L65.8935 21.5707L65.7969 21.5316L65.7007 21.4917L65.6059 21.4508L65.5119 21.4096L65.4184 21.3674L65.3262 21.3244L65.2353 21.2809L65.1448 21.2366L65.0557 21.1918L64.9674 21.1461L64.8801 21.1L64.7936 21.053L64.7079 21.0052L64.6236 20.9569L64.5402 20.9077L64.4577 20.8581L64.376 20.8076L64.2952 20.7562L64.2157 20.7044L64.1371 20.6521L64.0594 20.5986L63.983 20.5446L63.9075 20.4901L63.8328 20.4348L63.7591 20.3786L63.6866 20.3219L63.6151 20.2644L63.5444 20.206L63.4745 20.1472L63.4056 20.0875L63.4087 20.0901L63.4096 20.0897ZM60.7149 14.1041H61.2422L61.2449 14.3197L61.2523 14.5326L61.2646 14.7425L61.2822 14.9497L61.3042 15.1544L61.3314 15.3559L61.3634 15.5548L61.4003 15.7511L61.442 15.9447L61.4886 16.1353L61.5399 16.3232L61.5961 16.5085L61.6576 16.6912L61.7235 16.8712L61.7946 17.049L61.8706 17.2242L61.9509 17.3963L62.0365 17.5662L62.127 17.7335L62.2223 17.8982L62.3224 18.0607L62.4278 18.2205L62.538 18.3781L62.653 18.5331L62.7729 18.6859L62.8976 18.8361L63.0276 18.9841L63.1628 19.1298L63.3029 19.273L63.4482 19.4135L63.5984 19.5518L63.7534 19.6879L63.4104 20.0888L63.2453 19.9443L63.0855 19.7968L62.931 19.6466L62.7812 19.4934L62.6368 19.3375L62.4976 19.179L62.3632 19.0174L62.2341 18.8532L62.1103 18.6864L61.9918 18.5164L61.8785 18.3439L61.7705 18.1687L61.6677 17.9904L61.5698 17.8095L61.4776 17.626L61.3907 17.4398L61.309 17.2505L61.2326 17.0591L61.1615 16.8646L61.0956 16.6674L61.035 16.4681L60.9797 16.2661L60.9296 16.0611L60.8848 15.8538L60.8453 15.6439L60.8111 15.4314L60.7821 15.2163L60.7584 14.9989L60.7399 14.7789L60.7268 14.5563L60.7189 14.3311L60.7162 14.1032L60.7149 14.1041ZM63.3398 7.90111L63.6963 8.2897L63.6958 8.29014L63.5444 8.43197L63.3981 8.57599L63.2568 8.72308L63.1202 8.87237L62.9885 9.02429L62.8616 9.17885L62.7395 9.3356L62.6223 9.49499L62.5099 9.65657L62.4023 9.82079L62.2996 9.98808L62.2016 10.1576L62.1086 10.3293L62.0203 10.504L61.9364 10.681L61.8574 10.861L61.7832 11.0436L61.7138 11.2289L61.6493 11.4169L61.5896 11.6074L61.5342 11.8006L61.4837 11.9965L61.4381 12.1949L61.3972 12.396L61.3612 12.5998L61.3301 12.8066L61.3037 13.016L61.2822 13.2281L61.2651 13.4428L61.2528 13.6606L61.2453 13.881L61.2427 14.1041H60.7153L60.718 13.8696L60.7254 13.6373L60.7382 13.4077L60.7562 13.1807L60.779 12.9559L60.8071 12.7337L60.8405 12.5141L60.8787 12.2972L60.9221 12.0825L60.9709 11.8709L61.0245 11.6619L61.0833 11.4551L61.1474 11.2513L61.2168 11.0498L61.2914 10.8513L61.3709 10.6555L61.4556 10.4623L61.5457 10.2717L61.6405 10.0842L61.7406 9.89895L61.846 9.71673L61.9562 9.53758L62.0717 9.36063L62.1924 9.18675L62.318 9.01595L62.4488 8.84822L62.585 8.68312L62.7259 8.52066L62.8717 8.36127L63.0227 8.20452L63.1786 8.05084L63.3398 7.90023L63.3393 7.90067L63.3398 7.90111ZM69.7925 5.50195V6.02973L69.5655 6.03193L69.3407 6.03851L69.1185 6.04949L68.8986 6.0653L68.6812 6.08506L68.4661 6.10921L68.2535 6.13819L68.0437 6.17156L67.836 6.20932L67.6305 6.25147L67.4276 6.29757L67.227 6.34851L67.0285 6.40383L66.8327 6.46355L66.6395 6.52766L66.448 6.59615L66.2592 6.66904L66.0726 6.74632L65.8886 6.82799L65.7064 6.91405L65.5268 7.0045L65.349 7.09934L65.1738 7.19858L65.0008 7.3022L64.83 7.41022L64.6614 7.52262L64.495 7.63986L64.3308 7.76104L64.1687 7.88706L64.0089 8.01747L63.8513 8.15227L63.6958 8.29146L63.3393 7.90287L63.5035 7.75534L63.6704 7.61263L63.8399 7.47432L64.0115 7.34084L64.1859 7.21175L64.3628 7.08749L64.542 6.96762L64.7237 6.85258L64.9082 6.74237L65.0948 6.63699L65.2836 6.536L65.475 6.43984L65.6691 6.34807L65.8654 6.26113L66.0638 6.17902L66.2649 6.10174L66.4682 6.02929L66.6737 5.96124L66.8818 5.89801L67.0922 5.83961L67.3047 5.7856L67.5198 5.73642L67.7372 5.69208L67.9567 5.65256L68.1785 5.61743L68.4024 5.58714L68.629 5.56123L68.8573 5.54059L69.0878 5.52435L69.321 5.51249L69.5559 5.50547L69.7934 5.50283L69.7925 5.50195ZM75.9986 7.98981L75.6319 8.36918L75.4791 8.22472L75.3246 8.08509L75.1683 7.94985L75.0097 7.81944L74.8495 7.69343L74.6875 7.57224L74.5237 7.45588L74.3577 7.34391L74.19 7.23678L74.0205 7.13403L73.8492 7.03612L73.6758 6.94259L73.5006 6.85346L73.3232 6.76915L73.1441 6.68924L72.9632 6.61416L72.7801 6.54346L72.5952 6.47716L72.4082 6.41569L72.2194 6.35861L72.0284 6.30592L71.8356 6.25806L71.6406 6.21459L71.4435 6.17595L71.2446 6.1417L71.0435 6.11184L70.8402 6.08681L70.6351 6.06618L70.4275 6.05037L70.218 6.03895L70.0064 6.03193L69.793 6.02973V5.50195L70.0182 5.50459L70.2413 5.51205L70.4626 5.52435L70.6817 5.54147L70.899 5.56342L71.1146 5.59021L71.328 5.62182L71.5397 5.65827L71.7491 5.69954L71.9568 5.74565L72.1623 5.79658L72.366 5.85278L72.5671 5.91338L72.7669 5.97924L72.9645 6.04993L73.1599 6.12501L73.3531 6.20537L73.5445 6.29055L73.7338 6.38056L73.9208 6.4754L74.1061 6.57508L74.2888 6.68002L74.4697 6.78935L74.6484 6.90351L74.8249 7.0225L74.9992 7.14633L75.1713 7.27498L75.3413 7.40846L75.509 7.54677L75.675 7.68991L75.8387 7.83788L75.9999 7.99025L75.9986 7.98981ZM78.3125 14.4242V13.8964L78.0487 14.1603L78.046 13.9442L78.039 13.7304L78.0271 13.5192L78.0109 13.3106L77.9894 13.1038L77.9635 12.8992L77.9327 12.6972L77.8972 12.4979L77.8568 12.3003L77.812 12.1054L77.7624 11.9126L77.7079 11.722L77.6491 11.5341L77.5854 11.3484L77.5174 11.1644L77.4445 10.983L77.3668 10.8039L77.2842 10.6265L77.1973 10.4513L77.1055 10.2783L77.0089 10.108L76.9075 9.93934L76.8017 9.77293L76.691 9.60871L76.5755 9.44669L76.4552 9.28643L76.3301 9.12836L76.2001 8.97248L76.0653 8.8188L75.9257 8.66688L75.7812 8.51715L75.6319 8.36962L75.9986 7.99025L76.1566 8.14656L76.3099 8.30507L76.4583 8.46621L76.6014 8.62955L76.7397 8.79553L76.8732 8.96414L77.0014 9.13494L77.1248 9.30838L77.2429 9.48401L77.3562 9.66184L77.4647 9.84231L77.5679 10.025L77.6662 10.2103L77.7593 10.3977L77.8476 10.5874L77.931 10.7798L78.0091 10.9743L78.082 11.171L78.1501 11.3699L78.2129 11.5714L78.2708 11.7752L78.324 11.9811L78.3718 12.1892L78.4144 12.3995L78.4522 12.6121L78.4847 12.8268L78.5123 13.0437L78.5352 13.2628L78.5527 13.4841L78.565 13.7076L78.5725 13.9328L78.5751 14.1607L78.3112 14.4246L78.3125 14.4242ZM78.5764 14.1603V14.4242H78.3125L78.5764 14.1603ZM75.0809 13.8964H78.3125V14.4242H75.0809L74.817 14.1603L75.0809 13.8964ZM75.0809 14.4242H74.817V14.1603L75.0809 14.4242ZM73.2833 10.4693L73.646 10.0864L73.7496 10.1874L73.8506 10.2902L73.948 10.3947L74.0424 10.5009L74.1338 10.6089L74.2216 10.7187L74.3059 10.8302L74.3876 10.9435L74.4657 11.0586L74.5404 11.1754L74.6119 11.2939L74.6804 11.4142L74.745 11.5363L74.8069 11.6601L74.8649 11.7857L74.9197 11.9126L74.9711 12.0412L75.0194 12.1717L75.0642 12.3038L75.1055 12.4373L75.1437 12.5725L75.1784 12.7091L75.21 12.8474L75.2381 12.987L75.2631 13.1284L75.2846 13.2716L75.3026 13.416L75.3175 13.5618L75.329 13.7089L75.3373 13.8577L75.3421 14.0083L75.3439 14.1603H74.8166L74.8148 14.0198L74.81 13.881L74.8025 13.744L74.792 13.6088L74.7784 13.4753L74.7617 13.3436L74.7423 13.2132L74.7195 13.0849L74.694 12.9581L74.6655 12.8329L74.6339 12.7091L74.5996 12.5875L74.5623 12.4672L74.5219 12.3486L74.4785 12.2314L74.4324 12.1159L74.3832 12.0022L74.3309 11.8898L74.2756 11.7787L74.2172 11.6689L74.1562 11.5609L74.0921 11.4542L74.0249 11.3492L73.9551 11.2461L73.8817 11.1438L73.8053 11.0432L73.7259 10.944L73.6433 10.8461L73.5577 10.7495L73.4694 10.6546L73.3777 10.5611L73.2828 10.4689L73.2833 10.4693ZM69.4145 9.0098V8.48202L69.5712 8.48378L69.7262 8.48861L69.8799 8.49651L70.0323 8.50705L70.1829 8.5211L70.3317 8.53822L70.4793 8.55842L70.6255 8.58169L70.7699 8.60804L70.9126 8.6379L71.0545 8.67083L71.1941 8.70683L71.3324 8.74591L71.469 8.7885L71.6042 8.83417L71.7377 8.88247L71.8694 8.93428L71.9998 8.98917L72.1285 9.04712L72.2554 9.10816L72.3809 9.1727L72.5043 9.24032L72.6264 9.31101L72.7467 9.38478L72.8653 9.46162L72.9821 9.54153L73.0971 9.62452L73.2104 9.71058L73.3223 9.79972L73.4321 9.89236L73.5401 9.98764L73.6464 10.086L73.2837 10.4689L73.1862 10.3789L73.0874 10.2915L72.9873 10.2072L72.8859 10.126L72.7827 10.0474L72.6782 9.97184L72.5724 9.89939L72.4648 9.82957L72.3559 9.76283L72.2457 9.69873L72.1337 9.63769L72.0205 9.5793L71.9054 9.52397L71.7891 9.47128L71.6709 9.42166L71.5515 9.37468L71.4303 9.33077L71.3074 9.2895L71.1831 9.2513L71.0571 9.21573L70.9293 9.1828L70.8002 9.15294L70.6694 9.12572L70.5368 9.10157L70.4024 9.08006L70.2668 9.06161L70.1289 9.04581L69.9897 9.03307L69.8487 9.02297L69.706 9.01595L69.5616 9.01156L69.4154 9.01024L69.4145 9.0098ZM65.8254 10.5255L65.4487 10.1563L65.4482 10.1567L65.5505 10.0544L65.6537 9.95515L65.7587 9.85899L65.8649 9.76635L65.9729 9.67677L66.0823 9.59027L66.1934 9.50685L66.3058 9.42693L66.4195 9.35009L66.535 9.27633L66.6513 9.20563L66.7694 9.13845L66.8889 9.07435L67.0101 9.01331L67.1326 8.9558L67.2564 8.90179L67.3815 8.85085L67.508 8.80299L67.6358 8.75865L67.7648 8.71781L67.8953 8.68005L68.027 8.6458L68.16 8.61463L68.2944 8.58696L68.4301 8.56237L68.5671 8.5413L68.7054 8.5233L68.8446 8.50881L68.9851 8.49739L69.1273 8.48905L69.2705 8.48422L69.4145 8.48246V9.01024L69.2819 9.01156L69.151 9.01595L69.0215 9.02341L68.8933 9.03395L68.7664 9.04712L68.6413 9.06337L68.5174 9.08269L68.3945 9.10464L68.2733 9.13011L68.1534 9.15821L68.0349 9.18939L67.9172 9.2232L67.8013 9.26008L67.6863 9.2996L67.573 9.34219L67.4606 9.38785L67.3495 9.43659L67.2397 9.48797L67.1312 9.54241L67.0237 9.59993L66.9174 9.66053L66.8125 9.72419L66.7088 9.79049L66.6061 9.85987L66.5042 9.93232L66.4041 10.0078L66.3049 10.0864L66.207 10.1681L66.1099 10.2529L66.0142 10.3407L65.9194 10.4316L65.8259 10.5255L65.8254 10.526V10.5255ZM64.3479 14.1532H63.8205L63.8223 14.0092L63.8271 13.8661L63.835 13.7243L63.846 13.5833L63.8605 13.4437L63.8781 13.3054L63.8987 13.1684L63.9224 13.0323L63.9496 12.897L63.9799 12.7635L64.0133 12.6309L64.0497 12.4996L64.0897 12.3697L64.1327 12.241L64.1788 12.1137L64.2285 11.9877L64.2811 11.863L64.3369 11.7396L64.3957 11.6175L64.4581 11.4968L64.5235 11.3773L64.592 11.2592L64.6636 11.1424L64.7382 11.0274L64.8164 10.9137L64.8976 10.8013L64.9819 10.6902L65.0693 10.5804L65.1598 10.4724L65.2533 10.3653L65.3499 10.2599L65.4496 10.1563L65.8263 10.5255L65.7345 10.6208L65.6463 10.7174L65.5611 10.8149L65.4785 10.9137L65.3991 11.0138L65.3222 11.1148L65.2485 11.2171L65.1778 11.3203L65.1101 11.4248L65.0452 11.5301L64.9832 11.6368L64.9244 11.7444L64.8682 11.8533L64.8151 11.9631L64.7646 12.0742L64.7172 12.1866L64.6728 12.2999L64.6311 12.4149L64.592 12.5308L64.556 12.6481L64.5226 12.7666L64.4923 12.8865L64.4647 13.0072L64.4401 13.1293L64.4186 13.2527L64.3997 13.3774L64.3839 13.5034L64.3712 13.6307L64.3611 13.7594L64.3536 13.8894L64.3492 14.0206L64.3474 14.1532H64.3479ZM66.1626 17.7472L65.8667 18.1836L65.8641 18.1818L65.7393 18.0927L65.6186 18.0009L65.5014 17.907L65.3881 17.8104L65.2787 17.7116L65.1729 17.6102L65.0711 17.5065L64.9731 17.4003L64.8792 17.2914L64.7892 17.1803L64.7031 17.0666L64.621 16.9507L64.5424 16.8321L64.4682 16.7114L64.3979 16.588L64.3316 16.4624L64.2693 16.3346L64.2109 16.2042L64.1569 16.0716L64.1068 15.9368L64.0607 15.7998L64.019 15.6611L63.9808 15.5197L63.947 15.3761L63.9171 15.2303L63.8912 15.0823L63.8697 14.9326L63.8517 14.7811L63.8377 14.627L63.828 14.4711L63.8219 14.3131L63.8201 14.1528H64.3474L64.3492 14.2999L64.3545 14.4444L64.3637 14.5866L64.376 14.7262L64.3922 14.8641L64.412 14.9994L64.4353 15.132L64.462 15.2624L64.4923 15.3901L64.5262 15.5157L64.5635 15.6391L64.6043 15.7603L64.6487 15.8793L64.6965 15.9961L64.7475 16.1107L64.8023 16.2231L64.8603 16.3333L64.9218 16.4413L64.9872 16.5476L65.0561 16.6516L65.1286 16.7539L65.2045 16.8541L65.284 16.952L65.367 17.0481L65.4539 17.1425L65.5444 17.2347L65.6388 17.3252L65.7367 17.4139L65.8381 17.5004L65.9435 17.5851L66.0529 17.6681L66.1657 17.7489L66.1631 17.7472H66.1626ZM70.1781 19.3274L70.0354 19.8354L69.8536 19.7841L69.6753 19.7327L69.5001 19.6813L69.3284 19.6299L69.1603 19.5786L68.9952 19.5272L68.8336 19.4758L68.6755 19.4245L68.5205 19.3731L68.3686 19.3217L68.2206 19.2703L68.0753 19.219L67.9335 19.1676L67.7956 19.1162L67.6603 19.0648L67.5286 19.0135L67.4004 18.9621L67.2753 18.9107L67.1536 18.8594L67.0351 18.808L66.92 18.7566L66.8081 18.7048L66.6996 18.6534L66.5942 18.6016L66.4919 18.5498L66.3931 18.498L66.2974 18.4462L66.2052 18.3944L66.1156 18.3421L66.0296 18.2899L65.9466 18.2372L65.8671 18.1845L66.1631 17.748L66.2338 17.795L66.308 17.842L66.3857 17.8894L66.4669 17.9373L66.5521 17.9851L66.6408 18.0334L66.733 18.0817L66.8287 18.1305L66.9284 18.1792L67.0311 18.2284L67.1378 18.2771L67.2476 18.3263L67.3609 18.3755L67.4781 18.4247L67.5984 18.4743L67.7223 18.5239L67.8496 18.5735L67.9804 18.6231L68.1148 18.6732L68.2527 18.7232L68.3941 18.7733L68.539 18.8233L68.6869 18.8734L68.8389 18.9239L68.9943 18.9744L69.1528 19.0249L69.3148 19.0754L69.4808 19.1259L69.6498 19.1764L69.8224 19.2269L69.9985 19.2778L70.1781 19.3287V19.3274ZM73.4492 20.2776L73.2697 20.7738L73.2666 20.7729L73.2477 20.7659L73.2227 20.7571L73.1911 20.7465L73.1537 20.7342L73.112 20.7211L73.0646 20.7061L73.011 20.6899L72.9531 20.6719L72.8898 20.653L72.8213 20.6324L72.748 20.6104L72.6694 20.5872L72.586 20.5621L72.4973 20.5362L72.4033 20.509L72.3045 20.48L72.2005 20.4502L72.0916 20.4185L71.9774 20.3856L71.8584 20.3514L71.7346 20.3158L71.6055 20.2789L71.4712 20.2407L71.332 20.2012L71.188 20.1604L71.0387 20.1178L70.8841 20.0743L70.7243 20.0291L70.5601 19.9825L70.3906 19.9347L70.2158 19.8855L70.0362 19.835L70.1789 19.327L70.359 19.3775L70.5337 19.4267L70.7032 19.4745L70.8683 19.5211L71.0281 19.5663L71.1827 19.6097L71.3324 19.6523L71.4773 19.6932L71.6169 19.7331L71.7513 19.7713L71.8808 19.8082L72.0055 19.8438L72.125 19.878L72.2396 19.911L72.3489 19.9426L72.4534 19.9729L72.5531 20.0019L72.6475 20.0295L72.737 20.0559L72.8213 20.0809L72.9008 20.1046L72.975 20.127L73.0444 20.1481L73.109 20.1674L73.1687 20.1858L73.2227 20.2025L73.2727 20.2179L73.3184 20.2324L73.3583 20.2455L73.3939 20.2574L73.426 20.2684L73.4536 20.2785L73.4506 20.2776H73.4492ZM76.3446 22.0405L75.9986 22.4383L75.992 22.4326L75.9178 22.3646L75.8431 22.2974L75.7676 22.2315L75.6912 22.1665L75.6144 22.1024L75.5371 22.0396L75.4589 21.9777L75.3799 21.9171L75.3 21.8574L75.2196 21.7986L75.1388 21.7411L75.0572 21.6844L74.9746 21.6287L74.8916 21.5742L74.8078 21.5206L74.723 21.4684L74.6374 21.417L74.5513 21.3665L74.4648 21.3174L74.377 21.2691L74.2888 21.2221L74.1996 21.176L74.1101 21.1307L74.0196 21.0868L73.9283 21.0438L73.8365 21.0021L73.7439 20.9613L73.6503 20.9217L73.5559 20.8831L73.4611 20.8453L73.3654 20.8089L73.2692 20.7733L73.4488 20.2772L73.5511 20.3149L73.6525 20.354L73.7535 20.394L73.8536 20.4352L73.9529 20.4774L74.0517 20.5209L74.1496 20.5656L74.2466 20.6113L74.3428 20.6578L74.4385 20.7061L74.5333 20.7553L74.6273 20.8058L74.7204 20.8572L74.813 20.9099L74.9048 20.9634L74.9961 21.0183L75.0866 21.0745L75.1762 21.1316L75.2653 21.19L75.3531 21.2493L75.4405 21.3094L75.5274 21.3709L75.6131 21.4337L75.6978 21.4974L75.7821 21.5624L75.8655 21.6282L75.9481 21.6954L76.0297 21.7635L76.111 21.8328L76.1913 21.9031L76.2708 21.9747L76.3498 22.0471L76.3432 22.0414L76.3446 22.0405ZM79.3312 28.7379H78.8039L78.8013 28.4964L78.7929 28.2575L78.7793 28.0222L78.76 27.7895L78.7354 27.5598L78.7051 27.3337L78.6695 27.1102L78.6287 26.8893L78.5821 26.6716L78.5303 26.4568L78.4728 26.2452L78.41 26.0362L78.3415 25.8303L78.2678 25.627L78.1883 25.4267L78.1035 25.2292L78.0131 25.0346L77.9178 24.8428L77.8168 24.6535L77.7101 24.4669L77.5982 24.2834L77.4805 24.1025L77.3575 23.9242L77.2289 23.7486L77.095 23.5756L76.9553 23.4056L76.81 23.2379L76.659 23.0728L76.5026 22.9104L76.3406 22.7505L76.1733 22.5938L75.9999 22.4392L76.3459 22.0414L76.529 22.2043L76.7064 22.3707L76.8781 22.5398L77.044 22.7119L77.2043 22.8871L77.3589 23.0653L77.5077 23.2467L77.6508 23.4311L77.7878 23.6186L77.9191 23.8092L78.0447 24.0024L78.1646 24.1991L78.2783 24.3984L78.3868 24.6008L78.4891 24.8063L78.5857 25.0144L78.6761 25.2256L78.7609 25.4399L78.8399 25.6573L78.9128 25.8777L78.98 26.1003L79.0414 26.326L79.0968 26.5548L79.1464 26.7862L79.1903 27.0206L79.228 27.2577L79.2601 27.4979L79.286 27.7407L79.3062 27.9862L79.3207 28.2343L79.3295 28.4854L79.3321 28.7392L79.3312 28.7379ZM76.4565 35.3659L76.096 34.9808L76.0956 34.9812L76.2629 34.8201L76.4249 34.6567L76.5812 34.4917L76.7323 34.3244L76.8776 34.1549L77.0181 33.9832L77.1529 33.8093L77.2825 33.6332L77.4067 33.455L77.5257 33.2745L77.639 33.0923L77.747 32.9074L77.8498 32.7204L77.9472 32.5316L78.0399 32.3401L78.1268 32.1465L78.2085 31.9507L78.2849 31.7526L78.356 31.5524L78.4219 31.35L78.4825 31.1454L78.5382 30.9381L78.5883 30.7287L78.6331 30.5166L78.6726 30.3028L78.7068 30.0863L78.7358 29.8672L78.7595 29.6459L78.778 29.4224L78.7911 29.1967L78.7991 28.9684L78.8017 28.7374H79.329L79.3264 28.9803L79.318 29.2213L79.304 29.4597L79.2842 29.696L79.2588 29.93L79.228 30.1618L79.1916 30.3915L79.1494 30.6189L79.1016 30.8442L79.048 31.0672L78.9892 31.2877L78.9246 31.5059L78.8544 31.7219L78.7784 31.9357L78.6967 32.1469L78.6094 32.3555L78.5163 32.5623L78.4179 32.7665L78.3139 32.968L78.2041 33.1674L78.0886 33.3641L77.9679 33.5586L77.8414 33.7505L77.7097 33.9397L77.5723 34.1268L77.4291 34.3112L77.2807 34.493L77.1266 34.6726L76.9672 34.8495L76.8021 35.0238L76.6313 35.1955L76.4552 35.365L76.4548 35.3654L76.4565 35.3659ZM69.6239 38.0531V37.5253L69.8584 37.5227L70.0911 37.5152L70.3212 37.5025L70.5495 37.4849L70.7752 37.4625L70.9991 37.4348L71.2204 37.4023L71.44 37.365L71.6573 37.3229L71.8725 37.2755L72.0854 37.2232L72.2966 37.1661L72.5057 37.1042L72.7125 37.037L72.9171 36.965L73.1199 36.8877L73.3206 36.8061L73.5191 36.7191L73.7162 36.6274L73.9107 36.5303L74.1035 36.4285L74.2945 36.3218L74.4833 36.2102L74.6699 36.0934L74.8548 35.9718L75.0374 35.8449L75.2183 35.7132L75.3975 35.5766L75.5744 35.4352L75.7496 35.2882L75.923 35.1362L76.0943 34.9795L76.4548 35.3646L76.2752 35.5292L76.0934 35.6886L75.9094 35.8432L75.7228 35.9924L75.534 36.1365L75.343 36.2752L75.1498 36.4087L74.9544 36.5374L74.7568 36.6607L74.5571 36.7788L74.3551 36.8917L74.1509 36.9997L73.9445 37.102L73.736 37.1995L73.5252 37.2917L73.3122 37.3786L73.0975 37.4603L72.8802 37.5367L72.6611 37.6078L72.4398 37.6737L72.2163 37.7343L71.9906 37.7896L71.7627 37.8392L71.5331 37.884L71.3012 37.9235L71.0672 37.9574L70.8314 37.9863L70.5934 38.01L70.3537 38.0285L70.1118 38.0417L69.8676 38.0496L69.6217 38.0522L69.6239 38.0531ZM62.6025 35.3935L62.963 35.0085L63.1329 35.1635L63.3051 35.3141L63.4798 35.4594L63.6568 35.5995L63.8364 35.7347L64.0181 35.8651L64.2025 35.9902L64.3892 36.1106L64.5784 36.226L64.7703 36.3367L64.9644 36.4421L65.1611 36.5426L65.36 36.6383L65.5611 36.7292L65.7648 36.8153L65.9716 36.8961L66.1806 36.972L66.3918 37.0432L66.6057 37.1095L66.8221 37.1709L67.0412 37.2272L67.263 37.279L67.4873 37.3255L67.7144 37.3672L67.944 37.4041L68.1758 37.4362L68.4103 37.4634L68.6479 37.4853L68.888 37.5029L69.1308 37.5152L69.3763 37.5227L69.6244 37.5249V38.0526L69.3658 38.05L69.1098 38.0421L68.8564 38.0294L68.6053 38.0114L68.3567 37.9881L68.1104 37.9595L67.8667 37.9262L67.6252 37.8875L67.3864 37.8436L67.1501 37.7945L66.9165 37.74L66.6851 37.6803L66.4564 37.6153L66.2302 37.5455L66.0063 37.4704L65.7855 37.3901L65.5668 37.3044L65.3508 37.2135L65.1374 37.1174L64.9266 37.016L64.7185 36.9093L64.513 36.7973L64.3101 36.6801L64.1099 36.558L63.9123 36.4307L63.7174 36.298L63.525 36.1602L63.3354 36.0175L63.1483 35.8691L62.9639 35.7158L62.7821 35.5573L62.603 35.3935H62.6025ZM60.0128 28.3335V28.8613L60.2767 28.5974L60.2793 28.8406L60.2872 29.0813L60.3004 29.3188L60.3188 29.5537L60.3426 29.7855L60.3711 30.0147L60.4053 30.2409L60.4449 30.4644L60.4896 30.6848L60.5397 30.9026L60.5946 31.1177L60.6552 31.3298L60.7206 31.5392L60.7913 31.7461L60.8673 31.9498L60.9485 32.1509L61.035 32.3494L61.1268 32.5448L61.2238 32.738L61.3257 32.9285L61.4332 33.116L61.5457 33.3009L61.6633 33.4831L61.7867 33.6631L61.9149 33.8405L62.0484 34.0148L62.1876 34.1869L62.3316 34.3564L62.4813 34.5233L62.6363 34.6875L62.7966 34.8491L62.9626 35.008L62.6021 35.3931L62.4269 35.2254L62.2574 35.0546L62.0932 34.8807L61.9342 34.7042L61.781 34.5246L61.6335 34.3419L61.4912 34.1562L61.3546 33.9678L61.2234 33.7764L61.0978 33.5819L60.9779 33.3847L60.8633 33.1845L60.7544 32.9816L60.6512 32.7757L60.5533 32.5667L60.4611 32.3555L60.3746 32.1408L60.2938 31.9234L60.2183 31.7035L60.1485 31.4809L60.0844 31.2552L60.026 31.0268L59.9733 30.7959L59.9259 30.5618L59.8841 30.3256L59.8481 30.0868L59.8174 29.8453L59.7924 29.6011L59.7731 29.3544L59.7595 29.1045L59.7511 28.8525L59.7485 28.5978L60.0124 28.3339L60.0128 28.3335ZM59.7489 28.5974V28.3335H60.0128L59.7489 28.5974ZM63.3283 28.8613H60.0128V28.3335H63.3283L63.5922 28.5974L63.3283 28.8613ZM63.3283 28.3335H63.5922V28.5974L63.3283 28.3335Z" fill="black"/>
<path d="M87.4204 9.08041H80.2853V6.26807H97.5773V9.08041H90.5265V37.285H87.4204V9.08041Z" fill="black"/>
<path d="M80.2854 8.81678H87.4205V9.34456H80.2854L80.0215 9.08067L80.2854 8.81678ZM80.2854 9.34456H80.0215V9.08067L80.2854 9.34456ZM80.5493 6.26877V9.08067H80.0219V6.26877L80.2858 6.00488L80.5497 6.26877H80.5493ZM80.0219 6.26877V6.00488H80.2858L80.0219 6.26877ZM97.5779 6.53266H80.2858V6.00488H97.5779L97.8418 6.26877L97.5779 6.53266ZM97.5779 6.00488H97.8418V6.26877L97.5779 6.00488ZM97.314 9.08067V6.26877H97.8413V9.08067L97.5774 9.34456L97.3135 9.08067H97.314ZM97.8413 9.08067V9.34456H97.5774L97.8413 9.08067ZM90.5266 8.81678H97.5779V9.34456H90.5266L90.2627 9.08067L90.5266 8.81678ZM90.2627 9.08067V8.81678H90.5266L90.2627 9.08067ZM90.2627 37.2853V9.08067H90.79V37.2853L90.5262 37.5492L90.2623 37.2853H90.2627ZM90.79 37.2853V37.5492H90.5262L90.79 37.2853ZM87.4205 37.0214H90.5266V37.5492H87.4205L87.1566 37.2853L87.4205 37.0214ZM87.4205 37.5492H87.1566V37.2853L87.4205 37.5492ZM87.6844 9.08067V37.2853H87.1571V9.08067L87.4209 8.81678L87.6848 9.08067H87.6844ZM87.4205 8.81678H87.6844V9.08067L87.4205 8.81678Z" fill="black"/>
<path d="M108.322 6.26855H111.764L125.068 37.2851L121.69 37.2921L117.227 26.8761H102.761L98.2773 37.278L94.9337 37.2851L108.323 6.26855H108.322ZM115.975 24.0642L110.043 9.80802L103.978 24.0642H115.975Z" fill="black"/>
<path d="M111.764 6.53213H108.322V6.00435H111.764L112.006 6.16417L111.764 6.53213ZM111.764 6.00435H111.938L112.006 6.16417L111.764 6.00435ZM124.826 37.3888L111.521 6.3723L112.006 6.16417L125.311 37.1807L125.069 37.5482L124.826 37.3884L124.826 37.3888ZM125.311 37.1807L125.468 37.5478L125.069 37.5486L125.311 37.1811V37.1807ZM121.689 37.0279L125.068 37.0209L125.069 37.5482L121.69 37.5552L121.447 37.3954L121.689 37.0279ZM121.69 37.5552L121.516 37.5557L121.447 37.3954L121.691 37.5552H121.69ZM117.469 26.7717L121.932 37.1877L121.447 37.3954L116.984 26.9794L117.227 26.6119L117.469 26.7717ZM117.227 26.6119H117.401L117.469 26.7717L117.227 26.6119ZM102.761 26.6119H117.227V27.1397H102.761L102.519 26.7713L102.761 26.6119ZM102.519 26.7713L102.588 26.6119H102.761L102.519 26.7713ZM98.0349 37.1732L102.519 26.7713L103.004 26.9803L98.5196 37.3822L98.2781 37.5416L98.0353 37.1732H98.0349ZM98.5196 37.3822L98.4511 37.5412L98.2777 37.5416L98.5192 37.3822H98.5196ZM94.9328 37.0209L98.2764 37.0138L98.2777 37.5412L94.9341 37.5482L94.6913 37.1798L94.9328 37.0209ZM94.9341 37.5482L94.5319 37.5491L94.6913 37.1798L94.9341 37.5482ZM108.565 6.37274L95.1756 37.3893L94.6913 37.1798L108.08 6.16329L108.322 6.00391L108.564 6.3723L108.565 6.37274ZM108.08 6.16329L108.149 6.00391H108.323L108.081 6.16329H108.08ZM110.287 9.70627L116.218 23.9625L115.731 24.1653L109.8 9.90913L109.801 9.70451L110.287 9.70627H110.287ZM109.8 9.70451L110.046 9.12756L110.287 9.70627L109.8 9.70451ZM103.735 23.9607L109.8 9.70451L110.286 9.91088L104.221 24.1671L103.978 24.3278L103.735 23.9607ZM103.978 24.3278H103.579L103.736 23.9607L103.978 24.3278H103.978ZM115.975 24.3278H103.978V23.8H115.975L116.218 23.9625L115.975 24.3278ZM116.218 23.9625L116.37 24.3278H115.975L116.218 23.9625Z" fill="black"/>
<path d="M128.72 6.26807L132.903 6.27509L150.293 32.0454V6.26807H153.399V37.285H150.293L131.826 10.0038V37.285H128.72V6.26807Z" fill="black"/>
<path d="M132.903 6.5392L128.72 6.53217L128.72 6.00483L132.904 6.01186L133.122 6.12778L132.903 6.5392ZM132.904 6.01186L133.044 6.0123L133.122 6.12822L132.904 6.0123V6.01186ZM150.074 32.1936L132.684 6.42328L133.122 6.12822L150.512 31.8985L150.557 32.0461L150.074 32.1936ZM150.557 32.0461V32.9084L150.074 32.1936L150.557 32.0461ZM150.557 6.26872V32.0461H150.03V6.26872L150.293 6.00483L150.557 6.26872H150.557ZM150.03 6.26872V6.00483H150.293L150.03 6.26872ZM153.399 6.53261H150.293V6.00483H153.399L153.663 6.26872L153.399 6.53261ZM153.399 6.00483H153.663V6.26872L153.399 6.00483ZM153.135 37.2852V6.26872H153.663V37.2852L153.399 37.5491L153.135 37.2852H153.135ZM153.663 37.2852V37.5491H153.399L153.663 37.2852ZM150.293 37.0214H153.399V37.5491H150.293L150.075 37.4332L150.293 37.0214ZM150.293 37.5491H150.153L150.074 37.4332L150.293 37.5491H150.293ZM132.044 9.85605L150.512 37.1373L150.075 37.4332L131.607 10.152L131.562 10.004L132.044 9.85605ZM131.562 10.004V9.14385L132.044 9.85605L131.562 10.004ZM131.562 37.2852V10.004H132.089V37.2852L131.826 37.5491L131.562 37.2852H131.562ZM132.089 37.2852V37.5491H131.826L132.089 37.2852ZM128.72 37.0214H131.826V37.5491H128.72L128.456 37.2852L128.72 37.0214ZM128.72 37.5491H128.456V37.2852L128.72 37.5491ZM128.984 6.26872V37.2852H128.456V6.26872L128.721 6.00483L128.984 6.26872H128.984ZM128.456 6.26872V6.00439L128.721 6.00483L128.456 6.26872Z" fill="black"/>
<path d="M159.779 6.26807H168.13C170.621 6.26807 172.845 6.52713 174.804 7.04481C176.762 7.56249 178.609 8.5276 180.344 9.94057C182.078 11.3535 183.45 13.1024 184.457 15.1872C185.464 17.272 185.968 19.4472 185.968 21.7138C185.968 23.8965 185.527 25.9948 184.646 28.0094C183.764 30.0239 182.485 31.7938 180.805 33.3188C179.126 34.8437 177.21 35.9142 175.055 36.5294C173.265 37.033 171.026 37.2846 168.34 37.2846H159.778V6.26807H159.779ZM166.872 34.4727C169.502 34.4727 171.446 34.3467 172.706 34.0951C174.72 33.7034 176.511 32.8779 178.078 31.6191C181.268 29.1286 182.863 25.8271 182.863 21.7138C182.863 17.7124 181.254 14.439 178.036 11.8927C176.497 10.6897 174.734 9.89227 172.748 9.50061C171.349 9.22091 169.39 9.08085 166.872 9.08085H162.885V34.4731H166.872L166.872 34.4727Z" fill="black"/>
<path d="M168.13 6.53217H159.779V6.00439H168.13V6.53217ZM174.871 6.78992L174.736 7.30013L174.555 7.25315L174.371 7.20749L174.186 7.16358L174 7.12099L173.811 7.07971L173.622 7.0402L173.43 7.002L173.237 6.96511L173.043 6.92999L172.847 6.89618L172.649 6.86368L172.45 6.83295L172.249 6.80397L172.047 6.77631L171.843 6.74996L171.637 6.72537L171.43 6.7021L171.221 6.68059L171.011 6.66039L170.799 6.64151L170.585 6.62394L170.37 6.60814L170.154 6.59365L169.936 6.58091L169.716 6.5695L169.494 6.55984L169.271 6.55149L169.046 6.54447L168.82 6.5392L168.592 6.53569L168.363 6.53349L168.132 6.53305V6.00527L168.367 6.00615L168.599 6.00835L168.831 6.01186L169.061 6.01713L169.289 6.02415L169.516 6.0325L169.741 6.04216L169.965 6.05401L170.187 6.06718L170.408 6.08167L170.627 6.09748L170.844 6.11504L171.06 6.13392L171.275 6.15456L171.488 6.17652L171.699 6.20023L171.909 6.22569L172.117 6.25248L172.324 6.28102L172.529 6.31088L172.732 6.34249L172.934 6.37542L173.135 6.40967L173.334 6.44568L173.532 6.48344L173.728 6.52251L173.922 6.56335L174.116 6.6055L174.307 6.64941L174.497 6.69464L174.686 6.74162L174.873 6.78992H174.871ZM180.51 9.73618L180.177 10.1454L180.016 10.0163L179.855 9.88986L179.693 9.76603L179.531 9.64485L179.368 9.52629L179.205 9.41038L179.04 9.29665L178.876 9.18556L178.711 9.07755L178.545 8.97173L178.378 8.86855L178.21 8.768L178.043 8.67008L177.874 8.5748L177.705 8.48215L177.535 8.3917L177.365 8.30432L177.194 8.21914L177.022 8.13659L176.85 8.05712L176.677 7.97984L176.504 7.90519L176.33 7.83318L176.155 7.76381L175.98 7.69707L175.804 7.63252L175.627 7.57105L175.45 7.51177L175.272 7.45513L175.094 7.40112L174.915 7.34975L174.735 7.30101L174.87 6.7908L175.057 6.84173L175.244 6.8953L175.429 6.9515L175.614 7.01034L175.798 7.07181L175.981 7.13592L176.164 7.20266L176.347 7.27203L176.528 7.34404L176.709 7.41913L176.889 7.49684L177.068 7.57676L177.247 7.65931L177.425 7.74493L177.602 7.83318L177.779 7.92407L177.955 8.0176L178.13 8.11376L178.304 8.21255L178.478 8.31398L178.651 8.41804L178.824 8.52474L178.996 8.63407L179.166 8.74604L179.337 8.86064L179.506 8.97788L179.675 9.09775L179.843 9.22069L180.011 9.34583L180.178 9.4736L180.344 9.60401L180.509 9.73706L180.51 9.73618ZM184.694 15.0724L184.219 15.3016L184.125 15.1101L184.029 14.9209L183.931 14.7334L183.831 14.5477L183.728 14.3641L183.624 14.1828L183.518 14.0032L183.409 13.8258L183.299 13.6502L183.186 13.4763L183.071 13.3046L182.954 13.1347L182.835 12.967L182.714 12.801L182.591 12.6372L182.466 12.4752L182.338 12.3154L182.209 12.1573L182.078 12.001L181.944 11.8469L181.808 11.6945L181.67 11.5443L181.53 11.3959L181.389 11.2493L181.245 11.1044L181.098 10.9617L180.95 10.8207L180.8 10.682L180.647 10.545L180.493 10.4097L180.336 10.2767L180.177 10.1454L180.51 9.73618L180.675 9.87185L180.837 10.0097L180.997 10.1498L181.155 10.2912L181.311 10.4352L181.465 10.581L181.616 10.7289L181.765 10.8787L181.912 11.0306L182.057 11.1843L182.2 11.3402L182.341 11.4982L182.479 11.6576L182.615 11.8196L182.749 11.9834L182.881 12.1494L183.011 12.3171L183.138 12.487L183.263 12.6587L183.386 12.8326L183.508 13.0082L183.627 13.1861L183.743 13.3657L183.858 13.5474L183.97 13.7314L184.08 13.9171L184.188 14.1046L184.294 14.2943L184.398 14.4858L184.499 14.6794L184.598 14.8748L184.695 15.0724H184.694ZM186.232 21.7135H185.704L185.703 21.505L185.698 21.2968L185.691 21.0896L185.681 20.8828L185.667 20.6764L185.652 20.4705L185.633 20.265L185.611 20.0604L185.587 19.8562L185.559 19.6525L185.529 19.4492L185.495 19.2468L185.459 19.0448L185.42 18.8428L185.378 18.6421L185.332 18.4415L185.285 18.2417L185.234 18.0423L185.18 17.8434L185.124 17.645L185.065 17.4469L185.002 17.2494L184.937 17.0526L184.869 16.8559L184.798 16.6601L184.724 16.4647L184.647 16.2698L184.567 16.0752L184.485 15.8812L184.399 15.6875L184.311 15.4948L184.219 15.302L184.694 15.0728L184.789 15.2717L184.881 15.4711L184.969 15.6713L185.055 15.872L185.137 16.0731L185.217 16.275L185.293 16.4774L185.367 16.6803L185.437 16.8836L185.505 17.0873L185.569 17.292L185.631 17.497L185.689 17.7025L185.745 17.9084L185.797 18.1152L185.847 18.3225L185.894 18.5302L185.937 18.7387L185.977 18.9477L186.015 19.1572L186.05 19.3671L186.082 19.5778L186.11 19.789L186.136 20.0011L186.158 20.2132L186.178 20.4261L186.194 20.6395L186.208 20.8534L186.218 21.0676L186.226 21.2824L186.23 21.4975L186.232 21.7135ZM184.888 28.115L184.404 27.9038L184.484 27.7176L184.561 27.531L184.636 27.3439L184.709 27.1564L184.778 26.9685L184.846 26.7801L184.91 26.5913L184.972 26.4021L185.032 26.2124L185.089 26.0223L185.144 25.8317L185.195 25.6407L185.245 25.4488L185.292 25.2565L185.336 25.0638L185.378 24.8706L185.417 24.6769L185.454 24.4828L185.488 24.2883L185.52 24.0934L185.549 23.898L185.576 23.7022L185.6 23.5054L185.621 23.3083L185.64 23.1107L185.657 22.9127L185.671 22.7142L185.682 22.5153L185.691 22.3155L185.697 22.1157L185.701 21.9155L185.702 21.7144H186.23L186.228 21.9221L186.224 22.1293L186.218 22.3362L186.208 22.5425L186.197 22.7485L186.182 22.9535L186.165 23.1586L186.145 23.3627L186.123 23.5665L186.098 23.7698L186.07 23.9726L186.04 24.175L186.007 24.3766L185.971 24.5781L185.933 24.7788L185.892 24.979L185.849 25.1788L185.803 25.3781L185.754 25.577L185.703 25.7751L185.649 25.9731L185.593 26.1702L185.534 26.367L185.472 26.5632L185.408 26.7591L185.341 26.9545L185.271 27.149L185.199 27.343L185.125 27.5367L185.047 27.7299L184.967 27.9226L184.885 28.1145L184.888 28.115ZM180.983 33.5139L180.629 33.1236L180.782 32.9822L180.934 32.8395L181.083 32.695L181.23 32.5497L181.375 32.4026L181.517 32.2542L181.657 32.1045L181.795 31.9534L181.93 31.8011L182.063 31.647L182.194 31.4915L182.322 31.3348L182.448 31.1767L182.572 31.0169L182.693 30.8562L182.812 30.6937L182.929 30.5299L183.044 30.3648L183.156 30.1984L183.266 30.0307L183.373 29.8612L183.479 29.6904L183.582 29.5183L183.682 29.3448L183.781 29.1696L183.877 28.9931L183.971 28.8153L184.062 28.6361L184.151 28.4557L184.238 28.2735L184.323 28.0899L184.406 27.9051L184.889 28.1163L184.804 28.3077L184.716 28.4974L184.626 28.6862L184.534 28.8733L184.439 29.0585L184.342 29.2425L184.242 29.4252L184.14 29.6065L184.036 29.7861L183.929 29.9644L183.82 30.1413L183.709 30.3165L183.595 30.4904L183.479 30.663L183.36 30.8338L183.239 31.0033L183.116 31.171L182.991 31.3378L182.863 31.5029L182.732 31.6667L182.6 31.8287L182.464 31.9894L182.327 32.1488L182.187 32.3069L182.045 32.4632L181.901 32.6178L181.754 32.771L181.605 32.9229L181.453 33.0735L181.299 33.2224L181.143 33.3699L180.985 33.5157L180.983 33.5139ZM175.127 36.7834L174.985 36.2753L174.984 36.2758L175.181 36.2178L175.378 36.1572L175.572 36.094L175.766 36.0281L175.958 35.9596L176.149 35.8885L176.338 35.8147L176.526 35.7383L176.713 35.6593L176.898 35.5776L177.082 35.4938L177.264 35.4068L177.446 35.3173L177.625 35.2255L177.803 35.1307L177.98 35.0336L178.156 34.9339L178.33 34.8316L178.503 34.7267L178.675 34.6191L178.845 34.5089L179.014 34.3961L179.182 34.2806L179.348 34.1625L179.513 34.0417L179.676 33.9183L179.838 33.7923L179.999 33.6637L180.159 33.5324L180.317 33.3985L180.474 33.2619L180.629 33.1227L180.984 33.5131L180.823 33.6571L180.661 33.7985L180.497 33.9372L180.332 34.0733L180.165 34.2068L179.998 34.3377L179.828 34.4654L179.657 34.5906L179.485 34.7131L179.311 34.833L179.136 34.9502L178.96 35.0648L178.782 35.1768L178.602 35.2857L178.421 35.3919L178.239 35.4955L178.055 35.5965L177.87 35.6944L177.683 35.7897L177.495 35.8824L177.306 35.9724L177.115 36.0598L176.923 36.1445L176.729 36.2262L176.534 36.3052L176.337 36.3816L176.14 36.4554L175.94 36.5265L175.74 36.595L175.538 36.6604L175.334 36.7232L175.129 36.7834L175.129 36.7838L175.127 36.7834ZM168.341 37.5487V37.0209L168.59 37.0205L168.836 37.0183L169.08 37.0148L169.321 37.0095L169.559 37.0029L169.795 36.995L170.028 36.9853L170.258 36.9744L170.486 36.9616L170.711 36.948L170.934 36.9327L171.153 36.916L171.37 36.8975L171.585 36.8778L171.796 36.8567L172.005 36.8339L172.211 36.8102L172.415 36.7847L172.616 36.7575L172.814 36.7289L173.01 36.6991L173.203 36.6679L173.393 36.635L173.58 36.6007L173.765 36.5651L173.947 36.5283L174.127 36.4896L174.304 36.4497L174.478 36.4084L174.65 36.3654L174.819 36.321L174.985 36.2753L175.128 36.7834L174.956 36.8308L174.781 36.8765L174.603 36.9208L174.423 36.9638L174.241 37.0051L174.056 37.0446L173.869 37.0828L173.679 37.1193L173.486 37.1544L173.291 37.1882L173.093 37.2203L172.892 37.251L172.689 37.28L172.484 37.3076L172.276 37.334L172.065 37.3586L171.852 37.3818L171.636 37.4034L171.417 37.4236L171.197 37.442L170.973 37.4591L170.747 37.4749L170.518 37.489L170.287 37.5017L170.053 37.5127L169.816 37.5223L169.577 37.5307L169.335 37.5373L169.091 37.5425L168.844 37.5461L168.595 37.5483L168.343 37.5491L168.341 37.5487ZM159.779 37.0209H168.341V37.5487H159.779L159.515 37.2848L159.779 37.0209ZM159.779 37.5487H159.515V37.2848L159.779 37.5487ZM160.043 6.26828V37.2848H159.516V6.26828L159.779 6.00439L160.043 6.26828H160.043ZM159.516 6.26828V6.00439H159.779L159.516 6.26828ZM172.656 33.8362L172.757 34.3539L172.758 34.3535L172.635 34.3772L172.508 34.4005L172.377 34.4228L172.242 34.4444L172.103 34.465L171.961 34.4848L171.814 34.5041L171.664 34.5225L171.51 34.5401L171.352 34.5572L171.19 34.573L171.024 34.5884L170.854 34.6029L170.68 34.6165L170.502 34.6292L170.321 34.6415L170.135 34.6529L169.945 34.6635L169.752 34.6736L169.554 34.6832L169.352 34.6916L169.147 34.6995L168.937 34.7069L168.724 34.7131L168.506 34.7188L168.285 34.7236L168.06 34.728L167.83 34.7311L167.596 34.7337L167.359 34.7355L167.117 34.7368L166.872 34.7372V34.2095H167.116L167.355 34.2081L167.591 34.2064L167.822 34.2037L168.05 34.2007L168.274 34.1963L168.493 34.1915L168.709 34.1857L168.92 34.1796L169.127 34.1726L169.33 34.1647L169.53 34.1563L169.725 34.1471L169.916 34.137L170.103 34.1265L170.285 34.1155L170.464 34.1032L170.639 34.0905L170.809 34.0769L170.976 34.0624L171.139 34.0474L171.297 34.0316L171.451 34.0154L171.601 33.9983L171.747 33.9807L171.889 33.9622L172.027 33.9429L172.16 33.9232L172.29 33.9025L172.415 33.8815L172.536 33.8595L172.653 33.8367L172.654 33.8362H172.656ZM177.916 31.4112L178.241 31.827L178.244 31.8248L178.093 31.9438L177.941 32.0601L177.788 32.1743L177.634 32.2858L177.477 32.3947L177.32 32.501L177.162 32.6046L177.001 32.7056L176.84 32.8039L176.677 32.8997L176.513 32.9932L176.347 33.0836L176.18 33.1719L176.012 33.2575L175.842 33.3405L175.671 33.4209L175.499 33.4986L175.325 33.5737L175.151 33.6461L174.974 33.7159L174.797 33.7831L174.618 33.8476L174.438 33.91L174.257 33.9697L174.074 34.0264L173.89 34.0808L173.705 34.1326L173.518 34.1818L173.33 34.2283L173.141 34.2722L172.95 34.3135L172.758 34.3522L172.658 33.8345L172.842 33.7972L173.025 33.7576L173.207 33.7155L173.388 33.6707L173.567 33.6237L173.745 33.5741L173.921 33.5218L174.096 33.4674L174.27 33.4103L174.443 33.351L174.614 33.2887L174.784 33.2246L174.952 33.1574L175.12 33.088L175.286 33.016L175.451 32.9414L175.614 32.8645L175.776 32.7851L175.937 32.703L176.097 32.6186L176.256 32.5317L176.413 32.4421L176.569 32.3504L176.723 32.256L176.877 32.1589L177.028 32.0597L177.18 31.9578L177.329 31.8533L177.477 31.7466L177.624 31.6373L177.77 31.5253L177.914 31.4112L177.917 31.409L177.916 31.4112ZM182.6 21.714H183.127L183.122 22.1039L183.108 22.489L183.084 22.8696L183.051 23.2455L183.008 23.617L182.955 23.9836L182.893 24.3454L182.822 24.7028L182.741 25.0554L182.65 25.4032L182.55 25.7465L182.439 26.0851L182.32 26.4188L182.191 26.7476L182.052 27.0717L181.904 27.3909L181.746 27.7053L181.578 28.0148L181.401 28.3196L181.215 28.6195L181.019 28.9141L180.813 29.2039L180.598 29.4888L180.374 29.769L180.14 30.0439L179.897 30.3139L179.644 30.5787L179.382 30.8386L179.111 31.0937L178.83 31.3435L178.539 31.589L178.24 31.8292L177.915 31.4134L178.204 31.182L178.484 30.9457L178.755 30.7051L179.016 30.4597L179.268 30.2098L179.51 29.9556L179.743 29.697L179.967 29.4335L180.182 29.1657L180.387 28.8935L180.584 28.6164L180.771 28.3349L180.949 28.0491L181.118 27.7584L181.277 27.4629L181.428 27.163L181.57 26.8583L181.702 26.5487L181.825 26.2348L181.94 25.916L182.045 25.5924L182.14 25.264L182.227 24.9311L182.305 24.5935L182.374 24.2506L182.433 23.9033L182.484 23.5507L182.525 23.1933L182.557 22.8314L182.58 22.4644L182.594 22.0925L182.599 21.7157L182.6 21.714ZM177.874 12.1006L178.199 11.6848L178.2 11.6857L178.502 11.9307L178.794 12.1801L179.078 12.4339L179.351 12.6925L179.615 12.9551L179.87 13.2225L180.115 13.4943L180.351 13.7705L180.577 14.0515L180.794 14.3369L181.001 14.6267L181.198 14.9209L181.386 15.2195L181.565 15.5224L181.734 15.8302L181.893 16.142L182.042 16.4581L182.182 16.7787L182.312 17.1036L182.433 17.4329L182.544 17.7666L182.645 18.1047L182.737 18.4467L182.819 18.7932L182.891 19.144L182.954 19.4988L183.007 19.858L183.05 20.2211L183.083 20.5886L183.108 20.9601L183.122 21.3355L183.127 21.7153H182.6L182.595 21.3491L182.581 20.9873L182.558 20.6299L182.525 20.2768L182.484 19.9282L182.433 19.584L182.373 19.2437L182.304 18.9078L182.225 18.5763L182.138 18.2492L182.042 17.9264L181.936 17.6077L181.821 17.2933L181.696 16.9833L181.563 16.6772L181.42 16.3756L181.268 16.0779L181.107 15.7841L180.937 15.4948L180.757 15.2094L180.568 14.9279L180.37 14.6509L180.162 14.3777L179.946 14.1086L179.72 13.8434L179.484 13.5826L179.239 13.3257L178.985 13.0728L178.721 12.8238L178.448 12.5793L178.165 12.3382L177.873 12.1015L177.875 12.1024L177.874 12.1006ZM172.696 9.75901L172.8 9.24133H172.799L172.988 9.27997L173.176 9.32124L173.363 9.36471L173.548 9.41038L173.732 9.45868L173.915 9.50961L174.096 9.56318L174.276 9.61894L174.455 9.67734L174.632 9.73793L174.808 9.80116L174.983 9.86659L175.157 9.9342L175.329 10.0045L175.5 10.0769L175.669 10.152L175.837 10.2297L176.004 10.3096L176.169 10.3922L176.333 10.4769L176.496 10.5643L176.658 10.6543L176.818 10.7465L176.977 10.8414L177.134 10.9384L177.291 11.0376L177.446 11.1395L177.599 11.244L177.751 11.3507L177.902 11.46L178.051 11.5716L178.199 11.6853L177.874 12.1011L177.732 11.9918L177.589 11.8846L177.445 11.7801L177.299 11.6778L177.152 11.5781L177.004 11.4807L176.855 11.3854L176.704 11.2923L176.552 11.2018L176.398 11.1136L176.244 11.028L176.088 10.9445L175.931 10.8629L175.773 10.7838L175.613 10.7074L175.452 10.6328L175.29 10.5608L175.126 10.4914L174.961 10.4238L174.794 10.3588L174.627 10.296L174.459 10.2359L174.288 10.1775L174.116 10.1217L173.943 10.0681L173.77 10.0168L173.594 9.96801L173.417 9.92147L173.24 9.87712L173.06 9.83541L172.88 9.79589L172.697 9.75857H172.697L172.696 9.75901ZM166.872 9.34451V8.81673L167.108 8.81717L167.34 8.81849L167.569 8.82069L167.795 8.82332L168.017 8.82683L168.236 8.83122L168.452 8.83649L168.665 8.84264L168.874 8.84966L169.081 8.85757L169.283 8.86635L169.483 8.87601L169.68 8.88611L169.873 8.89753L170.063 8.90938L170.25 8.92211L170.433 8.93573L170.614 8.95022L170.791 8.96558L170.965 8.98183L171.135 8.99895L171.302 9.01696L171.467 9.0354L171.628 9.05516L171.786 9.07535L171.94 9.09643L172.092 9.11838L172.24 9.14122L172.386 9.16493L172.527 9.18952L172.666 9.21498L172.801 9.24133L172.698 9.75901L172.568 9.73354L172.435 9.70895L172.298 9.68524L172.158 9.66197L172.014 9.64002L171.867 9.6185L171.717 9.59787L171.563 9.57767L171.406 9.55879L171.246 9.54035L171.082 9.52322L170.915 9.50654L170.745 9.49073L170.571 9.4758L170.394 9.46131L170.213 9.44814L170.03 9.4354L169.843 9.42355L169.652 9.41257L169.459 9.40247L169.262 9.39325L169.061 9.38447L168.857 9.37657L168.65 9.36954L168.44 9.36339L168.227 9.35813L168.009 9.35373L167.789 9.35022L167.565 9.34759L167.338 9.34539L167.108 9.34407L166.874 9.34364L166.872 9.34451ZM162.885 8.81673H166.872V9.34451H162.885L162.621 9.08062L162.885 8.81673ZM162.621 9.08062V8.81673H162.885L162.621 9.08062ZM162.621 34.4729V9.08062H163.149V34.4729L162.885 34.7368L162.621 34.4729H162.621ZM162.885 34.7368H162.621V34.4729L162.885 34.7368ZM166.872 34.7368H162.885V34.209H166.872V34.7368Z" fill="black"/>
<path d="M201.665 6.26855H205.107L218.411 37.2851L215.033 37.2921L210.57 26.8761H196.104L191.62 37.278L188.276 37.2851L201.665 6.26855H201.665ZM209.318 24.0642L203.386 9.80802L197.321 24.0642H209.318Z" fill="black"/>
<path d="M205.232 6.52822H201.79V6.00044H205.232L205.474 6.16027L205.232 6.52822ZM205.232 6.00044H205.406L205.474 6.16027L205.232 6.00044ZM218.294 37.3849L204.99 6.36839L205.474 6.16027L218.779 37.1768L218.537 37.5443L218.294 37.3845L218.294 37.3849ZM218.779 37.1768L218.936 37.5439L218.537 37.5447L218.779 37.1772V37.1768ZM215.157 37.024L218.536 37.017L218.537 37.5443L215.158 37.5513L214.915 37.3915L215.157 37.024ZM215.158 37.5513L214.984 37.5518L214.915 37.3915L215.159 37.5513H215.158ZM210.937 26.7678L215.4 37.1838L214.915 37.3915L210.453 26.9755L210.695 26.608L210.937 26.7678ZM210.695 26.608H210.869L210.937 26.7678L210.695 26.608ZM196.229 26.608H210.695V27.1358H196.229L195.987 26.7674L196.229 26.608ZM195.987 26.7674L196.056 26.608H196.229L195.987 26.7674ZM191.503 37.1693L195.987 26.7674L196.472 26.9764L191.988 37.3783L191.746 37.5377L191.503 37.1693H191.503ZM191.988 37.3783L191.919 37.5373L191.746 37.5377L191.987 37.3783H191.988ZM188.401 37.017L191.745 37.0099L191.746 37.5373L188.402 37.5443L188.159 37.1759L188.401 37.017ZM188.402 37.5443L188 37.5452L188.159 37.1759L188.402 37.5443ZM202.033 6.36883L188.644 37.3854L188.159 37.1759L201.548 6.15939L201.79 6L202.032 6.36839L202.033 6.36883ZM201.548 6.15939L201.617 6H201.791L201.549 6.15939H201.548ZM203.755 9.70236L209.686 23.9586L209.199 24.1614L203.268 9.90522L203.269 9.70061L203.755 9.70236H203.755ZM203.268 9.70061L203.514 9.12365L203.755 9.70236L203.268 9.70061ZM197.203 23.9568L203.268 9.70061L203.754 9.90698L197.689 24.1632L197.446 24.3239L197.203 23.9568ZM197.446 24.3239H197.047L197.204 23.9568L197.446 24.3239H197.446ZM209.443 24.3239H197.446V23.7961H209.443L209.686 23.9586L209.443 24.3239ZM209.686 23.9586L209.838 24.3239H209.443L209.686 23.9586Z" fill="black"/>
<path d="M222.063 6.26855H229.45C231.576 6.26855 233.269 6.34539 234.528 6.49951C235.788 6.65363 237.033 7.07998 238.264 7.77988C239.831 8.67518 241.027 9.86466 241.852 11.3474C242.678 12.8302 243.091 14.5023 243.091 16.3767C243.091 18.8949 242.195 21.0776 240.404 22.9244C238.621 24.7712 236.466 25.6945 233.955 25.6945L242.684 37.2785L238.809 37.2855L228.275 23.2251H229.198H230.037C231.52 23.2251 232.654 23.1834 233.437 23.0991C234.221 23.0153 235.06 22.7773 235.955 22.3856C237.242 21.7981 238.236 20.9586 238.935 19.8675C239.635 18.7763 239.985 17.517 239.985 16.09C239.985 14.9989 239.726 13.9565 239.208 12.9633C238.69 11.9701 237.984 11.1586 237.089 10.529C236.193 9.89935 235.179 9.50066 234.046 9.33293C232.913 9.1652 231.59 9.08089 230.08 9.08089H225.169V37.2855H222.063V6.26899V6.26855Z" fill="black"/>
<path d="M229.45 6.53242H222.063V6.00464H229.45V6.53242ZM234.56 6.23735L234.496 6.76118L234.379 6.74713L234.258 6.73352L234.136 6.72035L234.01 6.70761L233.882 6.69532L233.751 6.68346L233.618 6.67205L233.482 6.66107L233.344 6.65053L233.203 6.64043L233.059 6.63077L232.913 6.62155L232.765 6.61277L232.614 6.60443L232.459 6.59652L232.303 6.58906L232.144 6.58203L231.983 6.57545L231.818 6.5693L231.651 6.56359L231.482 6.55832L231.31 6.55349L231.136 6.5491L230.959 6.54515L230.779 6.54164L230.597 6.53856L230.412 6.53593L230.225 6.53373L230.035 6.53198L229.843 6.5311L229.648 6.53022H229.45V6.00244L229.649 6.00288L229.845 6.00376L230.039 6.00464L230.23 6.00639L230.419 6.00859L230.605 6.01122L230.788 6.0143L230.969 6.01781L231.147 6.02176L231.324 6.02615L231.497 6.03098L231.668 6.03625L231.837 6.04196L232.003 6.04811L232.166 6.05469L232.327 6.06172L232.486 6.06918L232.642 6.07709L232.795 6.08543L232.946 6.09465L233.094 6.10387L233.24 6.11353L233.384 6.12363L233.525 6.13461L233.663 6.14558L233.799 6.15744L233.933 6.16973L234.063 6.18247L234.192 6.1952L234.318 6.20881L234.441 6.22286L234.562 6.23735H234.56ZM238.395 7.55022L238.133 8.00862L238.134 8.00906L238.021 7.94583L237.908 7.88392L237.795 7.82377L237.681 7.76493L237.568 7.70785L237.455 7.65208L237.342 7.59852L237.229 7.54626L237.115 7.49533L237.002 7.44615L236.889 7.39829L236.776 7.35219L236.662 7.30784L236.549 7.26525L236.435 7.22398L236.321 7.18446L236.207 7.14626L236.094 7.10981L235.98 7.07469L235.866 7.04132L235.753 7.0097L235.639 6.97941L235.525 6.95043L235.411 6.9232L235.297 6.89774L235.183 6.87359L235.069 6.85119L234.954 6.83012L234.84 6.8108L234.726 6.79323L234.611 6.77699L234.496 6.76206L234.56 6.23823L234.682 6.25404L234.803 6.2716L234.924 6.29048L235.046 6.31112L235.167 6.33351L235.288 6.35722L235.409 6.38269L235.53 6.40991L235.65 6.43889L235.771 6.46919L235.891 6.50124L236.012 6.53505L236.132 6.57062L236.252 6.6075L236.372 6.64614L236.492 6.68654L236.612 6.72825L236.732 6.77172L236.851 6.81694L236.971 6.86349L237.09 6.91179L237.209 6.96184L237.328 7.01322L237.447 7.06634L237.566 7.12123L237.685 7.17787L237.803 7.23583L237.922 7.29555L238.04 7.35702L238.158 7.42025L238.276 7.48479L238.395 7.55109L238.395 7.55153V7.55022ZM242.083 11.2183L241.622 11.4752L241.546 11.3408L241.467 11.2082L241.387 11.0774L241.304 10.9483L241.22 10.821L241.133 10.6954L241.044 10.5716L240.954 10.4491L240.86 10.3283L240.766 10.2093L240.668 10.0921L240.568 9.97616L240.467 9.86244L240.363 9.75003L240.258 9.63938L240.15 9.53005L240.04 9.42291L239.928 9.31709L239.814 9.21303L239.697 9.11072L239.579 9.01017L239.458 8.91094L239.335 8.81346L239.21 8.71774L239.083 8.62334L238.953 8.53069L238.822 8.4398L238.689 8.35067L238.553 8.26285L238.415 8.17679L238.274 8.09205L238.132 8.0095L238.394 7.55109L238.543 7.63803L238.69 7.72673L238.835 7.81718L238.978 7.90939L239.118 8.00335L239.257 8.09907L239.393 8.19655L239.527 8.29578L239.659 8.39677L239.789 8.49996L239.916 8.6049L240.042 8.7116L240.165 8.82005L240.286 8.93026L240.404 9.04223L240.521 9.15595L240.635 9.27143L240.747 9.38866L240.857 9.50766L240.964 9.62884L241.07 9.75135L241.173 9.87605L241.274 10.0025L241.373 10.1307L241.469 10.2607L241.564 10.392L241.656 10.5255L241.745 10.6607L241.833 10.7977L241.918 10.9364L242 11.0769L242.081 11.2188L242.083 11.2183ZM243.355 16.3763H242.828L242.826 16.2046L242.823 16.0342L242.817 15.8652L242.809 15.6974L242.798 15.5306L242.785 15.3655L242.77 15.2013L242.752 15.0379L242.732 14.8763L242.71 14.7156L242.685 14.5563L242.658 14.3982L242.628 14.2414L242.597 14.0856L242.562 13.931L242.526 13.7773L242.487 13.6254L242.446 13.4739L242.402 13.3242L242.356 13.1753L242.308 13.0274L242.258 12.8807L242.204 12.7349L242.149 12.5905L242.091 12.4469L242.031 12.3046L241.969 12.1637L241.905 12.0236L241.838 11.8849L241.768 11.747L241.697 11.61L241.623 11.4743L242.084 11.2175L242.162 11.361L242.238 11.5055L242.312 11.6513L242.383 11.7984L242.451 11.9463L242.517 12.0956L242.581 12.2458L242.642 12.3973L242.7 12.5501L242.756 12.7038L242.81 12.8588L242.861 13.0146L242.909 13.1718L242.955 13.3303L242.999 13.4897L243.04 13.6504L243.078 13.8124L243.114 13.9753L243.148 14.1391L243.179 14.3042L243.207 14.4706L243.233 14.6379L243.257 14.8065L243.278 14.9765L243.296 15.1468L243.313 15.3189L243.326 15.4924L243.337 15.6667L243.346 15.8419L243.352 16.0188L243.356 16.1967L243.357 16.3754L243.355 16.3763ZM240.595 23.107L240.215 22.7404L240.216 22.7399L240.377 22.57L240.534 22.3983L240.685 22.2249L240.831 22.0492L240.971 21.8718L241.106 21.6927L241.237 21.5118L241.362 21.3291L241.482 21.1447L241.596 20.9581L241.706 20.7697L241.811 20.5796L241.91 20.3877L242.004 20.1941L242.093 19.9987L242.177 19.8011L242.256 19.6018L242.33 19.4007L242.399 19.1974L242.462 18.9923L242.521 18.7851L242.575 18.5761L242.623 18.3653L242.666 18.1524L242.705 17.9372L242.738 17.7203L242.766 17.5012L242.789 17.2803L242.807 17.0573L242.82 16.832L242.828 16.605L242.83 16.3758H243.358L243.355 16.6169L243.347 16.8562L243.334 17.0933L243.315 17.3291L243.291 17.5627L243.261 17.7941L243.226 18.0237L243.185 18.2516L243.14 18.4773L243.088 18.7008L243.032 18.923L242.97 19.1429L242.902 19.3607L242.829 19.5768L242.751 19.7906L242.667 20.0027L242.578 20.2125L242.483 20.4202L242.383 20.6257L242.277 20.8295L242.167 21.031L242.051 21.2303L241.93 21.4275L241.803 21.6229L241.671 21.8156L241.533 22.0066L241.39 22.1955L241.242 22.3825L241.089 22.5669L240.931 22.7496L240.767 22.93L240.598 23.1083L240.598 23.1079L240.595 23.107ZM234.166 25.5351L233.745 25.8526L233.956 25.4298L234.184 25.4271L234.41 25.4192L234.634 25.406L234.856 25.3876L235.075 25.3639L235.293 25.3349L235.508 25.3007L235.721 25.2616L235.932 25.2168L236.14 25.1672L236.347 25.1123L236.552 25.0517L236.754 24.9863L236.954 24.9156L237.153 24.8396L237.349 24.7584L237.544 24.6719L237.736 24.5801L237.926 24.4831L238.114 24.3808L238.301 24.2732L238.485 24.1604L238.667 24.0422L238.847 23.9189L239.025 23.7902L239.201 23.6563L239.375 23.5171L239.548 23.3726L239.717 23.2225L239.886 23.067L240.052 22.9063L240.216 22.7399L240.596 23.1066L240.424 23.2813L240.249 23.4504L240.072 23.6141L239.892 23.7726L239.71 23.9254L239.526 24.073L239.34 24.2148L239.151 24.3514L238.96 24.4822L238.766 24.6078L238.571 24.7277L238.373 24.8423L238.173 24.9507L237.97 25.0539L237.765 25.1514L237.559 25.2436L237.349 25.3301L237.138 25.4109L236.924 25.4864L236.708 25.5562L236.491 25.6203L236.271 25.6792L236.049 25.7323L235.824 25.7797L235.598 25.8214L235.37 25.8579L235.139 25.8882L234.906 25.9132L234.672 25.9325L234.436 25.9466L234.197 25.9549L233.957 25.9575L234.167 25.5347L234.166 25.5351ZM233.745 25.8526L233.427 25.4298H233.956L233.745 25.8526ZM242.475 37.4365L233.745 25.8526L234.166 25.5351L242.896 37.1191L242.686 37.5415L242.475 37.4365H242.475ZM242.896 37.1191L243.214 37.5406L242.686 37.5415L242.896 37.1191H242.896ZM238.809 37.0212L242.685 37.0141L242.686 37.5415L238.81 37.5485L238.599 37.4431L238.809 37.0212ZM238.81 37.5485L238.678 37.5489L238.599 37.4431L238.81 37.5485ZM228.486 23.0662L239.021 37.1265L238.598 37.4427L228.064 23.3823L228.275 22.9603L228.486 23.0662ZM228.064 23.3823L227.748 22.9603H228.275L228.064 23.3823ZM229.198 23.4881H228.275V22.9603H229.198V23.4881ZM230.038 23.4881H229.198V22.9603H230.038V23.4881ZM233.41 22.8361L233.466 23.3608L233.389 23.3687L233.312 23.3762L233.232 23.3836L233.15 23.3906L233.066 23.3977L232.98 23.4043L232.892 23.4104L232.802 23.4165L232.71 23.4223L232.616 23.428L232.52 23.4332L232.422 23.4381L232.322 23.4429L232.22 23.4477L232.116 23.4521L232.01 23.4561L231.902 23.46L231.792 23.4635L231.679 23.4666L231.565 23.4697L231.45 23.4723L231.331 23.4749L231.211 23.4771L231.089 23.4793L230.964 23.4811L230.838 23.4829L230.71 23.4842L230.58 23.485L230.448 23.4859L230.313 23.4864L230.177 23.4868L230.038 23.4872V22.9595H230.176L230.311 22.959L230.445 22.9586L230.576 22.9577L230.706 22.9568L230.833 22.9555L230.958 22.9538L231.082 22.952L231.203 22.9498L231.321 22.9476L231.438 22.945L231.553 22.9423L231.666 22.9393L231.777 22.9362L231.885 22.9327L231.992 22.9287L232.096 22.9248L232.199 22.9204L232.299 22.9156L232.397 22.9107L232.493 22.9059L232.587 22.9006L232.679 22.8954L232.769 22.8896L232.857 22.8839L232.943 22.8778L233.026 22.8716L233.108 22.8651L233.187 22.858L233.264 22.851L233.339 22.8435L233.412 22.8361H233.41ZM235.847 22.145L236.066 22.6249L236.062 22.6266L235.976 22.6635L235.891 22.6995L235.806 22.7351L235.721 22.7693L235.637 22.8027L235.553 22.8352L235.469 22.8668L235.385 22.8975L235.302 22.9274L235.219 22.9564L235.137 22.9845L235.054 23.0117L234.972 23.0381L234.891 23.0631L234.809 23.0877L234.728 23.1109L234.647 23.1333L234.566 23.1549L234.486 23.1755L234.406 23.1952L234.326 23.2141L234.246 23.2321L234.167 23.2493L234.088 23.2655L234.009 23.2809L233.931 23.2954L233.853 23.3085L233.775 23.3208L233.698 23.3322L233.62 23.3428L233.544 23.3524L233.467 23.3612L233.41 22.8365L233.481 22.8286L233.552 22.8198L233.623 22.8102L233.695 22.7996L233.767 22.7882L233.839 22.7759L233.911 22.7628L233.984 22.7483L234.058 22.7333L234.132 22.7175L234.207 22.7008L234.281 22.6833L234.356 22.6648L234.431 22.6455L234.507 22.6253L234.584 22.6042L234.66 22.5823L234.737 22.5595L234.814 22.5357L234.892 22.5112L234.97 22.4857L235.048 22.4593L235.126 22.4317L235.205 22.4031L235.285 22.3742L235.364 22.3443L235.445 22.3131L235.526 22.2815L235.606 22.2486L235.688 22.2152L235.769 22.1805L235.851 22.145L235.847 22.1467L235.847 22.145ZM238.714 19.7243L239.159 20.0088L239.09 20.1142L239.018 20.2187L238.946 20.3214L238.871 20.4224L238.795 20.5225L238.717 20.6205L238.637 20.7171L238.555 20.8119L238.471 20.9054L238.386 20.9972L238.299 21.0876L238.21 21.1763L238.12 21.2637L238.027 21.3493L237.933 21.4336L237.837 21.5162L237.739 21.5974L237.64 21.6769L237.539 21.7551L237.436 21.8315L237.332 21.9065L237.225 21.9794L237.117 22.051L237.007 22.1208L236.895 22.1893L236.782 22.256L236.667 22.3215L236.55 22.3851L236.432 22.4475L236.312 22.5081L236.19 22.5674L236.067 22.6249L235.848 22.145L235.964 22.091L236.078 22.0356L236.191 21.9785L236.302 21.9201L236.411 21.8609L236.518 21.7998L236.624 21.7375L236.727 21.6734L236.83 21.6084L236.93 21.5417L237.029 21.474L237.126 21.4047L237.221 21.334L237.315 21.262L237.407 21.1886L237.497 21.1136L237.585 21.0371L237.672 20.9594L237.757 20.8804L237.841 20.8L237.923 20.7184L238.003 20.6349L238.081 20.5502L238.158 20.4641L238.233 20.3768L238.307 20.2876L238.379 20.1976L238.449 20.1058L238.518 20.0123L238.586 19.9179L238.651 19.8222L238.714 19.7247V19.7243ZM239.722 16.0891H240.249L240.248 16.2265L240.245 16.3626L240.24 16.4983L240.233 16.6327L240.223 16.7662L240.211 16.8992L240.197 17.0309L240.182 17.1618L240.164 17.2918L240.143 17.4204L240.121 17.5486L240.096 17.6755L240.07 17.8015L240.042 17.9267L240.011 18.0505L239.978 18.1734L239.943 18.2959L239.905 18.4171L239.866 18.5374L239.824 18.6564L239.781 18.7745L239.735 18.8918L239.687 19.0081L239.637 19.1232L239.584 19.2378L239.53 19.3511L239.473 19.463L239.415 19.5741L239.354 19.6843L239.291 19.7932L239.226 19.9012L239.159 20.0084L238.714 19.7238L238.776 19.6255L238.836 19.5258L238.894 19.4253L238.95 19.3243L239.004 19.222L239.056 19.1188L239.106 19.0147L239.154 18.9098L239.2 18.8035L239.245 18.6964L239.287 18.5884L239.327 18.479L239.365 18.3693L239.402 18.2586L239.436 18.1467L239.469 18.0338L239.499 17.9196L239.527 17.8046L239.554 17.6891L239.578 17.5719L239.601 17.4538L239.622 17.3348L239.641 17.2149L239.657 17.0942L239.672 16.9721L239.685 16.8492L239.696 16.7249L239.705 16.5998L239.712 16.4733L239.717 16.3464L239.72 16.2182L239.721 16.0891H239.722ZM238.975 13.084L239.443 12.8403L239.492 12.9369L239.54 13.0339L239.587 13.131L239.631 13.2285L239.674 13.3264L239.716 13.4247L239.757 13.5231L239.795 13.6223L239.832 13.7216L239.868 13.8212L239.901 13.9213L239.934 14.0214L239.965 14.122L239.994 14.2226L240.021 14.3235L240.047 14.425L240.072 14.5268L240.095 14.6291L240.116 14.7315L240.136 14.8342L240.154 14.9374L240.17 15.0406L240.185 15.1438L240.198 15.2478L240.21 15.3519L240.22 15.4564L240.229 15.5609L240.236 15.6658L240.242 15.7712L240.246 15.8766L240.248 15.9824L240.249 16.0887H239.721L239.721 15.9907L239.718 15.8928L239.715 15.7949L239.71 15.6979L239.703 15.6008L239.696 15.5038L239.686 15.4072L239.675 15.311L239.663 15.2153L239.649 15.1196L239.634 15.0243L239.617 14.9295L239.599 14.8346L239.58 14.7402L239.559 14.6463L239.536 14.5523L239.512 14.4588L239.487 14.3653L239.459 14.2722L239.431 14.1795L239.401 14.0869L239.37 13.9942L239.337 13.902L239.303 13.8098L239.267 13.7185L239.23 13.6267L239.191 13.5358L239.151 13.4449L239.109 13.354L239.066 13.2636L239.022 13.1736L238.976 13.0836L238.975 13.084ZM236.938 10.7437L237.241 10.3121L237.328 10.374L237.413 10.4368L237.497 10.5009L237.58 10.5659L237.662 10.6322L237.743 10.6998L237.823 10.7683L237.901 10.8381L237.979 10.9088L238.055 10.9808L238.13 11.0537L238.204 11.1279L238.277 11.2034L238.349 11.2798L238.42 11.3571L238.489 11.4357L238.557 11.5152L238.625 11.5959L238.69 11.6776L238.755 11.7606L238.819 11.8445L238.881 11.9296L238.943 12.0157L239.003 12.1026L239.062 12.1913L239.12 12.2805L239.177 12.3709L239.232 12.4627L239.286 12.5553L239.339 12.6493L239.392 12.7442L239.443 12.8399L238.975 13.0836L238.928 12.9944L238.879 12.9062L238.83 12.8188L238.78 12.7327L238.728 12.6476L238.676 12.5637L238.622 12.4807L238.568 12.399L238.512 12.3182L238.455 12.2383L238.397 12.1597L238.338 12.082L238.279 12.0056L238.218 11.9296L238.156 11.855L238.092 11.7817L238.028 11.7092L237.963 11.6377L237.897 11.5674L237.83 11.498L237.761 11.4295L237.692 11.3619L237.622 11.2956L237.55 11.2302L237.478 11.1656L237.404 11.1024L237.329 11.0401L237.253 10.9786L237.177 10.918L237.098 10.8587L237.019 10.8003L236.939 10.7428L236.938 10.7437ZM234.008 9.59284L234.085 9.07121L234.194 9.08833L234.303 9.10677L234.411 9.12653L234.519 9.14761L234.625 9.17044L234.731 9.19415L234.837 9.21962L234.941 9.2464L235.045 9.2745L235.148 9.30436L235.251 9.33554L235.353 9.36803L235.454 9.40184L235.555 9.4374L235.654 9.47385L235.753 9.51205L235.852 9.55156L235.949 9.5924L236.046 9.63499L236.142 9.67846L236.238 9.72369L236.333 9.77023L236.427 9.81853L236.52 9.86771L236.613 9.91864L236.704 9.97045L236.796 10.024L236.886 10.0789L236.976 10.1351L237.065 10.1931L237.153 10.2519L237.241 10.3125L236.937 10.7441L236.856 10.6879L236.774 10.633L236.692 10.5795L236.609 10.5277L236.525 10.4767L236.441 10.4271L236.355 10.3788L236.27 10.3318L236.183 10.2862L236.096 10.2418L236.008 10.1988L235.92 10.1571L235.831 10.1167L235.741 10.0776L235.651 10.0398L235.559 10.0029L235.468 9.96782L235.375 9.93357L235.282 9.90108L235.188 9.86946L235.093 9.83917L234.998 9.81019L234.902 9.78252L234.805 9.75618L234.708 9.73115L234.61 9.70744L234.511 9.68505L234.411 9.66397L234.311 9.64421L234.21 9.62577L234.108 9.60865L234.006 9.59284H234.008ZM230.08 9.34388V8.8161L230.222 8.81654L230.363 8.81698L230.503 8.81829L230.642 8.82005L230.779 8.82224L230.916 8.82488L231.051 8.82795L231.186 8.83147L231.319 8.83586L231.452 8.84069L231.583 8.84596L231.713 8.85166L231.842 8.85781L231.969 8.8644L232.096 8.87142L232.221 8.87933L232.346 8.88723L232.47 8.89601L232.592 8.90523L232.714 8.91489L232.834 8.92499L232.953 8.93553L233.071 8.94651L233.188 8.95836L233.304 8.97066L233.419 8.98339L233.533 8.99656L233.645 9.01061L233.756 9.02466L233.867 9.03915L233.977 9.05452L234.085 9.07033L234.008 9.59196L233.902 9.57659L233.796 9.56166L233.689 9.54717L233.58 9.53356L233.47 9.52039L233.359 9.50766L233.247 9.49536L233.133 9.48351L233.019 9.47165L232.904 9.46067L232.787 9.45014L232.669 9.44004L232.551 9.43038L232.431 9.4216L232.31 9.41325L232.188 9.40535L232.064 9.39789L231.94 9.39086L231.814 9.38427L231.688 9.37813L231.56 9.37242L231.431 9.36715L231.301 9.36276L231.169 9.35837L231.037 9.35486L230.904 9.35178L230.769 9.34915L230.634 9.34695L230.497 9.3452L230.359 9.34388L230.22 9.34344H230.08V9.34388ZM225.169 8.8161H230.08V9.34388H225.169L224.905 9.07999L225.169 8.8161ZM224.905 9.07999V8.8161H225.169L224.905 9.07999ZM224.905 37.2846V9.07999H225.433V37.2846L225.169 37.5485L224.905 37.2846H224.905ZM225.433 37.2846V37.5485H225.169L225.433 37.2846ZM222.063 37.0207H225.169V37.5485H222.063L221.799 37.2846L222.063 37.0207ZM222.063 37.5485H221.799V37.2846L222.063 37.5485ZM222.327 6.26809V37.2846H221.8V6.26809L222.064 6.0042L222.328 6.26809H222.327ZM221.8 6.26809V6.0042H222.064L221.8 6.26809Z" fill="black"/>
<path d="M251.527 9.08041H244.392V6.26807H261.684V9.08041H254.633V37.285H251.527V9.08041Z" fill="black"/>
<path d="M244.392 8.81678H251.527V9.34456H244.392L244.128 9.08067L244.392 8.81678ZM244.392 9.34456H244.128V9.08067L244.392 9.34456ZM244.656 6.26877V9.08067H244.129V6.26877L244.393 6.00488L244.656 6.26877H244.656ZM244.129 6.26877V6.00488H244.393L244.129 6.26877ZM261.685 6.53266H244.393V6.00488H261.685L261.948 6.26877L261.685 6.53266ZM261.685 6.00488H261.948V6.26877L261.685 6.00488ZM261.421 9.08067V6.26877H261.948V9.08067L261.684 9.34456L261.42 9.08067H261.421ZM261.948 9.08067V9.34456H261.684L261.948 9.08067ZM254.633 8.81678H261.685V9.34456H254.633L254.369 9.08067L254.633 8.81678ZM254.369 9.08067V8.81678H254.633L254.369 9.08067ZM254.369 37.2853V9.08067H254.897V37.2853L254.633 37.5492L254.369 37.2853H254.369ZM254.897 37.2853V37.5492H254.633L254.897 37.2853ZM251.527 37.0214H254.633V37.5492H251.527L251.263 37.2853L251.527 37.0214ZM251.527 37.5492H251.263V37.2853L251.527 37.5492ZM251.791 9.08067V37.2853H251.264V9.08067L251.528 8.81678L251.792 9.08067H251.791ZM251.527 8.81678H251.791V9.08067L251.527 8.81678Z" fill="black"/>
<path d="M74.8723 45.5536C75.7162 45.5536 76.4662 45.7692 77.1217 46.2048C77.7817 46.636 78.2892 47.2463 78.6528 48.0235C79.0212 48.8046 79.2008 49.6937 79.2008 50.6949V58.7459C79.2008 58.8087 79.1784 58.8627 79.1336 58.9031C79.0932 58.9479 79.0392 58.9703 78.9764 58.9703H78.6888C78.626 58.9703 78.572 58.9479 78.5228 58.9031C78.4737 58.8627 78.4508 58.8087 78.4508 58.7459V50.7085C78.4508 49.8509 78.2936 49.083 77.9836 48.4138C77.6736 47.7403 77.2337 47.2195 76.6681 46.8423C76.1022 46.4652 75.4602 46.2763 74.7419 46.2763C73.8975 46.2763 73.1612 46.4652 72.5236 46.8423C71.8905 47.2195 71.4009 47.7539 71.0597 48.4454C70.7141 49.137 70.5433 49.9453 70.5433 50.8657L70.5297 50.852V58.7459C70.5297 58.8087 70.5073 58.8627 70.4669 58.9031C70.4222 58.9479 70.3681 58.9703 70.3097 58.9703H70.0178C69.9457 58.9703 69.8873 58.9479 69.8426 58.9031C69.7934 58.8627 69.7662 58.8087 69.7662 58.7459V50.7085C69.7662 49.8509 69.6134 49.083 69.299 48.4138C68.989 47.7403 68.5534 47.2195 67.9923 46.8423C67.4311 46.4652 66.7887 46.2763 66.0704 46.2763C65.2309 46.2763 64.4897 46.4652 63.8565 46.8423C63.219 47.2195 62.7294 47.7539 62.379 48.4454C62.0334 49.137 61.8626 49.9453 61.8626 50.8657V58.7727C61.8626 58.9211 61.7818 58.9971 61.6246 58.9971H61.3375C61.1847 58.9971 61.1127 58.9207 61.1127 58.7727V45.9712C61.1127 45.814 61.1847 45.7376 61.3375 45.7376H61.5078C61.575 45.7376 61.6334 45.7556 61.6782 45.796C61.7186 45.8364 61.741 45.886 61.741 45.9488L61.8218 48.3554C62.181 47.4667 62.7426 46.7795 63.4969 46.29C64.2556 45.796 65.1584 45.5536 66.2043 45.5536C67.1922 45.5536 68.0542 45.8544 68.7817 46.4608C69.5089 47.0667 70.0164 47.8843 70.3084 48.9214C70.596 47.8663 71.1436 47.0443 71.9427 46.4476C72.7467 45.8504 73.721 45.554 74.8705 45.554L74.8723 45.5536ZM96.0616 45.7376C96.2232 45.7376 96.2996 45.814 96.2996 45.9712V58.7591C96.2996 58.8311 96.2772 58.8847 96.2368 58.9295C96.192 58.9747 96.1337 58.9966 96.0616 58.9966H95.8908C95.8324 58.9966 95.7784 58.9742 95.7336 58.9382C95.6889 58.8978 95.6665 58.8438 95.6572 58.7723L95.5497 55.1665C95.2085 55.9661 94.7281 56.6664 94.1082 57.2723C93.493 57.8783 92.7747 58.3455 91.9575 58.6779C91.1448 59.0146 90.2736 59.1806 89.3533 59.1806C88.1186 59.1806 86.9871 58.8754 85.9587 58.2739C84.9348 57.6675 84.1269 56.8416 83.5341 55.7997C82.9413 54.7533 82.645 53.6086 82.645 52.3511C82.645 51.0712 82.9413 49.9085 83.5341 48.8577C84.1269 47.8114 84.9304 46.9855 85.9543 46.3883C86.9783 45.7863 88.105 45.4856 89.3401 45.4856C90.2653 45.4856 91.1316 45.6515 91.9536 45.9839C92.7751 46.3207 93.4934 46.7874 94.109 47.3938C94.7286 47.9998 95.2089 48.7005 95.5505 49.4997L95.6581 45.9479C95.6673 45.8851 95.6897 45.8355 95.7301 45.7951C95.7705 45.7547 95.8245 45.7367 95.8917 45.7367H96.0625L96.0616 45.7376ZM89.4341 58.4447C90.5656 58.4447 91.5983 58.1707 92.5367 57.6276C93.475 57.0844 94.2162 56.3432 94.7593 55.4093C95.3073 54.4754 95.5765 53.4514 95.5765 52.3379C95.5765 51.2064 95.3025 50.1737 94.7549 49.2397C94.2069 48.3058 93.4618 47.5694 92.5187 47.0263C91.5755 46.4827 90.5384 46.2092 89.4069 46.2092C88.3021 46.2092 87.2922 46.4832 86.3759 47.0263C85.4599 47.5694 84.7324 48.3106 84.198 49.2489C83.6636 50.1873 83.3945 51.2156 83.3945 52.3383C83.3945 53.4519 83.6641 54.4758 84.2028 55.4097C84.7416 56.3437 85.4779 57.0849 86.4031 57.628C87.3282 58.1712 88.3381 58.4451 89.4341 58.4451V58.4447ZM106.784 45.486C107.776 45.486 108.661 45.7016 109.442 46.1372C110.224 46.5727 110.83 47.1787 111.265 47.9602C111.701 48.7414 111.917 49.6305 111.917 50.6316V58.7455C111.917 58.8083 111.894 58.8623 111.849 58.9027C111.804 58.9475 111.755 58.9698 111.692 58.9698H111.405C111.333 58.9698 111.275 58.9475 111.225 58.9027C111.176 58.8623 111.153 58.8083 111.153 58.7455V50.654C111.153 49.7965 110.965 49.0285 110.583 48.355C110.201 47.677 109.667 47.1519 108.989 46.7747C108.311 46.3975 107.534 46.2087 106.668 46.2087C105.765 46.2087 104.93 46.4195 104.167 46.8327C103.403 47.2502 102.797 47.8114 102.348 48.5166C101.894 49.2261 101.67 49.9892 101.67 50.8108V58.7718C101.67 58.9202 101.589 58.9962 101.432 58.9962H101.145C100.992 58.9962 100.92 58.9198 100.92 58.7718V45.9703C100.92 45.8131 100.992 45.7367 101.145 45.7367H101.315C101.382 45.7367 101.441 45.7547 101.486 45.7951C101.526 45.8355 101.548 45.8851 101.548 45.9479L101.643 48.6285C101.921 48.0134 102.321 47.4698 102.837 46.9986C103.358 46.5227 103.955 46.1543 104.633 45.8851C105.316 45.6203 106.029 45.4856 106.784 45.4856L106.784 45.486ZM127.017 45.7376C127.174 45.7376 127.255 45.8096 127.255 45.9576V58.7591C127.255 58.8311 127.233 58.8847 127.188 58.9295C127.143 58.9747 127.089 58.9966 127.018 58.9966H126.847C126.784 58.9966 126.73 58.9742 126.69 58.9382C126.644 58.8978 126.618 58.8438 126.609 58.7723L126.532 56.0873C126.25 56.7024 125.85 57.2456 125.334 57.7215C124.817 58.1931 124.216 58.5655 123.533 58.8307C122.846 59.1003 122.127 59.2302 121.373 59.2351C120.381 59.2307 119.501 59.0151 118.724 58.5795C117.947 58.1483 117.341 57.5424 116.905 56.7656C116.474 55.9889 116.254 55.1041 116.254 54.103V45.9712C116.254 45.9128 116.276 45.8588 116.317 45.8232C116.353 45.7828 116.406 45.7604 116.465 45.7604H116.757C116.824 45.7604 116.887 45.7828 116.932 45.8232C116.981 45.8592 117.004 45.9128 117.004 45.9712V54.0763C117.004 54.9338 117.197 55.7017 117.579 56.3797C117.96 57.0532 118.49 57.5784 119.177 57.9556C119.859 58.3327 120.636 58.5215 121.503 58.5215C122.401 58.5215 123.227 58.3147 123.991 57.8976C124.754 57.48 125.36 56.9184 125.814 56.2137C126.263 55.5085 126.492 54.7454 126.492 53.9191V45.958C126.492 45.8096 126.568 45.738 126.725 45.738H127.017V45.7376ZM137.277 38.7373C137.354 38.7373 137.421 38.7596 137.479 38.8044C137.538 38.8448 137.564 38.8988 137.564 38.9616V39.2488C137.564 39.3116 137.537 39.3612 137.488 39.4016C137.434 39.442 137.367 39.46 137.29 39.46C136.648 39.46 136.064 39.6124 135.539 39.9223C135.014 40.2279 134.596 40.6587 134.291 41.2154C133.981 41.7722 133.829 42.4142 133.829 43.1417V45.7595H136.999C137.071 45.7595 137.129 45.7775 137.169 45.8135C137.214 45.8496 137.236 45.8987 137.236 45.9571V46.2219C137.236 46.2939 137.214 46.3475 137.169 46.3927C137.129 46.4375 137.07 46.4599 136.999 46.4599H133.829V58.7718C133.829 58.9202 133.752 58.9962 133.591 58.9962H133.263C133.204 58.9962 133.155 58.9738 133.123 58.9378C133.097 58.8974 133.079 58.8434 133.079 58.7718V46.4599H130.923C130.851 46.4599 130.798 46.4375 130.757 46.3927C130.717 46.3475 130.699 46.2939 130.699 46.2219V45.9703C130.699 45.9119 130.717 45.8579 130.757 45.8223C130.798 45.7819 130.852 45.7595 130.923 45.7595H133.079V43.1553C133.079 42.2886 133.263 41.5211 133.631 40.8475C133.999 40.1783 134.507 39.6576 135.144 39.2892C135.786 38.9208 136.496 38.7368 137.277 38.7368L137.277 38.7373ZM152.243 45.7376C152.405 45.7376 152.481 45.814 152.481 45.9712V58.7591C152.481 58.8311 152.459 58.8847 152.418 58.9295C152.373 58.9747 152.315 58.9966 152.243 58.9966H152.072C152.014 58.9966 151.96 58.9742 151.915 58.9382C151.87 58.8978 151.848 58.8438 151.839 58.7723L151.731 55.1665C151.39 55.9661 150.91 56.6664 150.29 57.2723C149.674 57.8783 148.956 58.3455 148.139 58.6779C147.326 59.0146 146.455 59.1806 145.535 59.1806C144.3 59.1806 143.168 58.8754 142.14 58.2739C141.116 57.6675 140.308 56.8416 139.715 55.7997C139.123 54.7533 138.826 53.6086 138.826 52.3511C138.826 51.0712 139.123 49.9085 139.715 48.8577C140.308 47.8114 141.112 46.9855 142.136 46.3883C143.16 45.7863 144.286 45.4856 145.521 45.4856C146.447 45.4856 147.313 45.6515 148.135 45.9839C148.956 46.3207 149.675 46.7874 150.29 47.3938C150.91 47.9998 151.39 48.7005 151.732 49.4997L151.839 45.9479C151.849 45.8851 151.871 45.8355 151.911 45.7951C151.952 45.7547 152.006 45.7367 152.073 45.7367H152.244L152.243 45.7376ZM145.615 58.4447C146.747 58.4447 147.78 58.1707 148.718 57.6276C149.656 57.0844 150.398 56.3432 150.941 55.4093C151.489 54.4754 151.758 53.4514 151.758 52.3379C151.758 51.2064 151.484 50.1737 150.936 49.2397C150.388 48.3058 149.643 47.5694 148.7 47.0263C147.757 46.4827 146.72 46.2092 145.588 46.2092C144.483 46.2092 143.474 46.4832 142.557 47.0263C141.641 47.5694 140.914 48.3106 140.379 49.2489C139.845 50.1873 139.576 51.2156 139.576 52.3383C139.576 53.4519 139.845 54.4758 140.384 55.4097C140.923 56.3437 141.659 57.0849 142.584 57.628C143.51 58.1712 144.52 58.4451 145.615 58.4451V58.4447ZM162.849 59.2083C161.605 59.2083 160.464 58.8939 159.427 58.2743C158.394 57.6504 157.577 56.8104 156.975 55.7597C156.373 54.709 156.073 53.5687 156.073 52.3379C156.073 51.094 156.373 49.9537 156.975 48.921C157.577 47.8838 158.394 47.0667 159.427 46.4603C160.464 45.8539 161.596 45.5532 162.821 45.5532C163.697 45.5532 164.555 45.7191 165.385 46.0559C166.22 46.3971 166.957 46.8507 167.599 47.421C167.658 47.4702 167.689 47.5291 167.689 47.5918C167.689 47.6322 167.671 47.6814 167.635 47.7354L167.477 47.9734C167.441 48.023 167.387 48.0498 167.307 48.0498C167.244 48.0498 167.185 48.023 167.123 47.9734C166.517 47.439 165.852 47.0263 165.129 46.7343C164.406 46.4471 163.639 46.3031 162.821 46.3031C161.726 46.3031 160.72 46.5679 159.804 47.1023C158.888 47.6366 158.165 48.3686 157.631 49.2937C157.101 50.2189 156.836 51.2336 156.836 52.3379C156.836 53.4334 157.105 54.453 157.64 55.3913C158.174 56.3296 158.902 57.0752 159.822 57.6276C160.743 58.1799 161.757 58.4583 162.862 58.4583C163.679 58.4583 164.451 58.3055 165.192 58.0047C165.928 57.6996 166.57 57.2908 167.123 56.7744C167.195 56.7204 167.257 56.6936 167.32 56.6936C167.365 56.6936 167.41 56.716 167.451 56.7608L167.621 56.9808C167.657 57.0348 167.675 57.084 167.675 57.1292C167.675 57.2236 167.639 57.2952 167.572 57.3404C166.93 57.9332 166.202 58.3955 165.381 58.7187C164.559 59.0467 163.715 59.2083 162.848 59.2083H162.849ZM176.203 58.4851C176.279 58.4851 176.346 58.5031 176.4 58.5435C176.449 58.5795 176.477 58.6331 176.477 58.6915V58.9835C176.477 59.0419 176.449 59.0959 176.391 59.1407C176.337 59.1854 176.261 59.2078 176.176 59.2078C175.403 59.2078 174.698 59.0282 174.056 58.6735C173.419 58.3187 172.912 57.8295 172.539 57.2144C172.166 56.5948 171.977 55.9077 171.977 55.1533V46.4199H169.898C169.741 46.4199 169.665 46.3527 169.665 46.2223V45.9707C169.665 45.8228 169.741 45.7508 169.898 45.7508H171.977V41.4987C171.977 41.3775 172.04 41.2923 172.161 41.2519L172.494 41.1847C172.512 41.1755 172.534 41.1715 172.57 41.1715C172.624 41.1715 172.664 41.1895 172.696 41.2299C172.727 41.2703 172.74 41.3195 172.74 41.3823V45.7512H175.924C176.072 45.7512 176.149 45.814 176.149 45.9488V46.2228C176.149 46.3532 176.072 46.4204 175.924 46.4204H172.74V55.1674C172.74 55.7738 172.893 56.3305 173.203 56.8377C173.508 57.3496 173.925 57.7492 174.46 58.0412C174.99 58.3376 175.569 58.4855 176.202 58.4855L176.203 58.4851ZM190.859 45.7376C191.016 45.7376 191.097 45.8096 191.097 45.9576V58.7591C191.097 58.8311 191.074 58.8847 191.03 58.9295C190.985 58.9747 190.931 58.9966 190.859 58.9966H190.688C190.626 58.9966 190.572 58.9742 190.531 58.9382C190.486 58.8978 190.459 58.8438 190.45 58.7723L190.374 56.0873C190.091 56.7024 189.692 57.2456 189.175 57.7215C188.659 58.1931 188.057 58.5655 187.375 58.8307C186.687 59.1003 185.969 59.2302 185.215 59.2351C184.222 59.2307 183.343 59.0151 182.565 58.5795C181.789 58.1483 181.182 57.5424 180.747 56.7656C180.315 55.9889 180.095 55.1041 180.095 54.103V45.9712C180.095 45.9128 180.118 45.8588 180.158 45.8232C180.194 45.7828 180.248 45.7604 180.306 45.7604H180.598C180.665 45.7604 180.728 45.7828 180.773 45.8232C180.823 45.8592 180.845 45.9128 180.845 45.9712V54.0763C180.845 54.9338 181.039 55.7017 181.42 56.3797C181.802 57.0532 182.332 57.5784 183.018 57.9556C183.701 58.3327 184.478 58.5215 185.344 58.5215C186.242 58.5215 187.069 58.3147 187.832 57.8976C188.596 57.48 189.202 56.9184 189.655 56.2137C190.104 55.5085 190.333 54.7454 190.333 53.9191V45.958C190.333 45.8096 190.41 45.738 190.567 45.738H190.859V45.7376ZM203.539 46.4335C203.606 46.4783 203.656 46.5279 203.683 46.5907C203.709 46.6535 203.705 46.7075 203.669 46.7615L203.512 46.9995C203.458 47.0715 203.404 47.1027 203.342 47.1027C203.288 47.1027 203.211 47.0759 203.104 47.0131C202.735 46.7664 202.345 46.5732 201.927 46.434C201.509 46.2948 201.11 46.2228 200.724 46.2228C199.933 46.2228 199.211 46.4204 198.559 46.8068C197.904 47.1975 197.392 47.7271 197.015 48.3875C196.638 49.0474 196.449 49.7706 196.449 50.5517V58.7731C196.449 58.9216 196.368 58.9975 196.211 58.9975H195.924C195.771 58.9975 195.699 58.9211 195.699 58.7731V45.9716C195.699 45.8144 195.771 45.738 195.924 45.738H196.094C196.161 45.738 196.22 45.756 196.264 45.7964C196.305 45.8368 196.327 45.8864 196.327 45.9492L196.408 48.3695C196.785 47.5163 197.364 46.8296 198.15 46.304C198.936 45.774 199.816 45.5137 200.79 45.5137C201.226 45.5137 201.688 45.5944 202.178 45.756C202.663 45.9176 203.117 46.1424 203.539 46.434L203.539 46.4335ZM211.563 45.5264C212.812 45.5264 213.916 45.8048 214.886 46.3615C215.856 46.9183 216.61 47.695 217.153 48.6874C217.697 49.6841 217.971 50.82 217.971 52.1043C217.971 52.2075 217.939 52.3063 217.872 52.3915C217.805 52.4815 217.71 52.5219 217.589 52.5219H205.789C205.807 53.595 206.085 54.583 206.624 55.4945C207.163 56.4104 207.895 57.1336 208.82 57.6675C209.745 58.2019 210.773 58.4715 211.896 58.4715C212.727 58.4715 213.517 58.3323 214.262 58.0627C215.008 57.7887 215.654 57.3804 216.206 56.8368C216.26 56.7872 216.319 56.7604 216.381 56.7604C216.44 56.7604 216.494 56.7828 216.539 56.8232L216.709 57.0344C216.754 57.0792 216.772 57.1288 216.772 57.1779C216.772 57.25 216.741 57.3215 216.669 57.3891C216.053 57.9863 215.326 58.4399 214.478 58.745C213.633 59.0506 212.753 59.2074 211.842 59.2074C210.58 59.2074 209.426 58.8974 208.389 58.2871C207.347 57.6719 206.53 56.8412 205.928 55.7992C205.327 54.7529 205.026 53.617 205.026 52.3779C205.026 51.1159 205.318 49.962 205.897 48.9113C206.472 47.865 207.262 47.0386 208.263 46.4327C209.264 45.8267 210.365 45.5255 211.563 45.5255V45.5264ZM211.55 46.2627C210.553 46.2627 209.628 46.5051 208.784 46.9899C207.935 47.4794 207.248 48.1438 206.719 48.9833C206.184 49.8277 205.883 50.766 205.803 51.7987H217.208C217.163 50.712 216.898 49.7513 216.413 48.9117C215.923 48.0766 215.264 47.4254 214.424 46.9587C213.589 46.4963 212.633 46.2627 211.55 46.2627H211.55Z" fill="black"/>
</g>
<defs>
<clipPath id="clip0_48_790">
<rect width="261.948" height="65" fill="white"/>
</clipPath>
</defs>
</svg>
