<svg width="18" height="26" viewBox="0 0 18 26" fill="none" xmlns="http://www.w3.org/2000/svg">
<path d="M9 5.7375C9.85248 5.7375 10.67 6.07332 11.2728 6.6711C11.8756 7.26887 12.2143 8.07962 12.2143 8.925C12.2143 9.34359 12.1311 9.75808 11.9696 10.1448C11.8081 10.5315 11.5713 10.8829 11.2728 11.1789C10.9744 11.4749 10.62 11.7097 10.2301 11.8699C9.84008 12.0301 9.42211 12.1125 9 12.1125C8.14752 12.1125 7.32995 11.7767 6.72716 11.1789C6.12436 10.5811 5.78571 9.77038 5.78571 8.925C5.78571 8.07962 6.12436 7.26887 6.72716 6.6711C7.32995 6.07332 8.14752 5.7375 9 5.7375ZM9 0C11.3869 0 13.6761 0.94031 15.364 2.61407C17.0518 4.28783 18 6.55794 18 8.925C18 15.6187 9 25.5 9 25.5C9 25.5 0 15.6187 0 8.925C0 6.55794 0.948211 4.28783 2.63604 2.61407C4.32387 0.94031 6.61305 0 9 0ZM9 2.55C7.29504 2.55 5.6599 3.22165 4.45431 4.41719C3.24872 5.61274 2.57143 7.23424 2.57143 8.925C2.57143 10.2 2.57143 12.75 9 21.3052C15.4286 12.75 15.4286 10.2 15.4286 8.925C15.4286 7.23424 14.7513 5.61274 13.5457 4.41719C12.3401 3.22165 10.705 2.55 9 2.55Z" fill="black"/>
</svg>
