<svg width="25" height="25" viewBox="0 0 25 25" fill="none" xmlns="http://www.w3.org/2000/svg">
<path d="M17.1154 20C10.435 20 5 14.565 5 7.88456C5.00129 6.6897 5.43751 5.53618 6.22719 4.63947C7.01686 3.74276 8.10597 3.1642 9.29108 3.01186C9.64303 2.96934 9.99929 3.04184 10.3066 3.21853C10.614 3.39521 10.8559 3.6666 10.9962 3.99214L12.6408 7.82963C12.7475 8.07774 12.791 8.34843 12.7675 8.61747C12.7439 8.88652 12.654 9.14552 12.5058 9.37132L11.248 11.2934C11.8081 12.3476 12.6729 13.2085 13.7295 13.7641L15.6203 12.5032C15.8467 12.3517 16.1075 12.2592 16.3787 12.2343C16.65 12.2094 16.9233 12.2527 17.1735 12.3605L21.0078 14.0038C21.3334 14.144 21.6049 14.3859 21.7816 14.6932C21.9584 15.0006 22.0308 15.3569 21.9881 15.7089C21.8358 16.894 21.2572 17.9831 20.3605 18.7728C19.4638 19.5625 18.3103 19.9987 17.1154 20ZM9.29181 5.00264C8.63318 5.14514 8.04316 5.50875 7.6198 6.03303C7.19644 6.55731 6.96526 7.21069 6.96467 7.88456C6.9677 10.5758 8.03813 13.1559 9.94111 15.0589C11.8441 16.9619 14.4242 18.0323 17.1154 18.0353C17.7893 18.0347 18.4427 17.8035 18.9669 17.3802C19.4912 16.9568 19.8548 16.3668 19.9974 15.7082L16.5627 14.2362L14.6609 15.5044C14.4251 15.6617 14.1525 15.7552 13.8698 15.7755C13.587 15.7958 13.3039 15.7423 13.048 15.6203C11.4586 14.8501 10.1728 13.5701 9.39537 11.9842C9.27276 11.7299 9.21797 11.4482 9.23633 11.1665C9.25469 10.8847 9.34557 10.6125 9.50015 10.3762L10.766 8.4422L9.29181 5.00264Z" fill="#939393"/>
</svg>
